u2194_noise 50 - 60.ufo
<glyph name="exclam" format="1">
  <advance width="260"/>
  <unicode hex="0021"/>
  <outline>
    <contour>
      <point x="191" y="193" type="curve" smooth="yes"/>
      <point x="205" y="293" type="line" smooth="yes"/>
      <point x="206" y="294"/>
      <point x="206" y="297"/>
      <point x="206" y="299" type="curve" smooth="yes"/>
      <point x="210" y="399" type="line" smooth="yes"/>
      <point x="210" y="403"/>
      <point x="209" y="410"/>
      <point x="208" y="414" type="curve" smooth="yes"/>
      <point x="187" y="507" type="line"/>
      <point x="189" y="600" type="line" smooth="yes"/>
      <point x="189" y="603"/>
      <point x="189" y="609"/>
      <point x="188" y="612" type="curve" smooth="yes"/>
      <point x="172" y="698" type="line"/>
      <point x="198" y="783" type="line" smooth="yes"/>
      <point x="208" y="814"/>
      <point x="190" y="849"/>
      <point x="159" y="858" type="curve" smooth="yes"/>
      <point x="128" y="868"/>
      <point x="93" y="850"/>
      <point x="84" y="819" type="curve" smooth="yes"/>
      <point x="53" y="719" type="line" smooth="yes"/>
      <point x="50" y="711"/>
      <point x="50" y="698"/>
      <point x="51" y="690" type="curve" smooth="yes"/>
      <point x="69" y="596" type="line"/>
      <point x="67" y="502" type="line" smooth="yes"/>
      <point x="67" y="498"/>
      <point x="68" y="492"/>
      <point x="69" y="488" type="curve" smooth="yes"/>
      <point x="90" y="395" type="line"/>
      <point x="86" y="306" type="line"/>
      <point x="73" y="209" type="line" smooth="yes"/>
      <point x="68" y="177"/>
      <point x="92" y="146"/>
      <point x="124" y="142" type="curve" smooth="yes"/>
      <point x="156" y="137"/>
      <point x="187" y="161"/>
    </contour>
    <contour>
      <point x="110" y="71" type="curve" smooth="yes"/>
      <point x="81" y="56"/>
      <point x="70" y="19"/>
      <point x="85" y="-10" type="curve" smooth="yes"/>
      <point x="94" y="-27" type="line" smooth="yes"/>
      <point x="109" y="-56"/>
      <point x="146" y="-67"/>
      <point x="175" y="-52" type="curve" smooth="yes"/>
      <point x="204" y="-37"/>
      <point x="215" y="0"/>
      <point x="200" y="29" type="curve" smooth="yes"/>
      <point x="191" y="46" type="line" smooth="yes"/>
      <point x="176" y="75"/>
      <point x="139" y="86"/>
    </contour>
  </outline>
</glyph>
<glyph name="numbersign" format="1">
  <advance width="804"/>
  <unicode hex="0023"/>
  <outline>
    <contour>
      <point x="347" y="273" type="line" smooth="yes"/>
      <point x="351" y="280"/>
      <point x="353" y="292"/>
      <point x="353" y="300" type="curve" smooth="yes"/>
      <point x="351" y="393" type="line"/>
      <point x="372" y="482" type="line"/>
      <point x="390" y="539" type="line"/>
      <point x="486" y="539" type="line"/>
      <point x="488" y="509" type="line"/>
      <point x="451" y="423" type="line" smooth="yes"/>
      <point x="450" y="420"/>
      <point x="448" y="415"/>
      <point x="447" y="411" type="curve" smooth="yes"/>
      <point x="428" y="321" type="line"/>
      <point x="392" y="259" type="line"/>
      <point x="340" y="259" type="line"/>
    </contour>
    <contour>
      <point x="420" y="-61" type="curve" smooth="yes"/>
      <point x="452" y="-59"/>
      <point x="478" y="-30"/>
      <point x="476" y="3" type="curve" smooth="yes"/>
      <point x="470" y="96" type="line"/>
      <point x="478" y="139" type="line"/>
      <point x="596" y="139" type="line" smooth="yes"/>
      <point x="628" y="139"/>
      <point x="656" y="167"/>
      <point x="656" y="199" type="curve" smooth="yes"/>
      <point x="656" y="231"/>
      <point x="628" y="259"/>
      <point x="596" y="259" type="curve" smooth="yes"/>
      <point x="531" y="259" type="line"/>
      <point x="537" y="269" type="line" smooth="yes"/>
      <point x="540" y="274"/>
      <point x="543" y="281"/>
      <point x="544" y="287" type="curve" smooth="yes"/>
      <point x="563" y="381" type="line"/>
      <point x="604" y="475" type="line" smooth="yes"/>
      <point x="607" y="483"/>
      <point x="609" y="496"/>
      <point x="609" y="504" type="curve" smooth="yes"/>
      <point x="606" y="539" type="line"/>
      <point x="694" y="539" type="line" smooth="yes"/>
      <point x="726" y="539"/>
      <point x="754" y="567"/>
      <point x="754" y="599" type="curve" smooth="yes"/>
      <point x="754" y="631"/>
      <point x="726" y="659"/>
      <point x="694" y="659" type="curve" smooth="yes"/>
      <point x="639" y="659" type="line"/>
      <point x="645" y="672" type="line" smooth="yes"/>
      <point x="647" y="674"/>
      <point x="648" y="677"/>
      <point x="649" y="680" type="curve" smooth="yes"/>
      <point x="683" y="780" type="line" smooth="yes"/>
      <point x="693" y="810"/>
      <point x="676" y="845"/>
      <point x="645" y="856" type="curve" smooth="yes"/>
      <point x="615" y="866"/>
      <point x="580" y="849"/>
      <point x="569" y="818" type="curve" smooth="yes"/>
      <point x="537" y="722" type="line"/>
      <point x="504" y="659" type="line"/>
      <point x="413" y="659" type="line"/>
      <point x="416" y="678" type="line"/>
      <point x="473" y="766" type="line" smooth="yes"/>
      <point x="491" y="793"/>
      <point x="483" y="832"/>
      <point x="456" y="849" type="curve" smooth="yes"/>
      <point x="429" y="867"/>
      <point x="390" y="859"/>
      <point x="373" y="832" type="curve" smooth="yes"/>
      <point x="308" y="732" type="line" smooth="yes"/>
      <point x="304" y="725"/>
      <point x="299" y="714"/>
      <point x="299" y="707" type="curve" smooth="yes"/>
      <point x="292" y="659" type="line"/>
      <point x="178" y="659" type="line" smooth="yes"/>
      <point x="146" y="659"/>
      <point x="118" y="631"/>
      <point x="118" y="599" type="curve" smooth="yes"/>
      <point x="118" y="567"/>
      <point x="146" y="539"/>
      <point x="178" y="539" type="curve" smooth="yes"/>
      <point x="264" y="539" type="line"/>
      <point x="258" y="516" type="line"/>
      <point x="233" y="413" type="line" smooth="yes"/>
      <point x="232" y="409"/>
      <point x="231" y="402"/>
      <point x="231" y="398" type="curve" smooth="yes"/>
      <point x="233" y="312" type="line"/>
      <point x="208" y="259" type="line"/>
      <point x="110" y="259" type="line" smooth="yes"/>
      <point x="78" y="259"/>
      <point x="50" y="231"/>
      <point x="50" y="199" type="curve" smooth="yes"/>
      <point x="50" y="167"/>
      <point x="78" y="139"/>
      <point x="110" y="139" type="curve" smooth="yes"/>
      <point x="177" y="139" type="line"/>
      <point x="173" y="112" type="line"/>
      <point x="143" y="17" type="line" smooth="yes"/>
      <point x="133" y="-14"/>
      <point x="151" y="-48"/>
      <point x="182" y="-58" type="curve" smooth="yes"/>
      <point x="213" y="-68"/>
      <point x="247" y="-50"/>
      <point x="257" y="-19" type="curve" smooth="yes"/>
      <point x="289" y="81" type="line" smooth="yes"/>
      <point x="290" y="83"/>
      <point x="291" y="88"/>
      <point x="291" y="91" type="curve" smooth="yes"/>
      <point x="298" y="139" type="line"/>
      <point x="356" y="139" type="line"/>
      <point x="351" y="109" type="line" smooth="yes"/>
      <point x="350" y="105"/>
      <point x="350" y="99"/>
      <point x="350" y="95" type="curve" smooth="yes"/>
      <point x="356" y="-5" type="line" smooth="yes"/>
      <point x="358" y="-37"/>
      <point x="387" y="-63"/>
    </contour>
  </outline>
</glyph>
<glyph name="dollar" format="1">
  <advance width="845"/>
  <unicode hex="0024"/>
  <outline>
    <contour>
      <point x="334" y="478" type="curve" smooth="yes"/>
      <point x="341" y="459" type="line"/>
      <point x="315" y="459" type="line"/>
      <point x="254" y="464" type="line"/>
      <point x="197" y="493" type="line"/>
      <point x="189" y="599" type="line"/>
      <point x="190" y="677" type="line"/>
      <point x="196" y="712" type="line"/>
      <point x="329" y="739" type="line"/>
      <point x="361" y="739" type="line"/>
      <point x="356" y="710" type="line" smooth="yes"/>
      <point x="355" y="703"/>
      <point x="355" y="693"/>
      <point x="356" y="687" type="curve" smooth="yes"/>
      <point x="373" y="606" type="line"/>
      <point x="335" y="524" type="line" smooth="yes"/>
      <point x="330" y="511"/>
      <point x="329" y="491"/>
    </contour>
    <contour>
      <point x="468" y="190" type="line" smooth="yes"/>
      <point x="469" y="193"/>
      <point x="469" y="198"/>
      <point x="469" y="201" type="curve" smooth="yes"/>
      <point x="466" y="293" type="line"/>
      <point x="476" y="339" type="line"/>
      <point x="500" y="339" type="line"/>
      <point x="580" y="334" type="line"/>
      <point x="616" y="307" type="line"/>
      <point x="651" y="197" type="line"/>
      <point x="642" y="143" type="line"/>
      <point x="597" y="87" type="line"/>
      <point x="510" y="59" type="line"/>
      <point x="470" y="59" type="line"/>
      <point x="455" y="104" type="line"/>
    </contour>
    <contour>
      <point x="314" y="-61" type="curve" smooth="yes"/>
      <point x="519" y="-61" type="line" smooth="yes"/>
      <point x="524" y="-61"/>
      <point x="532" y="-60"/>
      <point x="537" y="-58" type="curve" smooth="yes"/>
      <point x="652" y="-21" type="line" smooth="yes"/>
      <point x="661" y="-18"/>
      <point x="674" y="-9"/>
      <point x="680" y="-2" type="curve" smooth="yes"/>
      <point x="745" y="80" type="line" smooth="yes"/>
      <point x="750" y="87"/>
      <point x="756" y="99"/>
      <point x="757" y="107" type="curve" smooth="yes"/>
      <point x="772" y="191" type="line" smooth="yes"/>
      <point x="774" y="199"/>
      <point x="773" y="212"/>
      <point x="770" y="220" type="curve" smooth="yes"/>
      <point x="724" y="361" type="line" smooth="yes"/>
      <point x="721" y="371"/>
      <point x="712" y="384"/>
      <point x="704" y="390" type="curve" smooth="yes"/>
      <point x="639" y="440" type="line" smooth="yes"/>
      <point x="631" y="446"/>
      <point x="616" y="452"/>
      <point x="606" y="453" type="curve" smooth="yes"/>
      <point x="508" y="459" type="line"/>
      <point x="469" y="459" type="line"/>
      <point x="455" y="497" type="line"/>
      <point x="491" y="574" type="line" smooth="yes"/>
      <point x="495" y="584"/>
      <point x="497" y="601"/>
      <point x="495" y="611" type="curve" smooth="yes"/>
      <point x="476" y="700" type="line"/>
      <point x="483" y="739" type="line"/>
      <point x="517" y="739" type="line"/>
      <point x="609" y="712" type="line"/>
      <point x="639" y="654" type="line"/>
      <point x="683" y="571" type="line" smooth="yes"/>
      <point x="698" y="543"/>
      <point x="735" y="531"/>
      <point x="764" y="546" type="curve" smooth="yes"/>
      <point x="792" y="561"/>
      <point x="804" y="598"/>
      <point x="789" y="627" type="curve" smooth="yes"/>
      <point x="746" y="710" type="line"/>
      <point x="703" y="791" type="line" smooth="yes"/>
      <point x="697" y="803"/>
      <point x="680" y="817"/>
      <point x="667" y="821" type="curve" smooth="yes"/>
      <point x="542" y="857" type="line" smooth="yes"/>
      <point x="537" y="858"/>
      <point x="530" y="859"/>
      <point x="525" y="859" type="curve" smooth="yes"/>
      <point x="323" y="859" type="line" smooth="yes"/>
      <point x="320" y="859"/>
      <point x="314" y="858"/>
      <point x="311" y="858" type="curve" smooth="yes"/>
      <point x="132" y="822" type="line" smooth="yes"/>
      <point x="109" y="817"/>
      <point x="88" y="795"/>
      <point x="84" y="772" type="curve" smooth="yes"/>
      <point x="71" y="692" type="line" smooth="yes"/>
      <point x="71" y="689"/>
      <point x="70" y="685"/>
      <point x="70" y="683" type="curve" smooth="yes"/>
      <point x="69" y="598" type="line" smooth="yes"/>
      <point x="69" y="596"/>
      <point x="69" y="594"/>
      <point x="69" y="592" type="curve" smooth="yes"/>
      <point x="80" y="451" type="line" smooth="yes"/>
      <point x="82" y="432"/>
      <point x="96" y="411"/>
      <point x="112" y="402" type="curve" smooth="yes"/>
      <point x="209" y="352" type="line" smooth="yes"/>
      <point x="215" y="349"/>
      <point x="225" y="346"/>
      <point x="232" y="345" type="curve" smooth="yes"/>
      <point x="308" y="339" type="line" smooth="yes"/>
      <point x="309" y="339"/>
      <point x="312" y="339"/>
      <point x="313" y="339" type="curve" smooth="yes"/>
      <point x="353" y="339" type="line"/>
      <point x="347" y="312" type="line" smooth="yes"/>
      <point x="347" y="308"/>
      <point x="346" y="301"/>
      <point x="346" y="297" type="curve" smooth="yes"/>
      <point x="349" y="203" type="line"/>
      <point x="334" y="108" type="line" smooth="yes"/>
      <point x="332" y="100"/>
      <point x="334" y="87"/>
      <point x="336" y="80" type="curve" smooth="yes"/>
      <point x="343" y="59" type="line"/>
      <point x="316" y="59" type="line"/>
      <point x="249" y="65" type="line"/>
      <point x="201" y="96" type="line"/>
      <point x="168" y="215" type="line" smooth="yes"/>
      <point x="159" y="246"/>
      <point x="125" y="265"/>
      <point x="94" y="257" type="curve" smooth="yes"/>
      <point x="63" y="248"/>
      <point x="44" y="214"/>
      <point x="52" y="183" type="curve" smooth="yes"/>
      <point x="91" y="41" type="line" smooth="yes"/>
      <point x="95" y="29"/>
      <point x="106" y="14"/>
      <point x="117" y="7" type="curve" smooth="yes"/>
      <point x="197" y="-45" type="line" smooth="yes"/>
      <point x="204" y="-49"/>
      <point x="216" y="-53"/>
      <point x="225" y="-54" type="curve" smooth="yes"/>
      <point x="309" y="-61" type="line" smooth="yes"/>
      <point x="310" y="-61"/>
      <point x="313" y="-61"/>
    </contour>
  </outline>
</glyph>
<glyph name="percent" format="1">
  <advance width="849"/>
  <unicode hex="0025"/>
  <outline>
    <contour>
      <point x="128" y="539" type="curve" smooth="yes"/>
      <point x="336" y="539" type="line" smooth="yes"/>
      <point x="375" y="539"/>
      <point x="402" y="571"/>
      <point x="395" y="609" type="curve" smooth="yes"/>
      <point x="378" y="709" type="line" smooth="yes"/>
      <point x="376" y="722"/>
      <point x="370" y="733"/>
      <point x="361" y="742" type="curve"/>
      <point x="389" y="751"/>
      <point x="408" y="782"/>
      <point x="402" y="812" type="curve" smooth="yes"/>
      <point x="395" y="843"/>
      <point x="362" y="864"/>
      <point x="330" y="858" type="curve" smooth="yes"/>
      <point x="162" y="821" type="line" smooth="yes"/>
      <point x="150" y="819"/>
      <point x="135" y="809"/>
      <point x="127" y="800" type="curve" smooth="yes"/>
      <point x="63" y="719" type="line" smooth="yes"/>
      <point x="53" y="707"/>
      <point x="47" y="684"/>
      <point x="51" y="669" type="curve" smooth="yes"/>
      <point x="69" y="586" type="line" smooth="yes"/>
      <point x="75" y="560"/>
      <point x="101" y="539"/>
    </contour>
    <contour>
      <point x="180" y="-37" type="curve" smooth="yes"/>
      <point x="239" y="43" type="line"/>
      <point x="298" y="120" type="line"/>
      <point x="370" y="198" type="line" smooth="yes"/>
      <point x="372" y="201"/>
      <point x="375" y="205"/>
      <point x="377" y="208" type="curve" smooth="yes"/>
      <point x="424" y="284" type="line"/>
      <point x="483" y="366" type="line"/>
      <point x="533" y="443" type="line"/>
      <point x="590" y="520" type="line"/>
      <point x="659" y="602" type="line"/>
      <point x="723" y="682" type="line" smooth="yes"/>
      <point x="724" y="683"/>
      <point x="726" y="686"/>
      <point x="727" y="688" type="curve" smooth="yes"/>
      <point x="775" y="768" type="line" smooth="yes"/>
      <point x="792" y="796"/>
      <point x="783" y="834"/>
      <point x="755" y="850" type="curve" smooth="yes"/>
      <point x="727" y="867"/>
      <point x="689" y="858"/>
      <point x="673" y="830" type="curve" smooth="yes"/>
      <point x="627" y="753" type="line"/>
      <point x="565" y="676" type="line"/>
      <point x="498" y="598" type="line"/>
      <point x="437" y="515" type="line"/>
      <point x="383" y="432" type="line"/>
      <point x="326" y="354" type="line"/>
      <point x="278" y="275" type="line"/>
      <point x="208" y="200" type="line" smooth="yes"/>
      <point x="207" y="199"/>
      <point x="205" y="197"/>
      <point x="204" y="195" type="curve" smooth="yes"/>
      <point x="143" y="115" type="line"/>
      <point x="84" y="35" type="line" smooth="yes"/>
      <point x="64" y="9"/>
      <point x="70" y="-30"/>
      <point x="96" y="-49" type="curve" smooth="yes"/>
      <point x="122" y="-69"/>
      <point x="161" y="-63"/>
    </contour>
    <contour>
      <point x="260" y="689" type="curve" smooth="yes"/>
      <point x="265" y="659" type="line"/>
      <point x="176" y="659" type="line"/>
      <point x="174" y="667" type="line"/>
      <point x="208" y="709" type="line"/>
      <point x="263" y="721" type="line"/>
      <point x="259" y="711"/>
      <point x="258" y="700"/>
    </contour>
    <contour>
      <point x="554" y="-58" type="curve" smooth="yes"/>
      <point x="665" y="-22" type="line" smooth="yes"/>
      <point x="675" y="-19"/>
      <point x="687" y="-10"/>
      <point x="693" y="-3" type="curve" smooth="yes"/>
      <point x="759" y="78" type="line" smooth="yes"/>
      <point x="763" y="83"/>
      <point x="768" y="92"/>
      <point x="770" y="98" type="curve" smooth="yes"/>
      <point x="795" y="181" type="line" smooth="yes"/>
      <point x="808" y="222"/>
      <point x="781" y="259"/>
      <point x="738" y="259" type="curve" smooth="yes"/>
      <point x="510" y="259" type="line" smooth="yes"/>
      <point x="470" y="259"/>
      <point x="443" y="226"/>
      <point x="451" y="187" type="curve" smooth="yes"/>
      <point x="471" y="87" type="line" smooth="yes"/>
      <point x="475" y="70"/>
      <point x="486" y="56"/>
      <point x="500" y="48" type="curve"/>
      <point x="480" y="33"/>
      <point x="470" y="5"/>
      <point x="478" y="-20" type="curve" smooth="yes"/>
      <point x="488" y="-50"/>
      <point x="523" y="-68"/>
    </contour>
    <contour>
      <point x="589" y="111" type="curve" smooth="yes"/>
      <point x="583" y="139" type="line"/>
      <point x="654" y="139" type="line"/>
      <point x="611" y="87" type="line"/>
      <point x="586" y="79" type="line"/>
      <point x="590" y="89"/>
      <point x="591" y="100"/>
    </contour>
  </outline>
</glyph>
<glyph name="ampersand" format="1">
  <advance width="839"/>
  <unicode hex="0026"/>
  <outline>
    <contour>
      <point x="726" y="-54" type="curve" smooth="yes"/>
      <point x="756" y="-42"/>
      <point x="771" y="-5"/>
      <point x="758" y="24" type="curve" smooth="yes"/>
      <point x="724" y="104" type="line" smooth="yes"/>
      <point x="722" y="110"/>
      <point x="716" y="118"/>
      <point x="712" y="123" type="curve" smooth="yes"/>
      <point x="645" y="192" type="line"/>
      <point x="630" y="240" type="line"/>
      <point x="689" y="287" type="line"/>
      <point x="768" y="354" type="line" smooth="yes"/>
      <point x="793" y="375"/>
      <point x="796" y="414"/>
      <point x="775" y="439" type="curve" smooth="yes"/>
      <point x="754" y="464"/>
      <point x="715" y="467"/>
      <point x="690" y="446" type="curve" smooth="yes"/>
      <point x="613" y="380" type="line"/>
      <point x="549" y="329" type="line"/>
      <point x="514" y="355" type="line"/>
      <point x="516" y="356"/>
      <point x="518" y="357"/>
      <point x="519" y="358" type="curve" smooth="yes"/>
      <point x="603" y="410" type="line" smooth="yes"/>
      <point x="614" y="417"/>
      <point x="626" y="433"/>
      <point x="629" y="445" type="curve" smooth="yes"/>
      <point x="666" y="585" type="line"/>
      <point x="701" y="682" type="line" smooth="yes"/>
      <point x="704" y="692"/>
      <point x="705" y="709"/>
      <point x="701" y="719" type="curve" smooth="yes"/>
      <point x="671" y="818" type="line" smooth="yes"/>
      <point x="664" y="842"/>
      <point x="639" y="861"/>
      <point x="614" y="861" type="curve" smooth="yes"/>
      <point x="501" y="861" type="line" smooth="yes"/>
      <point x="499" y="861"/>
      <point x="497" y="861"/>
      <point x="495" y="861" type="curve" smooth="yes"/>
      <point x="418" y="853" type="line" smooth="yes"/>
      <point x="407" y="852"/>
      <point x="392" y="845"/>
      <point x="384" y="838" type="curve" smooth="yes"/>
      <point x="325" y="786" type="line" smooth="yes"/>
      <point x="318" y="779"/>
      <point x="310" y="766"/>
      <point x="307" y="757" type="curve" smooth="yes"/>
      <point x="268" y="615" type="line" smooth="yes"/>
      <point x="267" y="610"/>
      <point x="266" y="601"/>
      <point x="266" y="595" type="curve" smooth="yes"/>
      <point x="271" y="508" type="line"/>
      <point x="253" y="452" type="line"/>
      <point x="248" y="451"/>
      <point x="241" y="449"/>
      <point x="238" y="447" type="curve" smooth="yes"/>
      <point x="134" y="395" type="line" smooth="yes"/>
      <point x="122" y="389"/>
      <point x="109" y="374"/>
      <point x="105" y="361" type="curve" smooth="yes"/>
      <point x="54" y="219" type="line" smooth="yes"/>
      <point x="50" y="209"/>
      <point x="49" y="193"/>
      <point x="52" y="183" type="curve" smooth="yes"/>
      <point x="76" y="99" type="line" smooth="yes"/>
      <point x="78" y="92"/>
      <point x="84" y="82"/>
      <point x="89" y="76" type="curve" smooth="yes"/>
      <point x="159" y="-3" type="line" smooth="yes"/>
      <point x="165" y="-11"/>
      <point x="178" y="-18"/>
      <point x="187" y="-21" type="curve" smooth="yes"/>
      <point x="305" y="-56" type="line" smooth="yes"/>
      <point x="327" y="-63"/>
      <point x="357" y="-53"/>
      <point x="371" y="-34" type="curve" smooth="yes"/>
      <point x="411" y="22" type="line"/>
      <point x="513" y="82" type="line" smooth="yes"/>
      <point x="519" y="86"/>
      <point x="526" y="93"/>
      <point x="530" y="98" type="curve" smooth="yes"/>
      <point x="548" y="121" type="line"/>
      <point x="549" y="119" type="line" smooth="yes"/>
      <point x="618" y="47" type="line"/>
      <point x="648" y="-22" type="line" smooth="yes"/>
      <point x="660" y="-52"/>
      <point x="697" y="-67"/>
    </contour>
    <contour>
      <point x="389" y="481" type="line" smooth="yes"/>
      <point x="391" y="487"/>
      <point x="392" y="497"/>
      <point x="392" y="504" type="curve" smooth="yes"/>
      <point x="386" y="593" type="line"/>
      <point x="418" y="708" type="line"/>
      <point x="449" y="736" type="line"/>
      <point x="504" y="741" type="line"/>
      <point x="569" y="741" type="line"/>
      <point x="581" y="703" type="line"/>
      <point x="552" y="623" type="line" smooth="yes"/>
      <point x="552" y="622"/>
      <point x="551" y="620"/>
      <point x="551" y="619" type="curve" smooth="yes"/>
      <point x="519" y="499" type="line"/>
      <point x="465" y="466" type="line"/>
      <point x="440" y="461" type="line"/>
      <point x="382" y="461" type="line"/>
    </contour>
    <contour>
      <point x="322" y="103" type="curve" smooth="yes"/>
      <point x="298" y="71" type="line"/>
      <point x="237" y="89" type="line"/>
      <point x="188" y="145" type="line"/>
      <point x="173" y="197" type="line"/>
      <point x="209" y="298" type="line"/>
      <point x="282" y="335" type="line"/>
      <point x="336" y="341" type="line"/>
      <point x="392" y="341" type="line"/>
      <point x="401" y="306" type="line" smooth="yes"/>
      <point x="404" y="295"/>
      <point x="414" y="280"/>
      <point x="423" y="273" type="curve" smooth="yes"/>
      <point x="480" y="231" type="line"/>
      <point x="442" y="180" type="line"/>
      <point x="340" y="119" type="line" smooth="yes"/>
      <point x="334" y="116"/>
      <point x="326" y="108"/>
    </contour>
  </outline>
</glyph>
<glyph name="asterisk" format="1">
  <advance width="590"/>
  <unicode hex="002A"/>
  <outline>
    <contour>
      <point x="506" y="265" type="curve" smooth="yes"/>
      <point x="526" y="290"/>
      <point x="522" y="329"/>
      <point x="496" y="349" type="curve" smooth="yes"/>
      <point x="427" y="404" type="line"/>
      <point x="416" y="442" type="line"/>
      <point x="480" y="442" type="line" smooth="yes"/>
      <point x="512" y="442"/>
      <point x="540" y="470"/>
      <point x="540" y="502" type="curve" smooth="yes"/>
      <point x="540" y="534"/>
      <point x="512" y="562"/>
      <point x="480" y="562" type="curve" smooth="yes"/>
      <point x="333" y="562" type="line"/>
      <point x="328" y="595" type="line"/>
      <point x="362" y="680" type="line" smooth="yes"/>
      <point x="374" y="710"/>
      <point x="358" y="746"/>
      <point x="328" y="758" type="curve" smooth="yes"/>
      <point x="298" y="770"/>
      <point x="262" y="754"/>
      <point x="250" y="724" type="curve" smooth="yes"/>
      <point x="211" y="624" type="line" smooth="yes"/>
      <point x="208" y="616"/>
      <point x="206" y="603"/>
      <point x="208" y="594" type="curve" smooth="yes"/>
      <point x="212" y="562" type="line"/>
      <point x="110" y="562" type="line" smooth="yes"/>
      <point x="78" y="562"/>
      <point x="50" y="534"/>
      <point x="50" y="502" type="curve" smooth="yes"/>
      <point x="50" y="470"/>
      <point x="78" y="442"/>
      <point x="110" y="442" type="curve" smooth="yes"/>
      <point x="200" y="442" type="line"/>
      <point x="199" y="441" type="line"/>
      <point x="103" y="344" type="line" smooth="yes"/>
      <point x="80" y="322"/>
      <point x="80" y="282"/>
      <point x="103" y="260" type="curve" smooth="yes"/>
      <point x="125" y="237"/>
      <point x="165" y="237"/>
      <point x="187" y="260" type="curve" smooth="yes"/>
      <point x="287" y="360" type="line" smooth="yes"/>
      <point x="289" y="362"/>
      <point x="292" y="365"/>
      <point x="294" y="367" type="curve" smooth="yes"/>
      <point x="307" y="386" type="line"/>
      <point x="316" y="353" type="line" smooth="yes"/>
      <point x="319" y="342"/>
      <point x="328" y="328"/>
      <point x="337" y="321" type="curve" smooth="yes"/>
      <point x="422" y="255" type="line" smooth="yes"/>
      <point x="447" y="235"/>
      <point x="486" y="239"/>
    </contour>
  </outline>
</glyph>
<glyph name="plus" format="1">
  <advance width="577"/>
  <unicode hex="002B"/>
  <outline>
    <contour>
      <point x="329" y="98" type="curve" smooth="yes"/>
      <point x="372" y="198" type="line" smooth="yes"/>
      <point x="375" y="205"/>
      <point x="377" y="216"/>
      <point x="377" y="223" type="curve" smooth="yes"/>
      <point x="377" y="262" type="line"/>
      <point x="467" y="262" type="line" smooth="yes"/>
      <point x="499" y="262"/>
      <point x="527" y="290"/>
      <point x="527" y="322" type="curve" smooth="yes"/>
      <point x="527" y="354"/>
      <point x="499" y="382"/>
      <point x="467" y="382" type="curve" smooth="yes"/>
      <point x="370" y="382" type="line"/>
      <point x="366" y="428" type="line" smooth="yes"/>
      <point x="365" y="432"/>
      <point x="364" y="438"/>
      <point x="363" y="442" type="curve" smooth="yes"/>
      <point x="328" y="542" type="line" smooth="yes"/>
      <point x="317" y="572"/>
      <point x="282" y="589"/>
      <point x="251" y="579" type="curve" smooth="yes"/>
      <point x="221" y="568"/>
      <point x="204" y="533"/>
      <point x="214" y="502" type="curve" smooth="yes"/>
      <point x="247" y="409" type="line"/>
      <point x="250" y="382" type="line"/>
      <point x="110" y="382" type="line" smooth="yes"/>
      <point x="78" y="382"/>
      <point x="50" y="354"/>
      <point x="50" y="322" type="curve" smooth="yes"/>
      <point x="50" y="290"/>
      <point x="78" y="262"/>
      <point x="110" y="262" type="curve" smooth="yes"/>
      <point x="257" y="262" type="line"/>
      <point x="257" y="234" type="line"/>
      <point x="219" y="146" type="line" smooth="yes"/>
      <point x="206" y="116"/>
      <point x="221" y="80"/>
      <point x="250" y="67" type="curve" smooth="yes"/>
      <point x="280" y="54"/>
      <point x="316" y="69"/>
    </contour>
  </outline>
</glyph>
<glyph name="comma" format="1">
  <advance width="334"/>
  <unicode hex="002C"/>
  <outline>
    <contour>
      <point x="110" y="-118" type="curve" smooth="yes"/>
      <point x="199" y="-118" type="line" smooth="yes"/>
      <point x="225" y="-118"/>
      <point x="251" y="-98"/>
      <point x="257" y="-73" type="curve" smooth="yes"/>
      <point x="282" y="27" type="line" smooth="yes"/>
      <point x="283" y="32"/>
      <point x="284" y="39"/>
      <point x="284" y="44" type="curve" smooth="yes"/>
      <point x="281" y="144" type="line" smooth="yes"/>
      <point x="280" y="176"/>
      <point x="252" y="203"/>
      <point x="219" y="202" type="curve" smooth="yes"/>
      <point x="187" y="201"/>
      <point x="160" y="173"/>
      <point x="161" y="140" type="curve" smooth="yes"/>
      <point x="164" y="48" type="line"/>
      <point x="152" y="2" type="line"/>
      <point x="110" y="2" type="line" smooth="yes"/>
      <point x="78" y="2"/>
      <point x="50" y="-26"/>
      <point x="50" y="-58" type="curve" smooth="yes"/>
      <point x="50" y="-90"/>
      <point x="78" y="-118"/>
    </contour>
  </outline>
</glyph>
<glyph name="hyphen" format="1">
  <advance width="411"/>
  <unicode hex="002D"/>
  <outline>
    <contour>
      <point x="110" y="236" type="curve" smooth="yes"/>
      <point x="301" y="236" type="line" smooth="yes"/>
      <point x="333" y="236"/>
      <point x="361" y="264"/>
      <point x="361" y="296" type="curve" smooth="yes"/>
      <point x="361" y="328"/>
      <point x="333" y="356"/>
      <point x="301" y="356" type="curve" smooth="yes"/>
      <point x="110" y="356" type="line" smooth="yes"/>
      <point x="78" y="356"/>
      <point x="50" y="328"/>
      <point x="50" y="296" type="curve" smooth="yes"/>
      <point x="50" y="264"/>
      <point x="78" y="236"/>
    </contour>
  </outline>
</glyph>
<glyph name="period" format="1">
  <advance width="242"/>
  <unicode hex="002E"/>
  <outline>
    <contour>
      <point x="55" y="35" type="curve" smooth="yes"/>
      <point x="42" y="5"/>
      <point x="56" y="-31"/>
      <point x="85" y="-45" type="curve" smooth="yes"/>
      <point x="107" y="-55" type="line" smooth="yes"/>
      <point x="137" y="-68"/>
      <point x="173" y="-54"/>
      <point x="187" y="-25" type="curve" smooth="yes"/>
      <point x="200" y="5"/>
      <point x="186" y="41"/>
      <point x="157" y="55" type="curve" smooth="yes"/>
      <point x="135" y="65" type="line" smooth="yes"/>
      <point x="105" y="78"/>
      <point x="69" y="64"/>
    </contour>
  </outline>
</glyph>
<glyph name="slash" format="1">
  <advance width="860"/>
  <unicode hex="002F"/>
  <outline>
    <contour>
      <point x="148" y="-44" type="curve" smooth="yes"/>
      <point x="244" y="36" type="line" smooth="yes"/>
      <point x="252" y="42"/>
      <point x="260" y="54"/>
      <point x="263" y="63" type="curve" smooth="yes"/>
      <point x="285" y="127" type="line"/>
      <point x="364" y="197" type="line" smooth="yes"/>
      <point x="366" y="198"/>
      <point x="368" y="201"/>
      <point x="370" y="202" type="curve" smooth="yes"/>
      <point x="441" y="282" type="line" smooth="yes"/>
      <point x="447" y="289"/>
      <point x="453" y="300"/>
      <point x="455" y="309" type="curve" smooth="yes"/>
      <point x="470" y="378" type="line"/>
      <point x="515" y="445" type="line"/>
      <point x="581" y="520" type="line"/>
      <point x="660" y="600" type="line" smooth="yes"/>
      <point x="664" y="604"/>
      <point x="669" y="612"/>
      <point x="671" y="617" type="curve" smooth="yes"/>
      <point x="703" y="684" type="line"/>
      <point x="789" y="756" type="line" smooth="yes"/>
      <point x="814" y="776"/>
      <point x="818" y="815"/>
      <point x="797" y="840" type="curve" smooth="yes"/>
      <point x="777" y="865"/>
      <point x="738" y="869"/>
      <point x="713" y="848" type="curve" smooth="yes"/>
      <point x="616" y="768" type="line" smooth="yes"/>
      <point x="610" y="763"/>
      <point x="603" y="754"/>
      <point x="600" y="747" type="curve" smooth="yes"/>
      <point x="567" y="677" type="line"/>
      <point x="495" y="604" type="line"/>
      <point x="422" y="522" type="line" smooth="yes"/>
      <point x="421" y="520"/>
      <point x="418" y="517"/>
      <point x="417" y="515" type="curve" smooth="yes"/>
      <point x="364" y="435" type="line" smooth="yes"/>
      <point x="361" y="430"/>
      <point x="357" y="421"/>
      <point x="355" y="415" type="curve" smooth="yes"/>
      <point x="341" y="350" type="line"/>
      <point x="283" y="285" type="line"/>
      <point x="194" y="207" type="line" smooth="yes"/>
      <point x="187" y="201"/>
      <point x="179" y="190"/>
      <point x="176" y="181" type="curve" smooth="yes"/>
      <point x="155" y="117" type="line"/>
      <point x="72" y="48" type="line" smooth="yes"/>
      <point x="47" y="27"/>
      <point x="43" y="-12"/>
      <point x="64" y="-36" type="curve" smooth="yes"/>
      <point x="85" y="-61"/>
      <point x="124" y="-65"/>
    </contour>
  </outline>
</glyph>
<glyph name="zero" format="1">
  <advance width="859"/>
  <unicode hex="0030"/>
  <outline>
    <contour>
      <point x="315" y="-58" type="curve" smooth="yes"/>
      <point x="528" y="-58" type="line" smooth="yes"/>
      <point x="532" y="-58"/>
      <point x="537" y="-57"/>
      <point x="541" y="-57" type="curve" smooth="yes"/>
      <point x="709" y="-21" type="line" smooth="yes"/>
      <point x="733" y="-16"/>
      <point x="754" y="8"/>
      <point x="756" y="32" type="curve" smooth="yes"/>
      <point x="764" y="104" type="line"/>
      <point x="795" y="179" type="line" smooth="yes"/>
      <point x="799" y="187"/>
      <point x="801" y="201"/>
      <point x="799" y="210" type="curve" smooth="yes"/>
      <point x="787" y="304" type="line"/>
      <point x="792" y="399" type="line" smooth="yes"/>
      <point x="792" y="402"/>
      <point x="792" y="408"/>
      <point x="791" y="411" type="curve" smooth="yes"/>
      <point x="778" y="498" type="line"/>
      <point x="802" y="586" type="line" smooth="yes"/>
      <point x="803" y="589"/>
      <point x="803" y="593"/>
      <point x="804" y="596" type="curve" smooth="yes"/>
      <point x="809" y="648" type="line" smooth="yes"/>
      <point x="810" y="660"/>
      <point x="806" y="678"/>
      <point x="799" y="688" type="curve" smooth="yes"/>
      <point x="734" y="784" type="line" smooth="yes"/>
      <point x="727" y="794"/>
      <point x="712" y="804"/>
      <point x="701" y="808" type="curve" smooth="yes"/>
      <point x="522" y="860" type="line" smooth="yes"/>
      <point x="517" y="861"/>
      <point x="510" y="862"/>
      <point x="505" y="862" type="curve" smooth="yes"/>
      <point x="349" y="862" type="line" smooth="yes"/>
      <point x="345" y="862"/>
      <point x="339" y="861"/>
      <point x="335" y="860" type="curve" smooth="yes"/>
      <point x="183" y="824" type="line" smooth="yes"/>
      <point x="171" y="821"/>
      <point x="155" y="810"/>
      <point x="148" y="800" type="curve" smooth="yes"/>
      <point x="93" y="719" type="line" smooth="yes"/>
      <point x="88" y="713"/>
      <point x="84" y="701"/>
      <point x="83" y="694" type="curve" smooth="yes"/>
      <point x="71" y="611" type="line"/>
      <point x="56" y="511" type="line" smooth="yes"/>
      <point x="55" y="509"/>
      <point x="55" y="507"/>
      <point x="55" y="505" type="curve" smooth="yes"/>
      <point x="50" y="405" type="line" smooth="yes"/>
      <point x="50" y="397"/>
      <point x="52" y="385"/>
      <point x="55" y="378" type="curve" smooth="yes"/>
      <point x="94" y="290" type="line"/>
      <point x="91" y="209" type="line"/>
      <point x="74" y="132" type="line" smooth="yes"/>
      <point x="70" y="116"/>
      <point x="76" y="93"/>
      <point x="86" y="81" type="curve" smooth="yes"/>
      <point x="128" y="29" type="line"/>
      <point x="132" y="21"/>
      <point x="137" y="14"/>
      <point x="144" y="9" type="curve"/>
      <point x="151" y="0" type="line" smooth="yes"/>
      <point x="158" y="-8"/>
      <point x="172" y="-17"/>
      <point x="183" y="-20" type="curve" smooth="yes"/>
      <point x="278" y="-45" type="line"/>
      <point x="288" y="-53"/>
      <point x="301" y="-58"/>
    </contour>
    <contour>
      <point x="214" y="300" type="line" smooth="yes"/>
      <point x="214" y="308"/>
      <point x="212" y="319"/>
      <point x="209" y="326" type="curve" smooth="yes"/>
      <point x="171" y="413" type="line"/>
      <point x="175" y="496" type="line"/>
      <point x="189" y="593" type="line"/>
      <point x="200" y="663" type="line"/>
      <point x="234" y="713" type="line"/>
      <point x="356" y="742" type="line"/>
      <point x="496" y="742" type="line"/>
      <point x="580" y="718" type="line"/>
      <point x="563" y="700" type="line" smooth="yes"/>
      <point x="562" y="698"/>
      <point x="559" y="695"/>
      <point x="558" y="693" type="curve" smooth="yes"/>
      <point x="505" y="617" type="line"/>
      <point x="455" y="541" type="line"/>
      <point x="404" y="472" type="line"/>
      <point x="333" y="399" type="line" smooth="yes"/>
      <point x="328" y="395"/>
      <point x="322" y="385"/>
      <point x="319" y="379" type="curve" smooth="yes"/>
      <point x="291" y="306" type="line"/>
      <point x="261" y="246" type="line"/>
      <point x="211" y="210" type="line"/>
    </contour>
    <contour>
      <point x="344" y="158" type="line" smooth="yes"/>
      <point x="350" y="163"/>
      <point x="358" y="173"/>
      <point x="362" y="180" type="curve" smooth="yes"/>
      <point x="400" y="255" type="line" smooth="yes"/>
      <point x="401" y="256"/>
      <point x="402" y="259"/>
      <point x="402" y="260" type="curve" smooth="yes"/>
      <point x="427" y="324" type="line"/>
      <point x="492" y="391" type="line" smooth="yes"/>
      <point x="494" y="392"/>
      <point x="497" y="395"/>
      <point x="498" y="397" type="curve" smooth="yes"/>
      <point x="555" y="475" type="line"/>
      <point x="604" y="549" type="line"/>
      <point x="654" y="621" type="line"/>
      <point x="680" y="649" type="line"/>
      <point x="688" y="638" type="line"/>
      <point x="685" y="613" type="line"/>
      <point x="659" y="518" type="line" smooth="yes"/>
      <point x="657" y="511"/>
      <point x="657" y="500"/>
      <point x="658" y="493" type="curve" smooth="yes"/>
      <point x="672" y="399" type="line"/>
      <point x="667" y="305" type="line" smooth="yes"/>
      <point x="667" y="302"/>
      <point x="667" y="297"/>
      <point x="668" y="294" type="curve" smooth="yes"/>
      <point x="678" y="210" type="line"/>
      <point x="650" y="142" type="line" smooth="yes"/>
      <point x="648" y="137"/>
      <point x="646" y="130"/>
      <point x="645" y="125" type="curve" smooth="yes"/>
      <point x="641" y="88" type="line"/>
      <point x="522" y="62" type="line"/>
      <point x="345" y="62" type="line"/>
      <point x="254" y="85" type="line"/>
      <point x="257" y="94" type="line"/>
    </contour>
  </outline>
</glyph>
<glyph name="one" format="1">
  <advance width="843"/>
  <unicode hex="0031"/>
  <outline>
    <contour>
      <point x="158" y="-59" type="curve" smooth="yes"/>
      <point x="733" y="-59" type="line" smooth="yes"/>
      <point x="765" y="-59"/>
      <point x="793" y="-31"/>
      <point x="793" y="1" type="curve" smooth="yes"/>
      <point x="793" y="33"/>
      <point x="765" y="61"/>
      <point x="733" y="61" type="curve" smooth="yes"/>
      <point x="451" y="61" type="line"/>
      <point x="498" y="179" type="line" smooth="yes"/>
      <point x="502" y="190"/>
      <point x="503" y="208"/>
      <point x="499" y="219" type="curve" smooth="yes"/>
      <point x="473" y="301" type="line"/>
      <point x="499" y="383" type="line" smooth="yes"/>
      <point x="500" y="386"/>
      <point x="501" y="390"/>
      <point x="501" y="393" type="curve" smooth="yes"/>
      <point x="514" y="493" type="line" smooth="yes"/>
      <point x="516" y="501"/>
      <point x="514" y="514"/>
      <point x="511" y="522" type="curve" smooth="yes"/>
      <point x="480" y="607" type="line"/>
      <point x="494" y="691" type="line" smooth="yes"/>
      <point x="504" y="751"/>
      <point x="443" y="786"/>
      <point x="396" y="747" type="curve" smooth="yes"/>
      <point x="347" y="705" type="line" smooth="yes"/>
      <point x="345" y="703"/>
      <point x="342" y="701"/>
      <point x="341" y="699" type="curve" smooth="yes"/>
      <point x="312" y="666" type="line"/>
      <point x="241" y="661" type="line"/>
      <point x="110" y="661" type="line" smooth="yes"/>
      <point x="78" y="661"/>
      <point x="50" y="633"/>
      <point x="50" y="601" type="curve" smooth="yes"/>
      <point x="50" y="569"/>
      <point x="78" y="541"/>
      <point x="110" y="541" type="curve" smooth="yes"/>
      <point x="249" y="541" type="line"/>
      <point x="346" y="548" type="line" smooth="yes"/>
      <point x="353" y="549"/>
      <point x="362" y="552"/>
      <point x="371" y="556" type="curve"/>
      <point x="394" y="494" type="line"/>
      <point x="383" y="414" type="line"/>
      <point x="353" y="319" type="line" smooth="yes"/>
      <point x="350" y="309"/>
      <point x="350" y="293"/>
      <point x="353" y="283" type="curve" smooth="yes"/>
      <point x="378" y="203" type="line"/>
      <point x="338" y="101" type="line"/>
      <point x="277" y="66" type="line"/>
      <point x="238" y="61" type="line"/>
      <point x="158" y="61" type="line" smooth="yes"/>
      <point x="126" y="61"/>
      <point x="98" y="33"/>
      <point x="98" y="1" type="curve" smooth="yes"/>
      <point x="98" y="-31"/>
      <point x="126" y="-59"/>
    </contour>
  </outline>
</glyph>
<glyph name="two" format="1">
  <advance width="851"/>
  <unicode hex="0032"/>
  <outline>
    <contour>
      <point x="110" y="-60" type="curve" smooth="yes"/>
      <point x="741" y="-60" type="line" smooth="yes"/>
      <point x="773" y="-60"/>
      <point x="801" y="-32"/>
      <point x="801" y="0" type="curve" smooth="yes"/>
      <point x="801" y="32"/>
      <point x="773" y="60"/>
      <point x="741" y="60" type="curve" smooth="yes"/>
      <point x="174" y="60" type="line"/>
      <point x="177" y="96" type="line"/>
      <point x="187" y="186" type="line"/>
      <point x="235" y="312" type="line"/>
      <point x="253" y="336" type="line"/>
      <point x="303" y="340" type="line"/>
      <point x="534" y="340" type="line" smooth="yes"/>
      <point x="536" y="340"/>
      <point x="538" y="340"/>
      <point x="540" y="340" type="curve" smooth="yes"/>
      <point x="608" y="347" type="line" smooth="yes"/>
      <point x="617" y="348"/>
      <point x="630" y="353"/>
      <point x="637" y="358" type="curve" smooth="yes"/>
      <point x="709" y="410" type="line" smooth="yes"/>
      <point x="717" y="415"/>
      <point x="726" y="427"/>
      <point x="729" y="436" type="curve" smooth="yes"/>
      <point x="788" y="577" type="line" smooth="yes"/>
      <point x="791" y="585"/>
      <point x="793" y="598"/>
      <point x="792" y="606" type="curve" smooth="yes"/>
      <point x="787" y="658" type="line" smooth="yes"/>
      <point x="786" y="663"/>
      <point x="784" y="672"/>
      <point x="782" y="677" type="curve" smooth="yes"/>
      <point x="737" y="773" type="line" smooth="yes"/>
      <point x="731" y="786"/>
      <point x="716" y="800"/>
      <point x="702" y="805" type="curve" smooth="yes"/>
      <point x="553" y="857" type="line" smooth="yes"/>
      <point x="547" y="859"/>
      <point x="539" y="860"/>
      <point x="533" y="860" type="curve" smooth="yes"/>
      <point x="334" y="860" type="line"/>
      <point x="241" y="853" type="line" smooth="yes"/>
      <point x="231" y="852"/>
      <point x="217" y="847"/>
      <point x="209" y="841" type="curve" smooth="yes"/>
      <point x="142" y="789" type="line" smooth="yes"/>
      <point x="133" y="783"/>
      <point x="123" y="768"/>
      <point x="120" y="758" type="curve" smooth="yes"/>
      <point x="81" y="616" type="line" smooth="yes"/>
      <point x="73" y="585"/>
      <point x="92" y="551"/>
      <point x="123" y="542" type="curve" smooth="yes"/>
      <point x="154" y="534"/>
      <point x="188" y="553"/>
      <point x="197" y="584" type="curve" smooth="yes"/>
      <point x="231" y="706" type="line"/>
      <point x="268" y="735" type="line"/>
      <point x="334" y="740" type="line"/>
      <point x="523" y="740" type="line"/>
      <point x="639" y="700" type="line"/>
      <point x="668" y="636" type="line"/>
      <point x="671" y="609" type="line"/>
      <point x="625" y="497" type="line"/>
      <point x="580" y="465" type="line"/>
      <point x="531" y="460" type="line"/>
      <point x="300" y="460" type="line" smooth="yes"/>
      <point x="299" y="460"/>
      <point x="296" y="460"/>
      <point x="295" y="460" type="curve" smooth="yes"/>
      <point x="215" y="453" type="line" smooth="yes"/>
      <point x="201" y="452"/>
      <point x="181" y="441"/>
      <point x="173" y="429" type="curve" smooth="yes"/>
      <point x="134" y="378" type="line" smooth="yes"/>
      <point x="131" y="374"/>
      <point x="128" y="367"/>
      <point x="126" y="363" type="curve" smooth="yes"/>
      <point x="72" y="221" type="line" smooth="yes"/>
      <point x="70" y="217"/>
      <point x="69" y="211"/>
      <point x="68" y="207" type="curve" smooth="yes"/>
      <point x="57" y="104" type="line"/>
      <point x="50" y="4" type="line" smooth="yes"/>
      <point x="48" y="-31"/>
      <point x="75" y="-60"/>
    </contour>
  </outline>
</glyph>
<glyph name="three" format="1">
  <advance width="849"/>
  <unicode hex="0033"/>
  <outline>
    <contour>
      <point x="335" y="-59" type="curve" smooth="yes"/>
      <point x="417" y="-59" type="line"/>
      <point x="504" y="-59" type="line"/>
      <point x="586" y="-52" type="line" smooth="yes"/>
      <point x="593" y="-51"/>
      <point x="604" y="-48"/>
      <point x="610" y="-45" type="curve" smooth="yes"/>
      <point x="705" y="7" type="line" smooth="yes"/>
      <point x="719" y="14"/>
      <point x="733" y="33"/>
      <point x="736" y="49" type="curve" smooth="yes"/>
      <point x="761" y="191" type="line" smooth="yes"/>
      <point x="761" y="193"/>
      <point x="762" y="196"/>
      <point x="762" y="198" type="curve" smooth="yes"/>
      <point x="766" y="282" type="line" smooth="yes"/>
      <point x="766" y="288"/>
      <point x="765" y="297"/>
      <point x="763" y="303" type="curve" smooth="yes"/>
      <point x="737" y="384" type="line" smooth="yes"/>
      <point x="734" y="393"/>
      <point x="727" y="402"/>
      <point x="719" y="409" type="curve"/>
      <point x="783" y="477" type="line" smooth="yes"/>
      <point x="793" y="487"/>
      <point x="800" y="507"/>
      <point x="799" y="521" type="curve" smooth="yes"/>
      <point x="794" y="605" type="line" smooth="yes"/>
      <point x="794" y="609"/>
      <point x="792" y="615"/>
      <point x="791" y="619" type="curve" smooth="yes"/>
      <point x="747" y="760" type="line" smooth="yes"/>
      <point x="743" y="773"/>
      <point x="731" y="788"/>
      <point x="720" y="794" type="curve" smooth="yes"/>
      <point x="633" y="846" type="line" smooth="yes"/>
      <point x="626" y="850"/>
      <point x="615" y="853"/>
      <point x="607" y="854" type="curve" smooth="yes"/>
      <point x="515" y="861" type="line" smooth="yes"/>
      <point x="513" y="861"/>
      <point x="511" y="861"/>
      <point x="510" y="861" type="curve" smooth="yes"/>
      <point x="296" y="861" type="line" smooth="yes"/>
      <point x="291" y="861"/>
      <point x="284" y="860"/>
      <point x="280" y="859" type="curve" smooth="yes"/>
      <point x="153" y="823" type="line" smooth="yes"/>
      <point x="139" y="819"/>
      <point x="122" y="805"/>
      <point x="115" y="791" type="curve" smooth="yes"/>
      <point x="76" y="711" type="line" smooth="yes"/>
      <point x="71" y="701"/>
      <point x="69" y="684"/>
      <point x="71" y="674" type="curve" smooth="yes"/>
      <point x="86" y="590" type="line" smooth="yes"/>
      <point x="92" y="558"/>
      <point x="124" y="536"/>
      <point x="156" y="542" type="curve" smooth="yes"/>
      <point x="188" y="548"/>
      <point x="210" y="580"/>
      <point x="204" y="612" type="curve" smooth="yes"/>
      <point x="193" y="676" type="line"/>
      <point x="212" y="715" type="line"/>
      <point x="304" y="741" type="line"/>
      <point x="508" y="741" type="line"/>
      <point x="584" y="735" type="line"/>
      <point x="640" y="703" type="line"/>
      <point x="675" y="590" type="line"/>
      <point x="678" y="540" type="line"/>
      <point x="632" y="491" type="line"/>
      <point x="516" y="461" type="line"/>
      <point x="424" y="461" type="line"/>
      <point x="424" y="341" type="line"/>
      <point x="491" y="341" type="line"/>
      <point x="634" y="313" type="line"/>
      <point x="646" y="276" type="line"/>
      <point x="642" y="208" type="line"/>
      <point x="623" y="98" type="line"/>
      <point x="564" y="67" type="line"/>
      <point x="494" y="61" type="line"/>
      <point x="417" y="61" type="line"/>
      <point x="342" y="61" type="line"/>
      <point x="212" y="91" type="line"/>
      <point x="173" y="140" type="line"/>
      <point x="170" y="204" type="line" smooth="yes"/>
      <point x="168" y="236"/>
      <point x="140" y="262"/>
      <point x="107" y="261" type="curve" smooth="yes"/>
      <point x="75" y="259"/>
      <point x="49" y="231"/>
      <point x="50" y="198" type="curve" smooth="yes"/>
      <point x="54" y="115" type="line" smooth="yes"/>
      <point x="55" y="104"/>
      <point x="60" y="89"/>
      <point x="67" y="80" type="curve" smooth="yes"/>
      <point x="132" y="0" type="line" smooth="yes"/>
      <point x="139" y="-9"/>
      <point x="154" y="-19"/>
      <point x="165" y="-21" type="curve" smooth="yes"/>
      <point x="322" y="-57" type="line" smooth="yes"/>
      <point x="325" y="-58"/>
      <point x="331" y="-59"/>
    </contour>
  </outline>
</glyph>
<glyph name="four" format="1">
  <advance width="767"/>
  <unicode hex="0034"/>
  <outline>
    <contour>
      <point x="654" y="-57" type="curve" smooth="yes"/>
      <point x="685" y="-49"/>
      <point x="705" y="-15"/>
      <point x="697" y="16" type="curve" smooth="yes"/>
      <point x="673" y="107" type="line"/>
      <point x="676" y="181" type="line" smooth="yes"/>
      <point x="676" y="185"/>
      <point x="676" y="191"/>
      <point x="675" y="195" type="curve" smooth="yes"/>
      <point x="672" y="209" type="line"/>
      <point x="674" y="288" type="line"/>
      <point x="712" y="377" type="line" smooth="yes"/>
      <point x="715" y="384"/>
      <point x="717" y="395"/>
      <point x="717" y="403" type="curve" smooth="yes"/>
      <point x="713" y="503" type="line" smooth="yes"/>
      <point x="713" y="506"/>
      <point x="712" y="512"/>
      <point x="711" y="515" type="curve" smooth="yes"/>
      <point x="685" y="615" type="line" smooth="yes"/>
      <point x="677" y="646"/>
      <point x="643" y="666"/>
      <point x="612" y="658" type="curve" smooth="yes"/>
      <point x="581" y="650"/>
      <point x="561" y="616"/>
      <point x="569" y="585" type="curve" smooth="yes"/>
      <point x="593" y="491" type="line"/>
      <point x="597" y="412" type="line"/>
      <point x="563" y="333" type="line"/>
      <point x="437" y="359" type="line" smooth="yes"/>
      <point x="434" y="359"/>
      <point x="428" y="360"/>
      <point x="425" y="360" type="curve" smooth="yes"/>
      <point x="176" y="360" type="line"/>
      <point x="172" y="380" type="line"/>
      <point x="191" y="438" type="line"/>
      <point x="250" y="513" type="line" smooth="yes"/>
      <point x="254" y="518"/>
      <point x="259" y="528"/>
      <point x="261" y="534" type="curve" smooth="yes"/>
      <point x="280" y="602" type="line"/>
      <point x="351" y="675" type="line" smooth="yes"/>
      <point x="354" y="677"/>
      <point x="357" y="682"/>
      <point x="359" y="686" type="curve" smooth="yes"/>
      <point x="409" y="769" type="line" smooth="yes"/>
      <point x="426" y="797"/>
      <point x="417" y="835"/>
      <point x="389" y="851" type="curve" smooth="yes"/>
      <point x="361" y="868"/>
      <point x="323" y="859"/>
      <point x="307" y="831" type="curve" smooth="yes"/>
      <point x="260" y="754" type="line"/>
      <point x="183" y="675" type="line" smooth="yes"/>
      <point x="177" y="669"/>
      <point x="170" y="658"/>
      <point x="168" y="649" type="curve" smooth="yes"/>
      <point x="148" y="578" type="line"/>
      <point x="90" y="504" type="line" smooth="yes"/>
      <point x="86" y="499"/>
      <point x="82" y="491"/>
      <point x="80" y="485" type="curve" smooth="yes"/>
      <point x="53" y="402" type="line" smooth="yes"/>
      <point x="50" y="393"/>
      <point x="49" y="379"/>
      <point x="51" y="371" type="curve" smooth="yes"/>
      <point x="69" y="287" type="line" smooth="yes"/>
      <point x="75" y="261"/>
      <point x="101" y="240"/>
      <point x="128" y="240" type="curve" smooth="yes"/>
      <point x="419" y="240" type="line"/>
      <point x="549" y="213" type="line"/>
      <point x="552" y="199" type="line"/>
      <point x="553" y="100" type="line" smooth="yes"/>
      <point x="553" y="100"/>
      <point x="553" y="100"/>
      <point x="553" y="99" type="curve"/>
      <point x="553" y="95"/>
      <point x="554" y="89"/>
      <point x="556" y="82" type="curve"/>
      <point x="581" y="-14" type="line" smooth="yes"/>
      <point x="589" y="-45"/>
      <point x="623" y="-65"/>
    </contour>
  </outline>
</glyph>
<glyph name="five" format="1">
  <advance width="845"/>
  <unicode hex="0035"/>
  <outline>
    <contour>
      <point x="290" y="-59" type="curve" smooth="yes"/>
      <point x="534" y="-59" type="line" smooth="yes"/>
      <point x="536" y="-59"/>
      <point x="539" y="-59"/>
      <point x="541" y="-59" type="curve" smooth="yes"/>
      <point x="600" y="-52" type="line" smooth="yes"/>
      <point x="609" y="-51"/>
      <point x="622" y="-46"/>
      <point x="629" y="-41" type="curve" smooth="yes"/>
      <point x="699" y="11" type="line" smooth="yes"/>
      <point x="706" y="16"/>
      <point x="714" y="25"/>
      <point x="717" y="32" type="curve" smooth="yes"/>
      <point x="789" y="174" type="line" smooth="yes"/>
      <point x="797" y="189"/>
      <point x="797" y="214"/>
      <point x="789" y="229" type="curve" smooth="yes"/>
      <point x="744" y="313" type="line" smooth="yes"/>
      <point x="743" y="315"/>
      <point x="741" y="318"/>
      <point x="740" y="319" type="curve" smooth="yes"/>
      <point x="682" y="400" type="line" smooth="yes"/>
      <point x="675" y="410"/>
      <point x="660" y="420"/>
      <point x="648" y="423" type="curve" smooth="yes"/>
      <point x="507" y="459" type="line" smooth="yes"/>
      <point x="503" y="460"/>
      <point x="496" y="461"/>
      <point x="492" y="461" type="curve" smooth="yes"/>
      <point x="177" y="461" type="line"/>
      <point x="181" y="494" type="line" smooth="yes"/>
      <point x="181" y="497"/>
      <point x="181" y="501"/>
      <point x="181" y="503" type="curve" smooth="yes"/>
      <point x="177" y="600" type="line"/>
      <point x="182" y="660" type="line"/>
      <point x="230" y="714" type="line"/>
      <point x="307" y="741" type="line"/>
      <point x="703" y="741" type="line" smooth="yes"/>
      <point x="735" y="741"/>
      <point x="763" y="769"/>
      <point x="763" y="801" type="curve" smooth="yes"/>
      <point x="763" y="833"/>
      <point x="735" y="861"/>
      <point x="703" y="861" type="curve" smooth="yes"/>
      <point x="297" y="861" type="line" smooth="yes"/>
      <point x="291" y="861"/>
      <point x="282" y="859"/>
      <point x="277" y="858" type="curve" smooth="yes"/>
      <point x="175" y="821" type="line" smooth="yes"/>
      <point x="167" y="819"/>
      <point x="156" y="811"/>
      <point x="150" y="805" type="curve" smooth="yes"/>
      <point x="79" y="724" type="line" smooth="yes"/>
      <point x="72" y="716"/>
      <point x="65" y="700"/>
      <point x="64" y="689" type="curve" smooth="yes"/>
      <point x="57" y="606" type="line" smooth="yes"/>
      <point x="57" y="604"/>
      <point x="57" y="601"/>
      <point x="57" y="599" type="curve" smooth="yes"/>
      <point x="61" y="503" type="line"/>
      <point x="50" y="408" type="line" smooth="yes"/>
      <point x="46" y="371"/>
      <point x="73" y="341"/>
      <point x="110" y="341" type="curve" smooth="yes"/>
      <point x="484" y="341" type="line"/>
      <point x="598" y="312" type="line"/>
      <point x="640" y="253" type="line"/>
      <point x="668" y="200" type="line"/>
      <point x="617" y="99" type="line"/>
      <point x="571" y="66" type="line"/>
      <point x="530" y="61" type="line"/>
      <point x="301" y="61" type="line"/>
      <point x="232" y="87" type="line"/>
      <point x="187" y="145" type="line"/>
      <point x="169" y="216" type="line" smooth="yes"/>
      <point x="161" y="247"/>
      <point x="128" y="267"/>
      <point x="96" y="259" type="curve" smooth="yes"/>
      <point x="65" y="251"/>
      <point x="45" y="218"/>
      <point x="53" y="186" type="curve" smooth="yes"/>
      <point x="74" y="103" type="line" smooth="yes"/>
      <point x="75" y="96"/>
      <point x="80" y="86"/>
      <point x="85" y="80" type="curve" smooth="yes"/>
      <point x="148" y="0" type="line" smooth="yes"/>
      <point x="154" y="-7"/>
      <point x="165" y="-16"/>
      <point x="174" y="-19" type="curve" smooth="yes"/>
      <point x="269" y="-55" type="line" smooth="yes"/>
      <point x="274" y="-57"/>
      <point x="284" y="-59"/>
    </contour>
  </outline>
</glyph>
<glyph name="six" format="1">
  <advance width="837"/>
  <unicode hex="0036"/>
  <outline>
    <contour>
      <point x="328" y="-59" type="curve" smooth="yes"/>
      <point x="546" y="-59" type="line" smooth="yes"/>
      <point x="548" y="-59"/>
      <point x="550" y="-59"/>
      <point x="552" y="-59" type="curve" smooth="yes"/>
      <point x="625" y="-52" type="line" smooth="yes"/>
      <point x="632" y="-51"/>
      <point x="642" y="-48"/>
      <point x="648" y="-45" type="curve" smooth="yes"/>
      <point x="743" y="7" type="line" smooth="yes"/>
      <point x="758" y="15"/>
      <point x="772" y="36"/>
      <point x="774" y="54" type="curve" smooth="yes"/>
      <point x="787" y="195" type="line" smooth="yes"/>
      <point x="787" y="202"/>
      <point x="786" y="212"/>
      <point x="785" y="218" type="curve" smooth="yes"/>
      <point x="762" y="298" type="line"/>
      <point x="743" y="378" type="line" smooth="yes"/>
      <point x="739" y="398"/>
      <point x="719" y="418"/>
      <point x="699" y="423" type="curve" smooth="yes"/>
      <point x="555" y="459" type="line" smooth="yes"/>
      <point x="551" y="460"/>
      <point x="544" y="461"/>
      <point x="540" y="461" type="curve" smooth="yes"/>
      <point x="349" y="461" type="line"/>
      <point x="202" y="491" type="line"/>
      <point x="179" y="524" type="line"/>
      <point x="204" y="575" type="line" smooth="yes"/>
      <point x="215" y="598"/>
      <point x="210" y="626"/>
      <point x="192" y="643" type="curve"/>
      <point x="197" y="666" type="line"/>
      <point x="217" y="713" type="line"/>
      <point x="340" y="741" type="line"/>
      <point x="541" y="741" type="line"/>
      <point x="566" y="736" type="line"/>
      <point x="647" y="701" type="line"/>
      <point x="667" y="591" type="line" smooth="yes"/>
      <point x="673" y="559"/>
      <point x="705" y="536"/>
      <point x="736" y="542" type="curve" smooth="yes"/>
      <point x="768" y="548"/>
      <point x="791" y="580"/>
      <point x="785" y="611" type="curve" smooth="yes"/>
      <point x="760" y="753" type="line" smooth="yes"/>
      <point x="757" y="771"/>
      <point x="741" y="790"/>
      <point x="725" y="798" type="curve" smooth="yes"/>
      <point x="607" y="849" type="line" smooth="yes"/>
      <point x="604" y="850"/>
      <point x="598" y="852"/>
      <point x="595" y="853" type="curve" smooth="yes"/>
      <point x="558" y="860" type="line" smooth="yes"/>
      <point x="555" y="861"/>
      <point x="550" y="861"/>
      <point x="547" y="861" type="curve" smooth="yes"/>
      <point x="333" y="861" type="line" smooth="yes"/>
      <point x="329" y="861"/>
      <point x="323" y="860"/>
      <point x="320" y="860" type="curve" smooth="yes"/>
      <point x="160" y="823" type="line" smooth="yes"/>
      <point x="143" y="820"/>
      <point x="125" y="804"/>
      <point x="118" y="788" type="curve" smooth="yes"/>
      <point x="85" y="707" type="line" smooth="yes"/>
      <point x="83" y="705"/>
      <point x="82" y="700"/>
      <point x="81" y="698" type="curve" smooth="yes"/>
      <point x="62" y="614" type="line" smooth="yes"/>
      <point x="62" y="612"/>
      <point x="62" y="609"/>
      <point x="61" y="608" type="curve" smooth="yes"/>
      <point x="54" y="542" type="line"/>
      <point x="50" y="532"/>
      <point x="49" y="520"/>
      <point x="51" y="509" type="curve"/>
      <point x="50" y="508" type="line" smooth="yes"/>
      <point x="50" y="501"/>
      <point x="50" y="492"/>
      <point x="52" y="486" type="curve" smooth="yes"/>
      <point x="75" y="397" type="line"/>
      <point x="65" y="308" type="line" smooth="yes"/>
      <point x="65" y="302"/>
      <point x="65" y="293"/>
      <point x="67" y="288" type="curve" smooth="yes"/>
      <point x="88" y="195" type="line"/>
      <point x="86" y="119" type="line" smooth="yes"/>
      <point x="86" y="109"/>
      <point x="90" y="94"/>
      <point x="95" y="85" type="curve" smooth="yes"/>
      <point x="147" y="5" type="line" smooth="yes"/>
      <point x="154" y="-6"/>
      <point x="169" y="-17"/>
      <point x="181" y="-21" type="curve" smooth="yes"/>
      <point x="312" y="-57" type="line" smooth="yes"/>
      <point x="316" y="-58"/>
      <point x="324" y="-59"/>
    </contour>
    <contour>
      <point x="208" y="200" type="line" smooth="yes"/>
      <point x="208" y="204"/>
      <point x="207" y="210"/>
      <point x="206" y="214" type="curve" smooth="yes"/>
      <point x="186" y="305" type="line"/>
      <point x="193" y="371" type="line"/>
      <point x="331" y="342" type="line" smooth="yes"/>
      <point x="334" y="342"/>
      <point x="340" y="341"/>
      <point x="343" y="341" type="curve" smooth="yes"/>
      <point x="533" y="341" type="line"/>
      <point x="634" y="316" type="line"/>
      <point x="645" y="271" type="line"/>
      <point x="666" y="195" type="line"/>
      <point x="657" y="97" type="line"/>
      <point x="602" y="67" type="line"/>
      <point x="543" y="61" type="line"/>
      <point x="336" y="61" type="line"/>
      <point x="236" y="89" type="line"/>
      <point x="206" y="134" type="line"/>
    </contour>
  </outline>
</glyph>
<glyph name="seven" format="1">
  <advance width="854"/>
  <unicode hex="0037"/>
  <outline>
    <contour>
      <point x="380" y="-40" type="curve" smooth="yes"/>
      <point x="447" y="46" type="line"/>
      <point x="512" y="133" type="line" smooth="yes"/>
      <point x="515" y="137"/>
      <point x="519" y="144"/>
      <point x="521" y="149" type="curve" smooth="yes"/>
      <point x="549" y="230" type="line"/>
      <point x="586" y="302" type="line"/>
      <point x="677" y="380" type="line" smooth="yes"/>
      <point x="682" y="385"/>
      <point x="689" y="393"/>
      <point x="692" y="400" type="curve" smooth="yes"/>
      <point x="733" y="485" type="line" smooth="yes"/>
      <point x="734" y="487"/>
      <point x="735" y="489"/>
      <point x="735" y="490" type="curve" smooth="yes"/>
      <point x="767" y="576" type="line"/>
      <point x="800" y="658" type="line" smooth="yes"/>
      <point x="808" y="679"/>
      <point x="802" y="708"/>
      <point x="786" y="724" type="curve" smooth="yes"/>
      <point x="703" y="804" type="line" smooth="yes"/>
      <point x="696" y="810"/>
      <point x="684" y="817"/>
      <point x="676" y="819" type="curve" smooth="yes"/>
      <point x="532" y="855" type="line" smooth="yes"/>
      <point x="528" y="856"/>
      <point x="521" y="857"/>
      <point x="517" y="857" type="curve" smooth="yes"/>
      <point x="110" y="857" type="line" smooth="yes"/>
      <point x="78" y="857"/>
      <point x="50" y="829"/>
      <point x="50" y="797" type="curve" smooth="yes"/>
      <point x="50" y="765"/>
      <point x="78" y="737"/>
      <point x="110" y="737" type="curve" smooth="yes"/>
      <point x="510" y="737" type="line"/>
      <point x="631" y="707" type="line"/>
      <point x="674" y="665" type="line"/>
      <point x="655" y="618" type="line"/>
      <point x="624" y="535" type="line"/>
      <point x="589" y="463" type="line"/>
      <point x="499" y="385" type="line" smooth="yes"/>
      <point x="494" y="381"/>
      <point x="488" y="373"/>
      <point x="485" y="367" type="curve" smooth="yes"/>
      <point x="441" y="282" type="line" smooth="yes"/>
      <point x="440" y="280"/>
      <point x="438" y="276"/>
      <point x="437" y="274" type="curve" smooth="yes"/>
      <point x="410" y="197" type="line"/>
      <point x="353" y="120" type="line"/>
      <point x="286" y="34" type="line" smooth="yes"/>
      <point x="266" y="8"/>
      <point x="271" y="-30"/>
      <point x="296" y="-50" type="curve" smooth="yes"/>
      <point x="322" y="-70"/>
      <point x="360" y="-65"/>
    </contour>
  </outline>
</glyph>
<glyph name="eight" format="1">
  <advance width="844"/>
  <unicode hex="0038"/>
  <outline>
    <contour>
      <point x="294" y="-60" type="curve" smooth="yes"/>
      <point x="410" y="-60" type="line"/>
      <point x="502" y="-60" type="line"/>
      <point x="593" y="-53" type="line" smooth="yes"/>
      <point x="602" y="-52"/>
      <point x="615" y="-48"/>
      <point x="622" y="-43" type="curve" smooth="yes"/>
      <point x="698" y="9" type="line" smooth="yes"/>
      <point x="706" y="14"/>
      <point x="715" y="24"/>
      <point x="719" y="32" type="curve" smooth="yes"/>
      <point x="788" y="174" type="line" smooth="yes"/>
      <point x="793" y="184"/>
      <point x="795" y="201"/>
      <point x="793" y="213" type="curve" smooth="yes"/>
      <point x="775" y="296" type="line" smooth="yes"/>
      <point x="773" y="303"/>
      <point x="769" y="313"/>
      <point x="765" y="318" type="curve" smooth="yes"/>
      <point x="708" y="398" type="line"/>
      <point x="722" y="406" type="line" smooth="yes"/>
      <point x="736" y="413"/>
      <point x="749" y="433"/>
      <point x="752" y="448" type="curve" smooth="yes"/>
      <point x="776" y="590" type="line" smooth="yes"/>
      <point x="777" y="596"/>
      <point x="777" y="605"/>
      <point x="776" y="611" type="curve" smooth="yes"/>
      <point x="760" y="695" type="line" smooth="yes"/>
      <point x="759" y="698"/>
      <point x="758" y="702"/>
      <point x="757" y="705" type="curve" smooth="yes"/>
      <point x="726" y="786" type="line" smooth="yes"/>
      <point x="719" y="802"/>
      <point x="700" y="818"/>
      <point x="683" y="822" type="curve" smooth="yes"/>
      <point x="525" y="858" type="line" smooth="yes"/>
      <point x="522" y="859"/>
      <point x="516" y="860"/>
      <point x="512" y="860" type="curve" smooth="yes"/>
      <point x="326" y="860" type="line" smooth="yes"/>
      <point x="325" y="860"/>
      <point x="322" y="860"/>
      <point x="321" y="860" type="curve" smooth="yes"/>
      <point x="241" y="853" type="line" smooth="yes"/>
      <point x="234" y="852"/>
      <point x="223" y="849"/>
      <point x="217" y="845" type="curve" smooth="yes"/>
      <point x="127" y="794" type="line" smooth="yes"/>
      <point x="113" y="786"/>
      <point x="100" y="767"/>
      <point x="98" y="751" type="curve" smooth="yes"/>
      <point x="76" y="613" type="line"/>
      <point x="52" y="534" type="line" smooth="yes"/>
      <point x="47" y="516"/>
      <point x="53" y="490"/>
      <point x="66" y="476" type="curve" smooth="yes"/>
      <point x="138" y="397" type="line"/>
      <point x="127" y="387" type="line" smooth="yes"/>
      <point x="119" y="380"/>
      <point x="110" y="366"/>
      <point x="108" y="356" type="curve" smooth="yes"/>
      <point x="74" y="214" type="line" smooth="yes"/>
      <point x="72" y="209"/>
      <point x="72" y="200"/>
      <point x="72" y="195" type="curve" smooth="yes"/>
      <point x="79" y="112" type="line" smooth="yes"/>
      <point x="80" y="106"/>
      <point x="82" y="97"/>
      <point x="84" y="92" type="curve" smooth="yes"/>
      <point x="121" y="11" type="line" smooth="yes"/>
      <point x="127" y="-2"/>
      <point x="144" y="-17"/>
      <point x="158" y="-21" type="curve" smooth="yes"/>
      <point x="277" y="-57" type="line" smooth="yes"/>
      <point x="281" y="-59"/>
      <point x="289" y="-60"/>
    </contour>
    <contour>
      <point x="192" y="583" type="line" smooth="yes"/>
      <point x="193" y="585"/>
      <point x="194" y="589"/>
      <point x="194" y="591" type="curve" smooth="yes"/>
      <point x="212" y="704" type="line"/>
      <point x="265" y="734" type="line"/>
      <point x="329" y="740" type="line"/>
      <point x="505" y="740" type="line"/>
      <point x="625" y="713" type="line"/>
      <point x="643" y="667" type="line"/>
      <point x="656" y="599" type="line"/>
      <point x="639" y="497" type="line"/>
      <point x="582" y="466" type="line"/>
      <point x="487" y="460" type="line"/>
      <point x="297" y="460" type="line"/>
      <point x="217" y="488" type="line"/>
      <point x="177" y="532" type="line"/>
    </contour>
    <contour>
      <point x="492" y="60" type="line"/>
      <point x="410" y="60" type="line"/>
      <point x="303" y="60" type="line"/>
      <point x="219" y="86" type="line"/>
      <point x="198" y="132" type="line"/>
      <point x="193" y="195" type="line"/>
      <point x="220" y="309" type="line"/>
      <point x="251" y="335" type="line"/>
      <point x="313" y="340" type="line"/>
      <point x="495" y="340" type="line"/>
      <point x="623" y="311" type="line"/>
      <point x="660" y="259" type="line"/>
      <point x="671" y="208" type="line"/>
      <point x="618" y="99" type="line"/>
      <point x="568" y="66" type="line"/>
    </contour>
  </outline>
</glyph>
<glyph name="nine" format="1">
  <advance width="865"/>
  <unicode hex="0039"/>
  <outline>
    <contour>
      <point x="539" y="459" type="line" smooth="yes"/>
      <point x="536" y="459"/>
      <point x="530" y="460"/>
      <point x="526" y="460" type="curve" smooth="yes"/>
      <point x="360" y="460" type="line"/>
      <point x="238" y="490" type="line"/>
      <point x="187" y="546" type="line"/>
      <point x="173" y="598" type="line"/>
      <point x="210" y="701" type="line"/>
      <point x="268" y="735" type="line"/>
      <point x="325" y="740" type="line"/>
      <point x="509" y="740" type="line"/>
      <point x="658" y="710" type="line"/>
      <point x="680" y="677" type="line"/>
      <point x="658" y="623" type="line" smooth="yes"/>
      <point x="653" y="610"/>
      <point x="653" y="590"/>
      <point x="658" y="577" type="curve" smooth="yes"/>
      <point x="693" y="493" type="line"/>
      <point x="681" y="427" type="line"/>
    </contour>
    <contour>
      <point x="355" y="-60" type="line"/>
      <point x="515" y="-60" type="line" smooth="yes"/>
      <point x="519" y="-60"/>
      <point x="526" y="-59"/>
      <point x="531" y="-58" type="curve" smooth="yes"/>
      <point x="664" y="-22" type="line" smooth="yes"/>
      <point x="672" y="-20"/>
      <point x="682" y="-14"/>
      <point x="688" y="-9" type="curve" smooth="yes"/>
      <point x="780" y="72" type="line" smooth="yes"/>
      <point x="789" y="79"/>
      <point x="797" y="95"/>
      <point x="799" y="107" type="curve" smooth="yes"/>
      <point x="812" y="182" type="line"/>
      <point x="815" y="192"/>
      <point x="816" y="203"/>
      <point x="813" y="214" type="curve" smooth="yes"/>
      <point x="812" y="221" type="line"/>
      <point x="800" y="305" type="line"/>
      <point x="797" y="396" type="line"/>
      <point x="814" y="489" type="line" smooth="yes"/>
      <point x="816" y="499"/>
      <point x="814" y="514"/>
      <point x="811" y="523" type="curve" smooth="yes"/>
      <point x="779" y="600" type="line"/>
      <point x="804" y="661" type="line" smooth="yes"/>
      <point x="810" y="677"/>
      <point x="808" y="702"/>
      <point x="798" y="717" type="curve" smooth="yes"/>
      <point x="745" y="797" type="line" smooth="yes"/>
      <point x="737" y="809"/>
      <point x="720" y="820"/>
      <point x="706" y="823" type="curve" smooth="yes"/>
      <point x="527" y="859" type="line" smooth="yes"/>
      <point x="524" y="859"/>
      <point x="518" y="860"/>
      <point x="515" y="860" type="curve" smooth="yes"/>
      <point x="322" y="860" type="line" smooth="yes"/>
      <point x="320" y="860"/>
      <point x="318" y="860"/>
      <point x="316" y="860" type="curve" smooth="yes"/>
      <point x="243" y="853" type="line" smooth="yes"/>
      <point x="236" y="852"/>
      <point x="225" y="848"/>
      <point x="218" y="845" type="curve" smooth="yes"/>
      <point x="131" y="793" type="line" smooth="yes"/>
      <point x="120" y="787"/>
      <point x="109" y="773"/>
      <point x="105" y="762" type="curve" smooth="yes"/>
      <point x="54" y="620" type="line" smooth="yes"/>
      <point x="50" y="610"/>
      <point x="49" y="594"/>
      <point x="52" y="584" type="curve" smooth="yes"/>
      <point x="75" y="501" type="line" smooth="yes"/>
      <point x="77" y="493"/>
      <point x="83" y="482"/>
      <point x="89" y="476" type="curve" smooth="yes"/>
      <point x="162" y="396" type="line" smooth="yes"/>
      <point x="169" y="388"/>
      <point x="182" y="380"/>
      <point x="192" y="378" type="curve" smooth="yes"/>
      <point x="339" y="342" type="line" smooth="yes"/>
      <point x="343" y="341"/>
      <point x="349" y="340"/>
      <point x="353" y="340" type="curve" smooth="yes"/>
      <point x="519" y="340" type="line"/>
      <point x="648" y="311" type="line"/>
      <point x="679" y="260" type="line"/>
      <point x="693" y="200" type="line"/>
      <point x="684" y="148" type="line"/>
      <point x="619" y="90" type="line"/>
      <point x="507" y="60" type="line"/>
      <point x="355" y="60" type="line"/>
      <point x="270" y="65" type="line"/>
      <point x="242" y="91" type="line"/>
      <point x="210" y="215" type="line" smooth="yes"/>
      <point x="202" y="246"/>
      <point x="169" y="266"/>
      <point x="137" y="258" type="curve" smooth="yes"/>
      <point x="106" y="250"/>
      <point x="86" y="217"/>
      <point x="94" y="185" type="curve" smooth="yes"/>
      <point x="130" y="44" type="line" smooth="yes"/>
      <point x="132" y="34"/>
      <point x="141" y="20"/>
      <point x="148" y="14" type="curve" smooth="yes"/>
      <point x="206" y="-38" type="line" smooth="yes"/>
      <point x="214" y="-45"/>
      <point x="230" y="-52"/>
      <point x="242" y="-53" type="curve" smooth="yes"/>
    </contour>
  </outline>
</glyph>
<glyph name="colon" format="1">
  <advance width="265"/>
  <unicode hex="003A"/>
  <outline>
    <contour>
      <point x="190" y="563" type="curve" smooth="yes"/>
      <point x="201" y="593"/>
      <point x="185" y="628"/>
      <point x="154" y="639" type="curve" smooth="yes"/>
      <point x="129" y="648" type="line" smooth="yes"/>
      <point x="99" y="659"/>
      <point x="64" y="643"/>
      <point x="53" y="612" type="curve" smooth="yes"/>
      <point x="42" y="582"/>
      <point x="58" y="547"/>
      <point x="89" y="536" type="curve" smooth="yes"/>
      <point x="114" y="527" type="line" smooth="yes"/>
      <point x="144" y="516"/>
      <point x="179" y="532"/>
    </contour>
    <contour>
      <point x="70" y="-8" type="curve" smooth="yes"/>
      <point x="75" y="-40"/>
      <point x="106" y="-63"/>
      <point x="138" y="-58" type="curve" smooth="yes"/>
      <point x="164" y="-54" type="line" smooth="yes"/>
      <point x="196" y="-49"/>
      <point x="219" y="-18"/>
      <point x="214" y="14" type="curve" smooth="yes"/>
      <point x="209" y="46"/>
      <point x="178" y="69"/>
      <point x="146" y="64" type="curve" smooth="yes"/>
      <point x="120" y="60" type="line" smooth="yes"/>
      <point x="88" y="55"/>
      <point x="65" y="24"/>
    </contour>
  </outline>
</glyph>
<glyph name="semicolon" format="1">
  <advance width="316"/>
  <unicode hex="003B"/>
  <outline>
    <contour>
      <point x="264" y="568" type="curve" smooth="yes"/>
      <point x="272" y="599"/>
      <point x="252" y="633"/>
      <point x="221" y="641" type="curve" smooth="yes"/>
      <point x="186" y="650" type="line" smooth="yes"/>
      <point x="155" y="658"/>
      <point x="121" y="638"/>
      <point x="113" y="607" type="curve" smooth="yes"/>
      <point x="105" y="576"/>
      <point x="125" y="542"/>
      <point x="156" y="534" type="curve" smooth="yes"/>
      <point x="191" y="525" type="line" smooth="yes"/>
      <point x="222" y="517"/>
      <point x="256" y="537"/>
    </contour>
    <contour>
      <point x="110" y="-68" type="curve" smooth="yes"/>
      <point x="175" y="-68" type="line" smooth="yes"/>
      <point x="211" y="-68"/>
      <point x="238" y="-38"/>
      <point x="235" y="-2" type="curve" smooth="yes"/>
      <point x="225" y="92" type="line"/>
      <point x="236" y="185" type="line" smooth="yes"/>
      <point x="239" y="218"/>
      <point x="215" y="248"/>
      <point x="183" y="252" type="curve" smooth="yes"/>
      <point x="150" y="255"/>
      <point x="120" y="231"/>
      <point x="116" y="199" type="curve" smooth="yes"/>
      <point x="105" y="99" type="line" smooth="yes"/>
      <point x="105" y="95"/>
      <point x="105" y="89"/>
      <point x="105" y="86" type="curve" smooth="yes"/>
      <point x="109" y="52" type="line"/>
      <point x="78" y="52"/>
      <point x="50" y="24"/>
      <point x="50" y="-8" type="curve" smooth="yes"/>
      <point x="50" y="-40"/>
      <point x="78" y="-68"/>
    </contour>
  </outline>
</glyph>
<glyph name="less" format="1">
  <advance width="637"/>
  <unicode hex="003C"/>
  <outline>
    <contour>
      <point x="547" y="65" type="curve" smooth="yes"/>
      <point x="567" y="91"/>
      <point x="563" y="129"/>
      <point x="538" y="150" type="curve" smooth="yes"/>
      <point x="476" y="200" type="line" smooth="yes"/>
      <point x="473" y="202"/>
      <point x="469" y="205"/>
      <point x="466" y="206" type="curve" smooth="yes"/>
      <point x="371" y="256" type="line" smooth="yes"/>
      <point x="369" y="257"/>
      <point x="365" y="259"/>
      <point x="363" y="260" type="curve" smooth="yes"/>
      <point x="239" y="302" type="line"/>
      <point x="348" y="348" type="line"/>
      <point x="462" y="398" type="line" smooth="yes"/>
      <point x="464" y="399"/>
      <point x="466" y="400"/>
      <point x="467" y="401" type="curve" smooth="yes"/>
      <point x="557" y="451" type="line" smooth="yes"/>
      <point x="585" y="466"/>
      <point x="596" y="504"/>
      <point x="580" y="532" type="curve" smooth="yes"/>
      <point x="565" y="560"/>
      <point x="527" y="571"/>
      <point x="499" y="555" type="curve" smooth="yes"/>
      <point x="411" y="507" type="line"/>
      <point x="300" y="458" type="line"/>
      <point x="182" y="408" type="line" smooth="yes"/>
      <point x="180" y="408"/>
      <point x="178" y="407"/>
      <point x="176" y="406" type="curve" smooth="yes"/>
      <point x="84" y="356" type="line" smooth="yes"/>
      <point x="40" y="332"/>
      <point x="39" y="277"/>
      <point x="83" y="251" type="curve" smooth="yes"/>
      <point x="168" y="201" type="line" smooth="yes"/>
      <point x="170" y="200"/>
      <point x="175" y="197"/>
      <point x="178" y="196" type="curve" smooth="yes"/>
      <point x="319" y="148" type="line"/>
      <point x="405" y="103" type="line"/>
      <point x="462" y="56" type="line" smooth="yes"/>
      <point x="488" y="36"/>
      <point x="526" y="40"/>
    </contour>
  </outline>
</glyph>
<glyph name="equal" format="1">
  <advance width="859"/>
  <unicode hex="003D"/>
  <outline>
    <contour>
      <point x="110" y="378" type="curve" smooth="yes"/>
      <point x="735" y="378" type="line" smooth="yes"/>
      <point x="767" y="378"/>
      <point x="795" y="406"/>
      <point x="795" y="438" type="curve" smooth="yes"/>
      <point x="795" y="470"/>
      <point x="767" y="498"/>
      <point x="735" y="498" type="curve" smooth="yes"/>
      <point x="110" y="498" type="line" smooth="yes"/>
      <point x="78" y="498"/>
      <point x="50" y="470"/>
      <point x="50" y="438" type="curve" smooth="yes"/>
      <point x="50" y="406"/>
      <point x="78" y="378"/>
    </contour>
    <contour>
      <point x="126" y="78" type="curve" smooth="yes"/>
      <point x="749" y="78" type="line" smooth="yes"/>
      <point x="781" y="78"/>
      <point x="809" y="106"/>
      <point x="809" y="138" type="curve" smooth="yes"/>
      <point x="809" y="170"/>
      <point x="781" y="198"/>
      <point x="749" y="198" type="curve" smooth="yes"/>
      <point x="126" y="198" type="line" smooth="yes"/>
      <point x="94" y="198"/>
      <point x="66" y="170"/>
      <point x="66" y="138" type="curve" smooth="yes"/>
      <point x="66" y="106"/>
      <point x="94" y="78"/>
    </contour>
  </outline>
</glyph>
<glyph name="greater" format="1">
  <advance width="661"/>
  <unicode hex="003E"/>
  <outline>
    <contour>
      <point x="132" y="64" type="curve" smooth="yes"/>
      <point x="261" y="115" type="line"/>
      <point x="375" y="165" type="line" smooth="yes"/>
      <point x="377" y="166"/>
      <point x="379" y="167"/>
      <point x="381" y="168" type="curve" smooth="yes"/>
      <point x="466" y="217" type="line"/>
      <point x="573" y="265" type="line" smooth="yes"/>
      <point x="625" y="289"/>
      <point x="624" y="353"/>
      <point x="571" y="375" type="curve" smooth="yes"/>
      <point x="456" y="424" type="line"/>
      <point x="353" y="472" type="line"/>
      <point x="281" y="520" type="line" smooth="yes"/>
      <point x="278" y="522"/>
      <point x="273" y="525"/>
      <point x="269" y="526" type="curve" smooth="yes"/>
      <point x="138" y="576" type="line" smooth="yes"/>
      <point x="108" y="588"/>
      <point x="72" y="572"/>
      <point x="61" y="541" type="curve" smooth="yes"/>
      <point x="49" y="511"/>
      <point x="65" y="475"/>
      <point x="96" y="464" type="curve" smooth="yes"/>
      <point x="220" y="416" type="line"/>
      <point x="291" y="370" type="line" smooth="yes"/>
      <point x="293" y="369"/>
      <point x="296" y="367"/>
      <point x="298" y="366" type="curve" smooth="yes"/>
      <point x="401" y="317" type="line"/>
      <point x="324" y="274" type="line"/>
      <point x="213" y="225" type="line"/>
      <point x="88" y="176" type="line" smooth="yes"/>
      <point x="58" y="164"/>
      <point x="42" y="128"/>
      <point x="54" y="98" type="curve" smooth="yes"/>
      <point x="66" y="68"/>
      <point x="102" y="52"/>
    </contour>
  </outline>
</glyph>
<glyph name="question" format="1">
  <advance width="710"/>
  <unicode hex="003F"/>
  <outline>
    <contour>
      <point x="333" y="142" type="curve" smooth="yes"/>
      <point x="364" y="150"/>
      <point x="384" y="183"/>
      <point x="376" y="215" type="curve" smooth="yes"/>
      <point x="355" y="301" type="line"/>
      <point x="363" y="339" type="line"/>
      <point x="385" y="339" type="line"/>
      <point x="513" y="346" type="line" smooth="yes"/>
      <point x="525" y="347"/>
      <point x="542" y="354"/>
      <point x="550" y="362" type="curve" smooth="yes"/>
      <point x="606" y="414" type="line" smooth="yes"/>
      <point x="613" y="421"/>
      <point x="621" y="434"/>
      <point x="623" y="444" type="curve" smooth="yes"/>
      <point x="658" y="586" type="line" smooth="yes"/>
      <point x="660" y="591"/>
      <point x="660" y="599"/>
      <point x="660" y="605" type="curve" smooth="yes"/>
      <point x="653" y="688" type="line" smooth="yes"/>
      <point x="653" y="696"/>
      <point x="649" y="709"/>
      <point x="644" y="716" type="curve" smooth="yes"/>
      <point x="593" y="796" type="line" smooth="yes"/>
      <point x="586" y="806"/>
      <point x="572" y="818"/>
      <point x="560" y="821" type="curve" smooth="yes"/>
      <point x="444" y="857" type="line" smooth="yes"/>
      <point x="439" y="859"/>
      <point x="431" y="860"/>
      <point x="426" y="860" type="curve" smooth="yes"/>
      <point x="325" y="860" type="line" smooth="yes"/>
      <point x="323" y="860"/>
      <point x="321" y="860"/>
      <point x="319" y="860" type="curve" smooth="yes"/>
      <point x="249" y="853" type="line" smooth="yes"/>
      <point x="243" y="852"/>
      <point x="235" y="850"/>
      <point x="230" y="848" type="curve" smooth="yes"/>
      <point x="116" y="796" type="line" smooth="yes"/>
      <point x="101" y="789"/>
      <point x="86" y="770"/>
      <point x="83" y="754" type="curve" smooth="yes"/>
      <point x="51" y="612" type="line" smooth="yes"/>
      <point x="44" y="580"/>
      <point x="65" y="547"/>
      <point x="97" y="540" type="curve" smooth="yes"/>
      <point x="129" y="533"/>
      <point x="162" y="554"/>
      <point x="169" y="586" type="curve" smooth="yes"/>
      <point x="193" y="699" type="line"/>
      <point x="271" y="734" type="line"/>
      <point x="328" y="740" type="line"/>
      <point x="417" y="740" type="line"/>
      <point x="503" y="713" type="line"/>
      <point x="535" y="664" type="line"/>
      <point x="539" y="605" type="line"/>
      <point x="511" y="490" type="line"/>
      <point x="484" y="465" type="line"/>
      <point x="385" y="459" type="line"/>
      <point x="314" y="459" type="line" smooth="yes"/>
      <point x="287" y="459"/>
      <point x="261" y="438"/>
      <point x="255" y="411" type="curve" smooth="yes"/>
      <point x="234" y="312" type="line" smooth="yes"/>
      <point x="233" y="304"/>
      <point x="233" y="292"/>
      <point x="235" y="285" type="curve" smooth="yes"/>
      <point x="260" y="185" type="line" smooth="yes"/>
      <point x="268" y="154"/>
      <point x="301" y="134"/>
    </contour>
    <contour>
      <point x="266" y="-37" type="curve" smooth="yes"/>
      <point x="286" y="-63"/>
      <point x="325" y="-67"/>
      <point x="350" y="-47" type="curve" smooth="yes"/>
      <point x="364" y="-36" type="line" smooth="yes"/>
      <point x="390" y="-16"/>
      <point x="394" y="23"/>
      <point x="374" y="48" type="curve" smooth="yes"/>
      <point x="354" y="74"/>
      <point x="315" y="78"/>
      <point x="290" y="58" type="curve" smooth="yes"/>
      <point x="276" y="47" type="line" smooth="yes"/>
      <point x="250" y="27"/>
      <point x="246" y="-12"/>
    </contour>
  </outline>
</glyph>
<glyph name="at" format="1">
  <advance width="861"/>
  <unicode hex="0040"/>
  <outline>
    <contour>
      <point x="359" y="-102" type="curve" smooth="yes"/>
      <point x="555" y="-102" type="line" smooth="yes"/>
      <point x="587" y="-102"/>
      <point x="615" y="-74"/>
      <point x="615" y="-42" type="curve" smooth="yes"/>
      <point x="615" y="-10"/>
      <point x="587" y="18"/>
      <point x="555" y="18" type="curve" smooth="yes"/>
      <point x="365" y="18" type="line"/>
      <point x="232" y="46" type="line"/>
      <point x="217" y="87" type="line"/>
      <point x="213" y="161" type="line" smooth="yes"/>
      <point x="213" y="163"/>
      <point x="212" y="167"/>
      <point x="212" y="169" type="curve" smooth="yes"/>
      <point x="195" y="262" type="line"/>
      <point x="204" y="354" type="line" smooth="yes"/>
      <point x="204" y="361"/>
      <point x="203" y="373"/>
      <point x="201" y="380" type="curve" smooth="yes"/>
      <point x="172" y="461" type="line"/>
      <point x="200" y="543" type="line" smooth="yes"/>
      <point x="202" y="549"/>
      <point x="203" y="560"/>
      <point x="203" y="567" type="curve" smooth="yes"/>
      <point x="198" y="623" type="line"/>
      <point x="240" y="671" type="line"/>
      <point x="318" y="698" type="line"/>
      <point x="538" y="698" type="line"/>
      <point x="642" y="671" type="line"/>
      <point x="661" y="620" type="line"/>
      <point x="683" y="547" type="line"/>
      <point x="690" y="454" type="line"/>
      <point x="691" y="370" type="line"/>
      <point x="645" y="253" type="line"/>
      <point x="615" y="228" type="line"/>
      <point x="617" y="254" type="line" smooth="yes"/>
      <point x="617" y="259"/>
      <point x="617" y="266"/>
      <point x="616" y="271" type="curve" smooth="yes"/>
      <point x="595" y="366" type="line"/>
      <point x="589" y="457" type="line"/>
      <point x="600" y="551" type="line" smooth="yes"/>
      <point x="603" y="584"/>
      <point x="579" y="614"/>
      <point x="547" y="618" type="curve" smooth="yes"/>
      <point x="540" y="618"/>
      <point x="534" y="618"/>
      <point x="527" y="616" type="curve"/>
      <point x="521" y="618"/>
      <point x="514" y="618"/>
      <point x="508" y="618" type="curve" smooth="yes"/>
      <point x="450" y="611" type="line" smooth="yes"/>
      <point x="444" y="610"/>
      <point x="433" y="606"/>
      <point x="427" y="603" type="curve" smooth="yes"/>
      <point x="340" y="551" type="line" smooth="yes"/>
      <point x="330" y="546"/>
      <point x="319" y="534"/>
      <point x="315" y="524" type="curve" smooth="yes"/>
      <point x="253" y="382" type="line" smooth="yes"/>
      <point x="244" y="362"/>
      <point x="249" y="332"/>
      <point x="265" y="316" type="curve" smooth="yes"/>
      <point x="301" y="279" type="line"/>
      <point x="310" y="203" type="line" smooth="yes"/>
      <point x="312" y="181"/>
      <point x="332" y="158"/>
      <point x="353" y="152" type="curve" smooth="yes"/>
      <point x="533" y="100" type="line" smooth="yes"/>
      <point x="536" y="100"/>
      <point x="538" y="99"/>
      <point x="541" y="99" type="curve"/>
      <point x="546" y="98"/>
      <point x="545" y="98"/>
      <point x="544" y="98" type="curve"/>
      <point x="544" y="98"/>
      <point x="545" y="98"/>
      <point x="545" y="98" type="curve"/>
      <point x="547" y="98" type="line" smooth="yes"/>
      <point x="550" y="98"/>
      <point x="553" y="98"/>
      <point x="555" y="98" type="curve"/>
      <point x="555" y="98" type="line" smooth="yes"/>
      <point x="555" y="98" type="line"/>
      <point x="556" y="98"/>
      <point x="557" y="98"/>
      <point x="557" y="98" type="curve"/>
      <point x="640" y="105" type="line" smooth="yes"/>
      <point x="650" y="106"/>
      <point x="665" y="113"/>
      <point x="673" y="120" type="curve" smooth="yes"/>
      <point x="734" y="172" type="line" smooth="yes"/>
      <point x="740" y="177"/>
      <point x="748" y="187"/>
      <point x="751" y="195" type="curve" smooth="yes"/>
      <point x="807" y="337" type="line" smooth="yes"/>
      <point x="809" y="343"/>
      <point x="811" y="353"/>
      <point x="811" y="360" type="curve" smooth="yes"/>
      <point x="810" y="463" type="line"/>
      <point x="802" y="563" type="line" smooth="yes"/>
      <point x="802" y="566"/>
      <point x="801" y="572"/>
      <point x="800" y="575" type="curve" smooth="yes"/>
      <point x="774" y="663" type="line"/>
      <point x="743" y="743" type="line" smooth="yes"/>
      <point x="737" y="759"/>
      <point x="719" y="776"/>
      <point x="702" y="780" type="curve" smooth="yes"/>
      <point x="560" y="816" type="line" smooth="yes"/>
      <point x="556" y="817"/>
      <point x="549" y="818"/>
      <point x="545" y="818" type="curve" smooth="yes"/>
      <point x="308" y="818" type="line" smooth="yes"/>
      <point x="302" y="818"/>
      <point x="294" y="817"/>
      <point x="288" y="815" type="curve" smooth="yes"/>
      <point x="186" y="779" type="line" smooth="yes"/>
      <point x="177" y="776"/>
      <point x="166" y="769"/>
      <point x="160" y="762" type="curve" smooth="yes"/>
      <point x="91" y="683" type="line" smooth="yes"/>
      <point x="81" y="672"/>
      <point x="75" y="652"/>
      <point x="76" y="638" type="curve" smooth="yes"/>
      <point x="82" y="569" type="line"/>
      <point x="52" y="480" type="line" smooth="yes"/>
      <point x="49" y="469"/>
      <point x="49" y="452"/>
      <point x="52" y="441" type="curve" smooth="yes"/>
      <point x="83" y="353" type="line"/>
      <point x="74" y="265" type="line" smooth="yes"/>
      <point x="74" y="260"/>
      <point x="74" y="253"/>
      <point x="75" y="248" type="curve" smooth="yes"/>
      <point x="93" y="151" type="line"/>
      <point x="98" y="71" type="line" smooth="yes"/>
      <point x="98" y="66"/>
      <point x="99" y="59"/>
      <point x="101" y="54" type="curve" smooth="yes"/>
      <point x="130" y="-26" type="line" smooth="yes"/>
      <point x="137" y="-44"/>
      <point x="157" y="-61"/>
      <point x="175" y="-65" type="curve" smooth="yes"/>
      <point x="347" y="-101" type="line" smooth="yes"/>
      <point x="350" y="-101"/>
      <point x="356" y="-102"/>
    </contour>
    <contour>
      <point x="418" y="313" type="line" smooth="yes"/>
      <point x="416" y="324"/>
      <point x="409" y="340"/>
      <point x="401" y="348" type="curve" smooth="yes"/>
      <point x="379" y="371" type="line"/>
      <point x="417" y="458" type="line"/>
      <point x="472" y="490" type="line"/>
      <point x="469" y="465" type="line" smooth="yes"/>
      <point x="469" y="462"/>
      <point x="469" y="457"/>
      <point x="469" y="454" type="curve" smooth="yes"/>
      <point x="475" y="354" type="line" smooth="yes"/>
      <point x="475" y="352"/>
      <point x="476" y="348"/>
      <point x="476" y="345" type="curve" smooth="yes"/>
      <point x="497" y="253" type="line"/>
      <point x="496" y="236" type="line"/>
      <point x="424" y="257" type="line"/>
    </contour>
  </outline>
</glyph>
<glyph name="A" format="1">
  <advance width="864"/>
  <unicode hex="0041"/>
  <outline>
    <contour>
      <point x="780" y="-58" type="curve" smooth="yes"/>
      <point x="809" y="-45"/>
      <point x="822" y="-8"/>
      <point x="808" y="22" type="curve" smooth="yes"/>
      <point x="797" y="45" type="line"/>
      <point x="794" y="117" type="line"/>
      <point x="797" y="234" type="line"/>
      <point x="810" y="368" type="line" smooth="yes"/>
      <point x="810" y="370"/>
      <point x="810" y="374"/>
      <point x="810" y="376" type="curve" smooth="yes"/>
      <point x="805" y="502" type="line" smooth="yes"/>
      <point x="805" y="505"/>
      <point x="804" y="509"/>
      <point x="804" y="512" type="curve" smooth="yes"/>
      <point x="783" y="609" type="line"/>
      <point x="764" y="692" type="line" smooth="yes"/>
      <point x="764" y="693"/>
      <point x="763" y="695"/>
      <point x="763" y="697" type="curve" smooth="yes"/>
      <point x="738" y="778" type="line" smooth="yes"/>
      <point x="732" y="795"/>
      <point x="713" y="813"/>
      <point x="696" y="818" type="curve" smooth="yes"/>
      <point x="555" y="854" type="line" smooth="yes"/>
      <point x="551" y="855"/>
      <point x="544" y="856"/>
      <point x="540" y="856" type="curve" smooth="yes"/>
      <point x="316" y="856" type="line" smooth="yes"/>
      <point x="312" y="856"/>
      <point x="304" y="855"/>
      <point x="300" y="854" type="curve" smooth="yes"/>
      <point x="171" y="818" type="line" smooth="yes"/>
      <point x="160" y="815"/>
      <point x="145" y="805"/>
      <point x="138" y="795" type="curve" smooth="yes"/>
      <point x="83" y="716" type="line" smooth="yes"/>
      <point x="78" y="709"/>
      <point x="73" y="696"/>
      <point x="72" y="688" type="curve" smooth="yes"/>
      <point x="63" y="608" type="line"/>
      <point x="50" y="507" type="line" smooth="yes"/>
      <point x="50" y="503"/>
      <point x="50" y="496"/>
      <point x="50" y="492" type="curve" smooth="yes"/>
      <point x="63" y="393" type="line"/>
      <point x="73" y="289" type="line"/>
      <point x="76" y="267" type="line"/>
      <point x="66" y="251"/>
      <point x="62" y="230"/>
      <point x="67" y="213" type="curve" smooth="yes"/>
      <point x="87" y="152" type="line"/>
      <point x="86" y="98" type="line" smooth="yes"/>
      <point x="86" y="92"/>
      <point x="87" y="82"/>
      <point x="90" y="76" type="curve" smooth="yes"/>
      <point x="98" y="53" type="line" smooth="yes"/>
      <point x="122" y="-15"/>
      <point x="218" y="4"/>
      <point x="214" y="76" type="curve" smooth="yes"/>
      <point x="211" y="153" type="line" smooth="yes"/>
      <point x="211" y="157"/>
      <point x="209" y="164"/>
      <point x="208" y="169" type="curve" smooth="yes"/>
      <point x="207" y="170" type="line"/>
      <point x="208" y="196" type="line" smooth="yes"/>
      <point x="208" y="199"/>
      <point x="208" y="204"/>
      <point x="207" y="207" type="curve" smooth="yes"/>
      <point x="205" y="223" type="line"/>
      <point x="244" y="258" type="line"/>
      <point x="323" y="286" type="line"/>
      <point x="681" y="286" type="line"/>
      <point x="677" y="246" type="line"/>
      <point x="674" y="120" type="line"/>
      <point x="678" y="27" type="line" smooth="yes"/>
      <point x="678" y="21"/>
      <point x="681" y="10"/>
      <point x="684" y="4" type="curve" smooth="yes"/>
      <point x="700" y="-30" type="line" smooth="yes"/>
      <point x="713" y="-59"/>
      <point x="750" y="-72"/>
    </contour>
    <contour>
      <point x="183" y="404" type="line"/>
      <point x="170" y="499" type="line"/>
      <point x="183" y="592" type="line"/>
      <point x="190" y="660" type="line"/>
      <point x="224" y="708" type="line"/>
      <point x="324" y="736" type="line"/>
      <point x="532" y="736" type="line"/>
      <point x="633" y="710" type="line"/>
      <point x="648" y="664" type="line"/>
      <point x="665" y="583" type="line"/>
      <point x="685" y="492" type="line"/>
      <point x="689" y="406" type="line"/>
      <point x="313" y="406" type="line" smooth="yes"/>
      <point x="307" y="406"/>
      <point x="298" y="404"/>
      <point x="293" y="403" type="curve" smooth="yes"/>
      <point x="193" y="367" type="line" smooth="yes"/>
      <point x="191" y="366"/>
      <point x="189" y="365"/>
      <point x="186" y="364" type="curve"/>
    </contour>
  </outline>
</glyph>
<glyph name="B" format="1">
  <advance width="846"/>
  <unicode hex="0042"/>
  <outline>
    <contour>
      <point x="333" y="-56" type="curve" smooth="yes"/>
      <point x="532" y="-56" type="line"/>
      <point x="621" y="-49" type="line" smooth="yes"/>
      <point x="628" y="-48"/>
      <point x="638" y="-45"/>
      <point x="644" y="-42" type="curve" smooth="yes"/>
      <point x="743" y="9" type="line" smooth="yes"/>
      <point x="762" y="19"/>
      <point x="776" y="44"/>
      <point x="775" y="66" type="curve" smooth="yes"/>
      <point x="767" y="200" type="line"/>
      <point x="782" y="276" type="line" smooth="yes"/>
      <point x="785" y="293"/>
      <point x="778" y="316"/>
      <point x="767" y="328" type="curve" smooth="yes"/>
      <point x="701" y="398" type="line"/>
      <point x="724" y="427" type="line" smooth="yes"/>
      <point x="728" y="431"/>
      <point x="732" y="440"/>
      <point x="734" y="446" type="curve" smooth="yes"/>
      <point x="778" y="588" type="line" smooth="yes"/>
      <point x="779" y="590"/>
      <point x="780" y="594"/>
      <point x="780" y="596" type="curve" smooth="yes"/>
      <point x="795" y="679" type="line" smooth="yes"/>
      <point x="798" y="696"/>
      <point x="790" y="720"/>
      <point x="777" y="733" type="curve" smooth="yes"/>
      <point x="692" y="812" type="line" smooth="yes"/>
      <point x="687" y="817"/>
      <point x="676" y="824"/>
      <point x="669" y="826" type="curve" smooth="yes"/>
      <point x="554" y="861" type="line" smooth="yes"/>
      <point x="549" y="863"/>
      <point x="541" y="864"/>
      <point x="536" y="864" type="curve" smooth="yes"/>
      <point x="346" y="864" type="line" smooth="yes"/>
      <point x="342" y="864"/>
      <point x="335" y="863"/>
      <point x="331" y="862" type="curve" smooth="yes"/>
      <point x="195" y="827" type="line" smooth="yes"/>
      <point x="185" y="824"/>
      <point x="171" y="815"/>
      <point x="165" y="807" type="curve" smooth="yes"/>
      <point x="98" y="729" type="line" smooth="yes"/>
      <point x="95" y="724"/>
      <point x="90" y="717"/>
      <point x="88" y="711" type="curve" smooth="yes"/>
      <point x="57" y="629" type="line" smooth="yes"/>
      <point x="55" y="623"/>
      <point x="53" y="613"/>
      <point x="53" y="606" type="curve" smooth="yes"/>
      <point x="56" y="505" type="line" smooth="yes"/>
      <point x="56" y="501"/>
      <point x="57" y="496"/>
      <point x="58" y="493" type="curve" smooth="yes"/>
      <point x="68" y="447" type="line"/>
      <point x="57" y="436"/>
      <point x="50" y="421"/>
      <point x="50" y="404" type="curve" smooth="yes"/>
      <point x="50" y="381"/>
      <point x="63" y="361"/>
      <point x="83" y="351" type="curve"/>
      <point x="85" y="312" type="line"/>
      <point x="54" y="221" type="line" smooth="yes"/>
      <point x="50" y="210"/>
      <point x="51" y="192"/>
      <point x="55" y="182" type="curve" smooth="yes"/>
      <point x="106" y="40" type="line" smooth="yes"/>
      <point x="110" y="27"/>
      <point x="124" y="12"/>
      <point x="136" y="6" type="curve" smooth="yes"/>
      <point x="240" y="-44" type="line" smooth="yes"/>
      <point x="245" y="-46"/>
      <point x="255" y="-49"/>
      <point x="261" y="-50" type="curve" smooth="yes"/>
      <point x="327" y="-56" type="line" smooth="yes"/>
      <point x="329" y="-56"/>
      <point x="331" y="-56"/>
    </contour>
    <contour>
      <point x="510" y="464" type="line" smooth="yes"/>
      <point x="188" y="464" type="line"/>
      <point x="176" y="514" type="line"/>
      <point x="173" y="598" type="line"/>
      <point x="197" y="659" type="line"/>
      <point x="244" y="715" type="line"/>
      <point x="354" y="744" type="line"/>
      <point x="527" y="744" type="line"/>
      <point x="620" y="715" type="line"/>
      <point x="671" y="667" type="line"/>
      <point x="663" y="620" type="line"/>
      <point x="623" y="492" type="line"/>
      <point x="605" y="470" type="line"/>
      <point x="511" y="464" type="line"/>
    </contour>
    <contour>
      <point x="532" y="64" type="line"/>
      <point x="336" y="64" type="line"/>
      <point x="282" y="69" type="line"/>
      <point x="210" y="104" type="line"/>
      <point x="175" y="203" type="line"/>
      <point x="202" y="284" type="line" smooth="yes"/>
      <point x="204" y="290"/>
      <point x="205" y="300"/>
      <point x="205" y="306" type="curve" smooth="yes"/>
      <point x="203" y="344" type="line"/>
      <point x="502" y="344" type="line"/>
      <point x="616" y="314" type="line"/>
      <point x="658" y="269" type="line"/>
      <point x="648" y="215" type="line" smooth="yes"/>
      <point x="647" y="211"/>
      <point x="647" y="205"/>
      <point x="647" y="201" type="curve" smooth="yes"/>
      <point x="653" y="98" type="line"/>
      <point x="599" y="70" type="line"/>
    </contour>
  </outline>
</glyph>
<glyph name="C" format="1">
  <advance width="843"/>
  <unicode hex="0043"/>
  <outline>
    <contour>
      <point x="350" y="-62" type="curve" smooth="yes"/>
      <point x="523" y="-62" type="line"/>
      <point x="623" y="-55" type="line" smooth="yes"/>
      <point x="630" y="-54"/>
      <point x="640" y="-51"/>
      <point x="647" y="-48" type="curve" smooth="yes"/>
      <point x="743" y="3" type="line" smooth="yes"/>
      <point x="760" y="12"/>
      <point x="774" y="35"/>
      <point x="775" y="53" type="curve" smooth="yes"/>
      <point x="782" y="195" type="line" smooth="yes"/>
      <point x="784" y="227"/>
      <point x="757" y="256"/>
      <point x="725" y="258" type="curve" smooth="yes"/>
      <point x="693" y="260"/>
      <point x="664" y="233"/>
      <point x="662" y="201" type="curve" smooth="yes"/>
      <point x="657" y="93" type="line"/>
      <point x="601" y="64" type="line"/>
      <point x="523" y="58" type="line"/>
      <point x="352" y="58" type="line"/>
      <point x="281" y="63" type="line"/>
      <point x="231" y="94" type="line"/>
      <point x="192" y="213" type="line"/>
      <point x="172" y="292" type="line"/>
      <point x="210" y="374" type="line" smooth="yes"/>
      <point x="213" y="382"/>
      <point x="215" y="394"/>
      <point x="215" y="402" type="curve" smooth="yes"/>
      <point x="210" y="503" type="line" smooth="yes"/>
      <point x="210" y="506"/>
      <point x="209" y="509"/>
      <point x="209" y="512" type="curve" smooth="yes"/>
      <point x="190" y="611" type="line"/>
      <point x="183" y="663" type="line"/>
      <point x="230" y="710" type="line"/>
      <point x="319" y="738" type="line"/>
      <point x="517" y="738" type="line"/>
      <point x="633" y="709" type="line"/>
      <point x="669" y="665" type="line"/>
      <point x="659" y="608" type="line" smooth="yes"/>
      <point x="653" y="576"/>
      <point x="676" y="544"/>
      <point x="708" y="539" type="curve" smooth="yes"/>
      <point x="740" y="533"/>
      <point x="772" y="556"/>
      <point x="777" y="588" type="curve" smooth="yes"/>
      <point x="792" y="671" type="line" smooth="yes"/>
      <point x="794" y="686"/>
      <point x="789" y="708"/>
      <point x="779" y="719" type="curve" smooth="yes"/>
      <point x="714" y="800" type="line" smooth="yes"/>
      <point x="707" y="808"/>
      <point x="692" y="817"/>
      <point x="682" y="820" type="curve" smooth="yes"/>
      <point x="539" y="856" type="line" smooth="yes"/>
      <point x="535" y="857"/>
      <point x="528" y="858"/>
      <point x="524" y="858" type="curve" smooth="yes"/>
      <point x="310" y="858" type="line" smooth="yes"/>
      <point x="305" y="858"/>
      <point x="297" y="857"/>
      <point x="292" y="855" type="curve" smooth="yes"/>
      <point x="180" y="820" type="line" smooth="yes"/>
      <point x="172" y="818"/>
      <point x="161" y="811"/>
      <point x="155" y="805" type="curve" smooth="yes"/>
      <point x="77" y="726" type="line" smooth="yes"/>
      <point x="65" y="714"/>
      <point x="57" y="692"/>
      <point x="60" y="675" type="curve" smooth="yes"/>
      <point x="72" y="593" type="line"/>
      <point x="90" y="493" type="line"/>
      <point x="94" y="411" type="line"/>
      <point x="54" y="322" type="line" smooth="yes"/>
      <point x="50" y="312"/>
      <point x="48" y="294"/>
      <point x="51" y="283" type="curve" smooth="yes"/>
      <point x="76" y="182" type="line" smooth="yes"/>
      <point x="76" y="180"/>
      <point x="77" y="178"/>
      <point x="77" y="177" type="curve" smooth="yes"/>
      <point x="124" y="35" type="line" smooth="yes"/>
      <point x="128" y="24"/>
      <point x="139" y="10"/>
      <point x="150" y="3" type="curve" smooth="yes"/>
      <point x="230" y="-47" type="line" smooth="yes"/>
      <point x="237" y="-51"/>
      <point x="250" y="-55"/>
      <point x="258" y="-56" type="curve" smooth="yes"/>
      <point x="346" y="-62" type="line" smooth="yes"/>
      <point x="347" y="-62"/>
      <point x="349" y="-62"/>
    </contour>
  </outline>
</glyph>
<glyph name="D" format="1">
  <advance width="845"/>
  <unicode hex="0044"/>
  <outline>
    <contour>
      <point x="111" y="-61" type="curve" smooth="yes"/>
      <point x="538" y="-61" type="line" smooth="yes"/>
      <point x="540" y="-61"/>
      <point x="544" y="-61"/>
      <point x="546" y="-60" type="curve" smooth="yes"/>
      <point x="597" y="-53" type="line" smooth="yes"/>
      <point x="601" y="-53"/>
      <point x="608" y="-51"/>
      <point x="612" y="-49" type="curve" smooth="yes"/>
      <point x="732" y="2" type="line" smooth="yes"/>
      <point x="749" y="9"/>
      <point x="765" y="29"/>
      <point x="768" y="47" type="curve" smooth="yes"/>
      <point x="794" y="188" type="line" smooth="yes"/>
      <point x="795" y="192"/>
      <point x="795" y="199"/>
      <point x="795" y="203" type="curve" smooth="yes"/>
      <point x="789" y="303" type="line"/>
      <point x="788" y="400" type="line" smooth="yes"/>
      <point x="788" y="403"/>
      <point x="787" y="408"/>
      <point x="787" y="411" type="curve" smooth="yes"/>
      <point x="767" y="511" type="line" smooth="yes"/>
      <point x="763" y="528"/>
      <point x="752" y="543"/>
      <point x="737" y="551" type="curve"/>
      <point x="748" y="560"/>
      <point x="757" y="573"/>
      <point x="760" y="588" type="curve" smooth="yes"/>
      <point x="776" y="671" type="line" smooth="yes"/>
      <point x="778" y="685"/>
      <point x="774" y="704"/>
      <point x="767" y="716" type="curve" smooth="yes"/>
      <point x="713" y="796" type="line" smooth="yes"/>
      <point x="706" y="807"/>
      <point x="690" y="818"/>
      <point x="678" y="821" type="curve" smooth="yes"/>
      <point x="537" y="857" type="line" smooth="yes"/>
      <point x="533" y="858"/>
      <point x="526" y="859"/>
      <point x="522" y="859" type="curve" smooth="yes"/>
      <point x="129" y="859" type="line" smooth="yes"/>
      <point x="96" y="859"/>
      <point x="69" y="832"/>
      <point x="69" y="798" type="curve" smooth="yes"/>
      <point x="70" y="705" type="line"/>
      <point x="51" y="611" type="line" smooth="yes"/>
      <point x="50" y="605"/>
      <point x="50" y="595"/>
      <point x="51" y="588" type="curve" smooth="yes"/>
      <point x="68" y="492" type="line"/>
      <point x="80" y="298" type="line"/>
      <point x="76" y="201" type="line" smooth="yes"/>
      <point x="76" y="200"/>
      <point x="76" y="197"/>
      <point x="76" y="195" type="curve" smooth="yes"/>
      <point x="82" y="106" type="line"/>
      <point x="54" y="17" type="line" smooth="yes"/>
      <point x="41" y="-24"/>
      <point x="68" y="-61"/>
    </contour>
    <contour>
      <point x="200" y="81" type="line" smooth="yes"/>
      <point x="202" y="87"/>
      <point x="203" y="97"/>
      <point x="203" y="103" type="curve" smooth="yes"/>
      <point x="196" y="200" type="line"/>
      <point x="200" y="297" type="line" smooth="yes"/>
      <point x="200" y="298"/>
      <point x="200" y="301"/>
      <point x="200" y="303" type="curve" smooth="yes"/>
      <point x="188" y="503" type="line" smooth="yes"/>
      <point x="188" y="505"/>
      <point x="187" y="508"/>
      <point x="187" y="510" type="curve" smooth="yes"/>
      <point x="171" y="598" type="line"/>
      <point x="189" y="687" type="line" smooth="yes"/>
      <point x="190" y="691"/>
      <point x="190" y="696"/>
      <point x="190" y="700" type="curve" smooth="yes"/>
      <point x="190" y="739" type="line"/>
      <point x="514" y="739" type="line"/>
      <point x="626" y="711" type="line"/>
      <point x="653" y="670" type="line"/>
      <point x="642" y="610" type="line" smooth="yes"/>
      <point x="637" y="585"/>
      <point x="650" y="559"/>
      <point x="672" y="547" type="curve"/>
      <point x="654" y="533"/>
      <point x="645" y="510"/>
      <point x="649" y="487" type="curve" smooth="yes"/>
      <point x="668" y="393" type="line"/>
      <point x="669" y="295" type="line"/>
      <point x="675" y="203" type="line"/>
      <point x="656" y="100" type="line"/>
      <point x="572" y="64" type="line"/>
      <point x="534" y="59" type="line"/>
      <point x="193" y="59" type="line"/>
    </contour>
  </outline>
</glyph>
<glyph name="E" format="1">
  <advance width="844"/>
  <unicode hex="0045"/>
  <outline>
    <contour>
      <point x="308" y="-60" type="curve" smooth="yes"/>
      <point x="497" y="-60" type="line" smooth="yes"/>
      <point x="502" y="-60"/>
      <point x="507" y="-59"/>
      <point x="511" y="-58" type="curve"/>
      <point x="693" y="-24" type="line" smooth="yes"/>
      <point x="714" y="-20"/>
      <point x="735" y="1"/>
      <point x="740" y="22" type="curve" smooth="yes"/>
      <point x="757" y="97" type="line"/>
      <point x="785" y="175" type="line" smooth="yes"/>
      <point x="797" y="206"/>
      <point x="780" y="241"/>
      <point x="750" y="252" type="curve" smooth="yes"/>
      <point x="719" y="264"/>
      <point x="684" y="247"/>
      <point x="673" y="217" type="curve" smooth="yes"/>
      <point x="642" y="135" type="line" smooth="yes"/>
      <point x="642" y="133"/>
      <point x="641" y="129"/>
      <point x="640" y="127" type="curve" smooth="yes"/>
      <point x="631" y="87" type="line"/>
      <point x="490" y="60" type="line"/>
      <point x="311" y="60" type="line"/>
      <point x="272" y="65" type="line"/>
      <point x="209" y="96" type="line"/>
      <point x="190" y="199" type="line"/>
      <point x="203" y="294" type="line"/>
      <point x="239" y="326" type="line"/>
      <point x="296" y="337" type="line"/>
      <point x="382" y="339" type="line"/>
      <point x="415" y="341" type="line" smooth="yes"/>
      <point x="492" y="346"/>
      <point x="489" y="460"/>
      <point x="411" y="461" type="curve" smooth="yes"/>
      <point x="309" y="462" type="line"/>
      <point x="240" y="473" type="line"/>
      <point x="188" y="508" type="line"/>
      <point x="171" y="600" type="line"/>
      <point x="178" y="656" type="line"/>
      <point x="228" y="712" type="line"/>
      <point x="301" y="740" type="line"/>
      <point x="531" y="740" type="line"/>
      <point x="565" y="735" type="line"/>
      <point x="651" y="700" type="line"/>
      <point x="677" y="588" type="line" smooth="yes"/>
      <point x="684" y="557"/>
      <point x="717" y="536"/>
      <point x="749" y="544" type="curve" smooth="yes"/>
      <point x="780" y="551"/>
      <point x="801" y="584"/>
      <point x="793" y="616" type="curve" smooth="yes"/>
      <point x="761" y="757" type="line" smooth="yes"/>
      <point x="757" y="774"/>
      <point x="741" y="793"/>
      <point x="725" y="799" type="curve" smooth="yes"/>
      <point x="603" y="849" type="line" smooth="yes"/>
      <point x="599" y="851"/>
      <point x="593" y="853"/>
      <point x="589" y="853" type="curve" smooth="yes"/>
      <point x="543" y="859" type="line" smooth="yes"/>
      <point x="541" y="860"/>
      <point x="537" y="860"/>
      <point x="535" y="860" type="curve" smooth="yes"/>
      <point x="290" y="860" type="line" smooth="yes"/>
      <point x="284" y="860"/>
      <point x="274" y="858"/>
      <point x="269" y="856" type="curve" smooth="yes"/>
      <point x="171" y="819" type="line" smooth="yes"/>
      <point x="163" y="816"/>
      <point x="153" y="809"/>
      <point x="147" y="803" type="curve" smooth="yes"/>
      <point x="76" y="721" type="line" smooth="yes"/>
      <point x="69" y="713"/>
      <point x="63" y="699"/>
      <point x="62" y="689" type="curve" smooth="yes"/>
      <point x="51" y="606" type="line" smooth="yes"/>
      <point x="50" y="601"/>
      <point x="50" y="592"/>
      <point x="51" y="587" type="curve" smooth="yes"/>
      <point x="75" y="461" type="line" smooth="yes"/>
      <point x="77" y="447"/>
      <point x="89" y="430"/>
      <point x="100" y="422" type="curve" smooth="yes"/>
      <point x="138" y="397" type="line"/>
      <point x="107" y="370" type="line" smooth="yes"/>
      <point x="98" y="362"/>
      <point x="90" y="345"/>
      <point x="88" y="333" type="curve" smooth="yes"/>
      <point x="70" y="207" type="line" smooth="yes"/>
      <point x="69" y="201"/>
      <point x="69" y="192"/>
      <point x="70" y="187" type="curve" smooth="yes"/>
      <point x="97" y="45" type="line" smooth="yes"/>
      <point x="100" y="29"/>
      <point x="114" y="10"/>
      <point x="129" y="3" type="curve" smooth="yes"/>
      <point x="227" y="-47" type="line" smooth="yes"/>
      <point x="232" y="-50"/>
      <point x="241" y="-53"/>
      <point x="247" y="-53" type="curve" smooth="yes"/>
      <point x="301" y="-60" type="line" smooth="yes"/>
      <point x="303" y="-60"/>
      <point x="306" y="-60"/>
    </contour>
  </outline>
</glyph>
<glyph name="F" format="1">
  <advance width="840"/>
  <unicode hex="0046"/>
  <outline>
    <contour>
      <point x="180" y="-2" type="curve" smooth="yes"/>
      <point x="182" y="97" type="line" smooth="yes"/>
      <point x="183" y="99"/>
      <point x="182" y="102"/>
      <point x="182" y="104" type="curve" smooth="yes"/>
      <point x="175" y="192" type="line"/>
      <point x="203" y="289" type="line"/>
      <point x="249" y="325" type="line"/>
      <point x="313" y="337" type="line"/>
      <point x="393" y="339" type="line" smooth="yes"/>
      <point x="394" y="339"/>
      <point x="397" y="339"/>
      <point x="398" y="339" type="curve" smooth="yes"/>
      <point x="417" y="342" type="line" smooth="yes"/>
      <point x="493" y="351"/>
      <point x="488" y="460"/>
      <point x="411" y="461" type="curve" smooth="yes"/>
      <point x="309" y="463" type="line"/>
      <point x="248" y="473" type="line"/>
      <point x="212" y="507" type="line"/>
      <point x="171" y="607" type="line"/>
      <point x="175" y="658" type="line"/>
      <point x="220" y="711" type="line"/>
      <point x="311" y="740" type="line"/>
      <point x="519" y="740" type="line"/>
      <point x="610" y="735" type="line"/>
      <point x="643" y="709" type="line"/>
      <point x="672" y="588" type="line" smooth="yes"/>
      <point x="679" y="557"/>
      <point x="712" y="536"/>
      <point x="744" y="544" type="curve" smooth="yes"/>
      <point x="775" y="551"/>
      <point x="796" y="584"/>
      <point x="788" y="616" type="curve" smooth="yes"/>
      <point x="755" y="757" type="line" smooth="yes"/>
      <point x="752" y="769"/>
      <point x="742" y="784"/>
      <point x="733" y="791" type="curve" smooth="yes"/>
      <point x="670" y="841" type="line" smooth="yes"/>
      <point x="661" y="847"/>
      <point x="646" y="853"/>
      <point x="636" y="854" type="curve" smooth="yes"/>
      <point x="525" y="860" type="line"/>
      <point x="407" y="860" type="line"/>
      <point x="302" y="860" type="line" smooth="yes"/>
      <point x="297" y="860"/>
      <point x="289" y="859"/>
      <point x="284" y="857" type="curve" smooth="yes"/>
      <point x="167" y="820" type="line" smooth="yes"/>
      <point x="158" y="817"/>
      <point x="146" y="809"/>
      <point x="139" y="802" type="curve" smooth="yes"/>
      <point x="71" y="720" type="line" smooth="yes"/>
      <point x="64" y="712"/>
      <point x="58" y="697"/>
      <point x="57" y="687" type="curve" smooth="yes"/>
      <point x="50" y="603" type="line" smooth="yes"/>
      <point x="50" y="595"/>
      <point x="51" y="583"/>
      <point x="54" y="575" type="curve" smooth="yes"/>
      <point x="105" y="450" type="line" smooth="yes"/>
      <point x="108" y="443"/>
      <point x="115" y="434"/>
      <point x="120" y="429" type="curve" smooth="yes"/>
      <point x="150" y="400" type="line"/>
      <point x="113" y="371" type="line" smooth="yes"/>
      <point x="105" y="364"/>
      <point x="96" y="351"/>
      <point x="93" y="341" type="curve" smooth="yes"/>
      <point x="56" y="215" type="line" smooth="yes"/>
      <point x="55" y="209"/>
      <point x="54" y="199"/>
      <point x="54" y="193" type="curve" smooth="yes"/>
      <point x="62" y="97" type="line"/>
      <point x="60" y="2" type="line" smooth="yes"/>
      <point x="59" y="-31"/>
      <point x="86" y="-59"/>
      <point x="118" y="-60" type="curve" smooth="yes"/>
      <point x="151" y="-61"/>
      <point x="179" y="-34"/>
    </contour>
  </outline>
</glyph>
<glyph name="G" format="1">
  <advance width="854"/>
  <unicode hex="0047"/>
  <outline>
    <contour>
      <point x="341" y="-56" type="curve" smooth="yes"/>
      <point x="559" y="-56" type="line" smooth="yes"/>
      <point x="563" y="-56"/>
      <point x="571" y="-55"/>
      <point x="575" y="-54" type="curve" smooth="yes"/>
      <point x="706" y="-18" type="line" smooth="yes"/>
      <point x="723" y="-13"/>
      <point x="740" y="3"/>
      <point x="746" y="18" type="curve" smooth="yes"/>
      <point x="778" y="99" type="line" smooth="yes"/>
      <point x="779" y="103"/>
      <point x="781" y="110"/>
      <point x="781" y="115" type="curve" smooth="yes"/>
      <point x="790" y="198" type="line"/>
      <point x="797" y="300" type="line" smooth="yes"/>
      <point x="797" y="302"/>
      <point x="797" y="306"/>
      <point x="797" y="309" type="curve" smooth="yes"/>
      <point x="789" y="409" type="line" smooth="yes"/>
      <point x="786" y="439"/>
      <point x="760" y="464"/>
      <point x="729" y="464" type="curve" smooth="yes"/>
      <point x="519" y="464" type="line"/>
      <point x="431" y="488" type="line"/>
      <point x="422" y="533" type="line" smooth="yes"/>
      <point x="420" y="539"/>
      <point x="417" y="547"/>
      <point x="414" y="552" type="curve" smooth="yes"/>
      <point x="362" y="636" type="line" smooth="yes"/>
      <point x="345" y="663"/>
      <point x="307" y="672"/>
      <point x="279" y="655" type="curve" smooth="yes"/>
      <point x="252" y="638"/>
      <point x="243" y="600"/>
      <point x="260" y="572" type="curve" smooth="yes"/>
      <point x="307" y="498" type="line"/>
      <point x="322" y="427" type="line" smooth="yes"/>
      <point x="326" y="408"/>
      <point x="345" y="388"/>
      <point x="364" y="382" type="curve" smooth="yes"/>
      <point x="495" y="346" type="line" smooth="yes"/>
      <point x="499" y="345"/>
      <point x="507" y="344"/>
      <point x="511" y="344" type="curve" smooth="yes"/>
      <point x="674" y="344" type="line"/>
      <point x="677" y="304" type="line"/>
      <point x="670" y="210" type="line"/>
      <point x="663" y="135" type="line"/>
      <point x="646" y="90" type="line"/>
      <point x="551" y="64" type="line"/>
      <point x="349" y="64" type="line"/>
      <point x="245" y="91" type="line"/>
      <point x="224" y="138" type="line"/>
      <point x="210" y="212" type="line"/>
      <point x="196" y="312" type="line" smooth="yes"/>
      <point x="196" y="314"/>
      <point x="195" y="318"/>
      <point x="195" y="320" type="curve" smooth="yes"/>
      <point x="170" y="410" type="line"/>
      <point x="175" y="495" type="line"/>
      <point x="199" y="589" type="line" smooth="yes"/>
      <point x="201" y="596"/>
      <point x="201" y="607"/>
      <point x="200" y="614" type="curve" smooth="yes"/>
      <point x="191" y="670" type="line"/>
      <point x="228" y="714" type="line"/>
      <point x="361" y="744" type="line"/>
      <point x="524" y="744" type="line"/>
      <point x="643" y="714" type="line"/>
      <point x="679" y="672" type="line"/>
      <point x="665" y="619" type="line" smooth="yes"/>
      <point x="657" y="588"/>
      <point x="677" y="554"/>
      <point x="708" y="546" type="curve" smooth="yes"/>
      <point x="739" y="538"/>
      <point x="773" y="558"/>
      <point x="781" y="589" type="curve" smooth="yes"/>
      <point x="803" y="672" type="line" smooth="yes"/>
      <point x="807" y="689"/>
      <point x="801" y="713"/>
      <point x="790" y="726" type="curve" smooth="yes"/>
      <point x="722" y="807" type="line" smooth="yes"/>
      <point x="715" y="815"/>
      <point x="701" y="824"/>
      <point x="691" y="826" type="curve" smooth="yes"/>
      <point x="545" y="862" type="line" smooth="yes"/>
      <point x="542" y="863"/>
      <point x="535" y="864"/>
      <point x="531" y="864" type="curve" smooth="yes"/>
      <point x="354" y="864" type="line" smooth="yes"/>
      <point x="350" y="864"/>
      <point x="344" y="863"/>
      <point x="341" y="863" type="curve" smooth="yes"/>
      <point x="181" y="826" type="line" smooth="yes"/>
      <point x="170" y="824"/>
      <point x="156" y="815"/>
      <point x="148" y="806" type="curve" smooth="yes"/>
      <point x="81" y="725" type="line" smooth="yes"/>
      <point x="71" y="714"/>
      <point x="66" y="692"/>
      <point x="68" y="677" type="curve" smooth="yes"/>
      <point x="80" y="607" type="line"/>
      <point x="57" y="519" type="line" smooth="yes"/>
      <point x="56" y="516"/>
      <point x="55" y="510"/>
      <point x="55" y="507" type="curve" smooth="yes"/>
      <point x="50" y="407" type="line" smooth="yes"/>
      <point x="50" y="402"/>
      <point x="51" y="393"/>
      <point x="52" y="388" type="curve" smooth="yes"/>
      <point x="78" y="292" type="line"/>
      <point x="92" y="196" type="line"/>
      <point x="107" y="110" type="line" smooth="yes"/>
      <point x="108" y="106"/>
      <point x="110" y="100"/>
      <point x="112" y="96" type="curve" smooth="yes"/>
      <point x="147" y="16" type="line" smooth="yes"/>
      <point x="153" y="1"/>
      <point x="171" y="-14"/>
      <point x="187" y="-18" type="curve" smooth="yes"/>
      <point x="326" y="-54" type="line" smooth="yes"/>
      <point x="330" y="-55"/>
      <point x="337" y="-56"/>
    </contour>
  </outline>
</glyph>
<glyph name="H" format="1">
  <advance width="865"/>
  <unicode hex="0048"/>
  <outline>
    <contour>
      <point x="783" y="-7" type="curve" smooth="yes"/>
      <point x="788" y="88" type="line"/>
      <point x="809" y="183" type="line" smooth="yes"/>
      <point x="809" y="186"/>
      <point x="810" y="191"/>
      <point x="810" y="194" type="curve" smooth="yes"/>
      <point x="813" y="294" type="line" smooth="yes"/>
      <point x="813" y="298"/>
      <point x="813" y="303"/>
      <point x="812" y="307" type="curve" smooth="yes"/>
      <point x="795" y="399" type="line"/>
      <point x="804" y="491" type="line"/>
      <point x="815" y="589" type="line" smooth="yes"/>
      <point x="815" y="596"/>
      <point x="814" y="607"/>
      <point x="812" y="614" type="curve" smooth="yes"/>
      <point x="804" y="640" type="line"/>
      <point x="800" y="700" type="line" smooth="yes"/>
      <point x="798" y="731"/>
      <point x="772" y="756"/>
      <point x="741" y="756" type="curve" smooth="yes"/>
      <point x="724" y="756" type="line" smooth="yes"/>
      <point x="681" y="756"/>
      <point x="654" y="719"/>
      <point x="667" y="678" type="curve" smooth="yes"/>
      <point x="685" y="618" type="line"/>
      <point x="687" y="600" type="line"/>
      <point x="673" y="533" type="line"/>
      <point x="647" y="485" type="line"/>
      <point x="508" y="456" type="line"/>
      <point x="336" y="456" type="line" smooth="yes"/>
      <point x="332" y="456"/>
      <point x="325" y="455"/>
      <point x="321" y="454" type="curve" smooth="yes"/>
      <point x="206" y="425" type="line"/>
      <point x="214" y="488" type="line" smooth="yes"/>
      <point x="216" y="497"/>
      <point x="214" y="511"/>
      <point x="210" y="520" type="curve" smooth="yes"/>
      <point x="177" y="597" type="line"/>
      <point x="206" y="675" type="line" smooth="yes"/>
      <point x="211" y="687"/>
      <point x="211" y="706"/>
      <point x="206" y="718" type="curve" smooth="yes"/>
      <point x="166" y="818" type="line" smooth="yes"/>
      <point x="154" y="848"/>
      <point x="118" y="864"/>
      <point x="88" y="852" type="curve" smooth="yes"/>
      <point x="58" y="840"/>
      <point x="42" y="804"/>
      <point x="54" y="774" type="curve" smooth="yes"/>
      <point x="86" y="695" type="line"/>
      <point x="56" y="617" type="line" smooth="yes"/>
      <point x="51" y="605"/>
      <point x="52" y="585"/>
      <point x="57" y="572" type="curve" smooth="yes"/>
      <point x="93" y="488" type="line"/>
      <point x="82" y="407" type="line"/>
      <point x="59" y="310" type="line" smooth="yes"/>
      <point x="57" y="303"/>
      <point x="57" y="292"/>
      <point x="58" y="285" type="curve" smooth="yes"/>
      <point x="75" y="189" type="line"/>
      <point x="78" y="166" type="line"/>
      <point x="58" y="120" type="line" smooth="yes"/>
      <point x="39" y="78"/>
      <point x="66" y="36"/>
      <point x="112" y="36" type="curve" smooth="yes"/>
      <point x="147" y="36" type="line" smooth="yes"/>
      <point x="184" y="36"/>
      <point x="211" y="66"/>
      <point x="207" y="103" type="curve" smooth="yes"/>
      <point x="201" y="148" type="line"/>
      <point x="212" y="172" type="line" smooth="yes"/>
      <point x="216" y="182"/>
      <point x="218" y="198"/>
      <point x="216" y="209" type="curve" smooth="yes"/>
      <point x="203" y="267" type="line"/>
      <point x="230" y="307" type="line"/>
      <point x="343" y="336" type="line"/>
      <point x="514" y="336" type="line" smooth="yes"/>
      <point x="517" y="336"/>
      <point x="523" y="337"/>
      <point x="526" y="337" type="curve" smooth="yes"/>
      <point x="679" y="369" type="line"/>
      <point x="693" y="292" type="line"/>
      <point x="690" y="203" type="line"/>
      <point x="669" y="109" type="line" smooth="yes"/>
      <point x="669" y="106"/>
      <point x="668" y="102"/>
      <point x="668" y="99" type="curve" smooth="yes"/>
      <point x="663" y="-1" type="line" smooth="yes"/>
      <point x="661" y="-33"/>
      <point x="688" y="-62"/>
      <point x="720" y="-64" type="curve" smooth="yes"/>
      <point x="752" y="-66"/>
      <point x="781" y="-39"/>
    </contour>
  </outline>
</glyph>
<glyph name="I" format="1">
  <advance width="818"/>
  <unicode hex="0049"/>
  <outline>
    <contour>
      <point x="110" y="-61" type="curve" smooth="yes"/>
      <point x="623" y="-61" type="line" smooth="yes"/>
      <point x="679" y="-61"/>
      <point x="705" y="-4"/>
      <point x="668" y="39" type="curve" smooth="yes"/>
      <point x="661" y="47" type="line" smooth="yes"/>
      <point x="652" y="57"/>
      <point x="634" y="66"/>
      <point x="620" y="67" type="curve" smooth="yes"/>
      <point x="541" y="72" type="line"/>
      <point x="518" y="95" type="line"/>
      <point x="470" y="202" type="line"/>
      <point x="493" y="281" type="line" smooth="yes"/>
      <point x="497" y="292"/>
      <point x="496" y="310"/>
      <point x="492" y="320" type="curve" smooth="yes"/>
      <point x="460" y="403" type="line"/>
      <point x="479" y="486" type="line" smooth="yes"/>
      <point x="480" y="487"/>
      <point x="480" y="489"/>
      <point x="480" y="491" type="curve" smooth="yes"/>
      <point x="495" y="591" type="line" smooth="yes"/>
      <point x="497" y="599"/>
      <point x="495" y="612"/>
      <point x="493" y="620" type="curve" smooth="yes"/>
      <point x="450" y="739" type="line"/>
      <point x="708" y="739" type="line" smooth="yes"/>
      <point x="740" y="739"/>
      <point x="768" y="767"/>
      <point x="768" y="799" type="curve" smooth="yes"/>
      <point x="768" y="831"/>
      <point x="740" y="859"/>
      <point x="708" y="859" type="curve" smooth="yes"/>
      <point x="431" y="859" type="line"/>
      <point x="312" y="859" type="line"/>
      <point x="224" y="852" type="line" smooth="yes"/>
      <point x="150" y="846"/>
      <point x="147" y="742"/>
      <point x="221" y="733" type="curve" smooth="yes"/>
      <point x="266" y="727" type="line"/>
      <point x="339" y="694" type="line"/>
      <point x="374" y="594" type="line"/>
      <point x="362" y="511" type="line"/>
      <point x="339" y="413" type="line" smooth="yes"/>
      <point x="336" y="403"/>
      <point x="337" y="387"/>
      <point x="341" y="377" type="curve" smooth="yes"/>
      <point x="373" y="296" type="line"/>
      <point x="349" y="215" type="line" smooth="yes"/>
      <point x="345" y="203"/>
      <point x="346" y="185"/>
      <point x="351" y="173" type="curve" smooth="yes"/>
      <point x="403" y="59" type="line"/>
      <point x="110" y="59" type="line" smooth="yes"/>
      <point x="78" y="59"/>
      <point x="50" y="31"/>
      <point x="50" y="-1" type="curve" smooth="yes"/>
      <point x="50" y="-33"/>
      <point x="78" y="-61"/>
    </contour>
  </outline>
</glyph>
<glyph name="J" format="1">
  <advance width="790"/>
  <unicode hex="004A"/>
  <outline>
    <contour>
      <point x="110" y="-61" type="curve" smooth="yes"/>
      <point x="186" y="-61" type="line" smooth="yes"/>
      <point x="190" y="-61"/>
      <point x="197" y="-60"/>
      <point x="201" y="-59" type="curve" smooth="yes"/>
      <point x="341" y="-23" type="line" smooth="yes"/>
      <point x="352" y="-20"/>
      <point x="366" y="-11"/>
      <point x="373" y="-2" type="curve" smooth="yes"/>
      <point x="435" y="78" type="line" smooth="yes"/>
      <point x="439" y="84"/>
      <point x="444" y="94"/>
      <point x="445" y="100" type="curve" smooth="yes"/>
      <point x="466" y="183" type="line" smooth="yes"/>
      <point x="468" y="189"/>
      <point x="468" y="197"/>
      <point x="468" y="203" type="curve" smooth="yes"/>
      <point x="460" y="302" type="line"/>
      <point x="454" y="394" type="line"/>
      <point x="475" y="487" type="line" smooth="yes"/>
      <point x="476" y="493"/>
      <point x="476" y="502"/>
      <point x="475" y="508" type="curve" smooth="yes"/>
      <point x="460" y="609" type="line" smooth="yes"/>
      <point x="460" y="613"/>
      <point x="458" y="620"/>
      <point x="456" y="623" type="curve" smooth="yes"/>
      <point x="407" y="739" type="line"/>
      <point x="680" y="739" type="line" smooth="yes"/>
      <point x="712" y="739"/>
      <point x="740" y="767"/>
      <point x="740" y="799" type="curve" smooth="yes"/>
      <point x="740" y="831"/>
      <point x="712" y="859"/>
      <point x="680" y="859" type="curve" smooth="yes"/>
      <point x="204" y="859" type="line" smooth="yes"/>
      <point x="128" y="859"/>
      <point x="120" y="749"/>
      <point x="196" y="739" type="curve" smooth="yes"/>
      <point x="271" y="730" type="line"/>
      <point x="290" y="708" type="line"/>
      <point x="343" y="584" type="line"/>
      <point x="355" y="502" type="line"/>
      <point x="335" y="412" type="line" smooth="yes"/>
      <point x="334" y="407"/>
      <point x="334" y="400"/>
      <point x="334" y="395" type="curve" smooth="yes"/>
      <point x="340" y="295" type="line"/>
      <point x="347" y="203" type="line"/>
      <point x="332" y="142" type="line"/>
      <point x="291" y="88" type="line"/>
      <point x="178" y="59" type="line"/>
      <point x="110" y="59" type="line" smooth="yes"/>
      <point x="78" y="59"/>
      <point x="50" y="31"/>
      <point x="50" y="-1" type="curve" smooth="yes"/>
      <point x="50" y="-33"/>
      <point x="78" y="-61"/>
    </contour>
  </outline>
</glyph>
<glyph name="K" format="1">
  <advance width="854"/>
  <unicode hex="004B"/>
  <outline>
    <contour>
      <point x="776" y="-11" type="curve" smooth="yes"/>
      <point x="802" y="90" type="line" smooth="yes"/>
      <point x="803" y="95"/>
      <point x="804" y="103"/>
      <point x="804" y="109" type="curve" smooth="yes"/>
      <point x="798" y="210" type="line" smooth="yes"/>
      <point x="798" y="215"/>
      <point x="795" y="225"/>
      <point x="793" y="230" type="curve" smooth="yes"/>
      <point x="731" y="372" type="line" smooth="yes"/>
      <point x="729" y="375"/>
      <point x="726" y="381"/>
      <point x="724" y="384" type="curve" smooth="yes"/>
      <point x="715" y="395" type="line"/>
      <point x="718" y="398"/>
      <point x="722" y="402"/>
      <point x="724" y="405" type="curve" smooth="yes"/>
      <point x="783" y="485" type="line" smooth="yes"/>
      <point x="788" y="493"/>
      <point x="794" y="507"/>
      <point x="794" y="516" type="curve" smooth="yes"/>
      <point x="800" y="600" type="line" smooth="yes"/>
      <point x="800" y="604"/>
      <point x="800" y="610"/>
      <point x="799" y="614" type="curve" smooth="yes"/>
      <point x="782" y="714" type="line"/>
      <point x="768" y="812" type="line" smooth="yes"/>
      <point x="764" y="844"/>
      <point x="733" y="868"/>
      <point x="701" y="863" type="curve" smooth="yes"/>
      <point x="669" y="859"/>
      <point x="645" y="828"/>
      <point x="650" y="796" type="curve" smooth="yes"/>
      <point x="663" y="694" type="line"/>
      <point x="680" y="601" type="line"/>
      <point x="676" y="542" type="line"/>
      <point x="639" y="492" type="line"/>
      <point x="532" y="463" type="line"/>
      <point x="515" y="464" type="line"/>
      <point x="417" y="464" type="line"/>
      <point x="322" y="464" type="line" smooth="yes"/>
      <point x="317" y="464"/>
      <point x="310" y="463"/>
      <point x="305" y="462" type="curve" smooth="yes"/>
      <point x="182" y="426" type="line"/>
      <point x="171" y="507" type="line"/>
      <point x="173" y="603" type="line"/>
      <point x="171" y="705" type="line"/>
      <point x="170" y="805" type="line" smooth="yes"/>
      <point x="170" y="837"/>
      <point x="142" y="864"/>
      <point x="109" y="864" type="curve" smooth="yes"/>
      <point x="77" y="864"/>
      <point x="50" y="836"/>
      <point x="50" y="803" type="curve" smooth="yes"/>
      <point x="51" y="703" type="line"/>
      <point x="53" y="605" type="line"/>
      <point x="51" y="505" type="line" smooth="yes"/>
      <point x="51" y="503"/>
      <point x="51" y="499"/>
      <point x="52" y="496" type="curve" smooth="yes"/>
      <point x="65" y="396" type="line" smooth="yes"/>
      <point x="65" y="393"/>
      <point x="66" y="389"/>
      <point x="67" y="386" type="curve" smooth="yes"/>
      <point x="86" y="324" type="line"/>
      <point x="86" y="324" type="line" smooth="yes"/>
      <point x="77" y="312"/>
      <point x="71" y="291"/>
      <point x="74" y="277" type="curve" smooth="yes"/>
      <point x="81" y="233" type="line"/>
      <point x="79" y="217" type="line"/>
      <point x="56" y="117" type="line" smooth="yes"/>
      <point x="46" y="78"/>
      <point x="73" y="44"/>
      <point x="114" y="44" type="curve" smooth="yes"/>
      <point x="144" y="44" type="line" smooth="yes"/>
      <point x="175" y="44"/>
      <point x="202" y="70"/>
      <point x="203" y="102" type="curve" smooth="yes"/>
      <point x="207" y="202" type="line" smooth="yes"/>
      <point x="207" y="205"/>
      <point x="207" y="211"/>
      <point x="206" y="214" type="curve" smooth="yes"/>
      <point x="203" y="232" type="line"/>
      <point x="214" y="293" type="line"/>
      <point x="232" y="315" type="line"/>
      <point x="331" y="344" type="line"/>
      <point x="509" y="344" type="line"/>
      <point x="607" y="339" type="line"/>
      <point x="624" y="317" type="line"/>
      <point x="679" y="192" type="line"/>
      <point x="684" y="111" type="line"/>
      <point x="660" y="19" type="line" smooth="yes"/>
      <point x="652" y="-12"/>
      <point x="672" y="-46"/>
      <point x="703" y="-54" type="curve" smooth="yes"/>
      <point x="734" y="-62"/>
      <point x="768" y="-42"/>
    </contour>
  </outline>
</glyph>
<glyph name="L" format="1">
  <advance width="845"/>
  <unicode hex="004C"/>
  <outline>
    <contour>
      <point x="336" y="-60" type="curve" smooth="yes"/>
      <point x="735" y="-60" type="line" smooth="yes"/>
      <point x="767" y="-60"/>
      <point x="795" y="-32"/>
      <point x="795" y="0" type="curve" smooth="yes"/>
      <point x="795" y="32"/>
      <point x="767" y="60"/>
      <point x="735" y="60" type="curve" smooth="yes"/>
      <point x="339" y="60" type="line"/>
      <point x="273" y="66" type="line"/>
      <point x="219" y="99" type="line"/>
      <point x="178" y="212" type="line"/>
      <point x="173" y="295" type="line"/>
      <point x="195" y="386" type="line" smooth="yes"/>
      <point x="197" y="394"/>
      <point x="197" y="407"/>
      <point x="195" y="416" type="curve" smooth="yes"/>
      <point x="171" y="503" type="line"/>
      <point x="185" y="591" type="line" smooth="yes"/>
      <point x="186" y="592"/>
      <point x="186" y="596"/>
      <point x="186" y="598" type="curve" smooth="yes"/>
      <point x="190" y="694" type="line"/>
      <point x="200" y="794" type="line" smooth="yes"/>
      <point x="203" y="826"/>
      <point x="178" y="856"/>
      <point x="146" y="860" type="curve" smooth="yes"/>
      <point x="114" y="863"/>
      <point x="84" y="838"/>
      <point x="80" y="806" type="curve" smooth="yes"/>
      <point x="70" y="706" type="line"/>
      <point x="66" y="606" type="line"/>
      <point x="51" y="509" type="line" smooth="yes"/>
      <point x="50" y="502"/>
      <point x="50" y="491"/>
      <point x="52" y="484" type="curve" smooth="yes"/>
      <point x="75" y="399" type="line"/>
      <point x="55" y="314" type="line" smooth="yes"/>
      <point x="54" y="309"/>
      <point x="53" y="301"/>
      <point x="53" y="296" type="curve" smooth="yes"/>
      <point x="59" y="196" type="line" smooth="yes"/>
      <point x="59" y="192"/>
      <point x="61" y="184"/>
      <point x="62" y="180" type="curve" smooth="yes"/>
      <point x="113" y="38" type="line" smooth="yes"/>
      <point x="116" y="27"/>
      <point x="128" y="13"/>
      <point x="138" y="7" type="curve" smooth="yes"/>
      <point x="222" y="-44" type="line" smooth="yes"/>
      <point x="229" y="-48"/>
      <point x="241" y="-52"/>
      <point x="249" y="-53" type="curve" smooth="yes"/>
      <point x="331" y="-60" type="line" smooth="yes"/>
      <point x="332" y="-60"/>
      <point x="335" y="-60"/>
    </contour>
  </outline>
</glyph>
<glyph name="M" format="1">
  <advance width="865"/>
  <unicode hex="004D"/>
  <outline>
    <contour>
      <point x="167" y="-19" type="curve" smooth="yes"/>
      <point x="199" y="81" type="line" smooth="yes"/>
      <point x="200" y="84"/>
      <point x="201" y="89"/>
      <point x="202" y="92" type="curve" smooth="yes"/>
      <point x="214" y="192" type="line" smooth="yes"/>
      <point x="214" y="195"/>
      <point x="214" y="201"/>
      <point x="214" y="205" type="curve" smooth="yes"/>
      <point x="204" y="299" type="line"/>
      <point x="215" y="392" type="line" smooth="yes"/>
      <point x="215" y="398"/>
      <point x="215" y="406"/>
      <point x="214" y="411" type="curve" smooth="yes"/>
      <point x="192" y="513" type="line"/>
      <point x="173" y="594" type="line"/>
      <point x="207" y="676" type="line" smooth="yes"/>
      <point x="211" y="688"/>
      <point x="212" y="707"/>
      <point x="208" y="719" type="curve" smooth="yes"/>
      <point x="201" y="739" type="line"/>
      <point x="223" y="739" type="line"/>
      <point x="292" y="733" type="line"/>
      <point x="343" y="703" type="line"/>
      <point x="364" y="594" type="line"/>
      <point x="362" y="542" type="line"/>
      <point x="355" y="512" type="line" smooth="yes"/>
      <point x="354" y="506"/>
      <point x="353" y="497"/>
      <point x="354" y="491" type="curve" smooth="yes"/>
      <point x="368" y="391" type="line" smooth="yes"/>
      <point x="372" y="362"/>
      <point x="398" y="339"/>
      <point x="427" y="339" type="curve" smooth="yes"/>
      <point x="438" y="339" type="line" smooth="yes"/>
      <point x="476" y="339"/>
      <point x="503" y="371"/>
      <point x="497" y="409" type="curve" smooth="yes"/>
      <point x="481" y="503" type="line"/>
      <point x="481" y="527" type="line"/>
      <point x="493" y="580" type="line"/>
      <point x="551" y="714" type="line"/>
      <point x="563" y="734" type="line"/>
      <point x="628" y="739" type="line"/>
      <point x="665" y="739" type="line"/>
      <point x="673" y="701" type="line"/>
      <point x="650" y="614" type="line" smooth="yes"/>
      <point x="649" y="609"/>
      <point x="648" y="602"/>
      <point x="648" y="597" type="curve" smooth="yes"/>
      <point x="652" y="497" type="line" smooth="yes"/>
      <point x="652" y="492"/>
      <point x="653" y="486"/>
      <point x="655" y="482" type="curve" smooth="yes"/>
      <point x="683" y="387" type="line"/>
      <point x="693" y="302" type="line"/>
      <point x="675" y="212" type="line"/>
      <point x="652" y="112" type="line" smooth="yes"/>
      <point x="649" y="102"/>
      <point x="651" y="85"/>
      <point x="655" y="74" type="curve" smooth="yes"/>
      <point x="700" y="-26" type="line" smooth="yes"/>
      <point x="714" y="-55"/>
      <point x="750" y="-69"/>
      <point x="780" y="-56" type="curve" smooth="yes"/>
      <point x="809" y="-42"/>
      <point x="823" y="-6"/>
      <point x="810" y="24" type="curve" smooth="yes"/>
      <point x="773" y="105" type="line"/>
      <point x="791" y="186" type="line"/>
      <point x="813" y="287" type="line" smooth="yes"/>
      <point x="814" y="292"/>
      <point x="814" y="301"/>
      <point x="814" y="306" type="curve" smooth="yes"/>
      <point x="802" y="406" type="line" smooth="yes"/>
      <point x="801" y="409"/>
      <point x="800" y="414"/>
      <point x="799" y="416" type="curve" smooth="yes"/>
      <point x="772" y="509" type="line"/>
      <point x="768" y="593" type="line"/>
      <point x="792" y="684" type="line" smooth="yes"/>
      <point x="794" y="691"/>
      <point x="794" y="703"/>
      <point x="793" y="710" type="curve" smooth="yes"/>
      <point x="774" y="810" type="line" smooth="yes"/>
      <point x="769" y="837"/>
      <point x="742" y="859"/>
      <point x="715" y="859" type="curve" smooth="yes"/>
      <point x="628" y="859" type="line"/>
      <point x="522" y="852" type="line" smooth="yes"/>
      <point x="505" y="851"/>
      <point x="483" y="837"/>
      <point x="474" y="822" type="curve" smooth="yes"/>
      <point x="446" y="772" type="line"/>
      <point x="441" y="780"/>
      <point x="434" y="788"/>
      <point x="427" y="792" type="curve" smooth="yes"/>
      <point x="342" y="843" type="line" smooth="yes"/>
      <point x="335" y="847"/>
      <point x="324" y="851"/>
      <point x="316" y="852" type="curve" smooth="yes"/>
      <point x="230" y="859" type="line" smooth="yes"/>
      <point x="229" y="859"/>
      <point x="226" y="859"/>
      <point x="225" y="859" type="curve" smooth="yes"/>
      <point x="116" y="859" type="line" smooth="yes"/>
      <point x="72" y="859"/>
      <point x="45" y="821"/>
      <point x="59" y="779" type="curve" smooth="yes"/>
      <point x="87" y="701" type="line"/>
      <point x="54" y="622" type="line" smooth="yes"/>
      <point x="50" y="612"/>
      <point x="49" y="595"/>
      <point x="52" y="585" type="curve" smooth="yes"/>
      <point x="76" y="485" type="line"/>
      <point x="94" y="396" type="line"/>
      <point x="84" y="306" type="line" smooth="yes"/>
      <point x="84" y="302"/>
      <point x="84" y="296"/>
      <point x="84" y="293" type="curve" smooth="yes"/>
      <point x="94" y="200" type="line"/>
      <point x="83" y="112" type="line"/>
      <point x="53" y="17" type="line" smooth="yes"/>
      <point x="43" y="-14"/>
      <point x="61" y="-48"/>
      <point x="92" y="-58" type="curve" smooth="yes"/>
      <point x="123" y="-68"/>
      <point x="157" y="-50"/>
    </contour>
  </outline>
</glyph>
<glyph name="N" format="1">
  <advance width="844"/>
  <unicode hex="004E"/>
  <outline>
    <contour>
      <point x="651" y="-61" type="line"/>
      <point x="705" y="-61" type="line" smooth="yes"/>
      <point x="735" y="-61"/>
      <point x="762" y="-37"/>
      <point x="765" y="-7" type="curve" smooth="yes"/>
      <point x="775" y="93" type="line" smooth="yes"/>
      <point x="775" y="97"/>
      <point x="775" y="103"/>
      <point x="774" y="107" type="curve" smooth="yes"/>
      <point x="762" y="196" type="line"/>
      <point x="782" y="286" type="line" smooth="yes"/>
      <point x="784" y="293"/>
      <point x="784" y="304"/>
      <point x="783" y="311" type="curve" smooth="yes"/>
      <point x="765" y="396" type="line"/>
      <point x="792" y="481" type="line" smooth="yes"/>
      <point x="795" y="490"/>
      <point x="795" y="505"/>
      <point x="793" y="515" type="curve" smooth="yes"/>
      <point x="768" y="608" type="line"/>
      <point x="765" y="694" type="line"/>
      <point x="785" y="787" type="line" smooth="yes"/>
      <point x="791" y="818"/>
      <point x="770" y="851"/>
      <point x="738" y="858" type="curve" smooth="yes"/>
      <point x="707" y="864"/>
      <point x="674" y="843"/>
      <point x="667" y="811" type="curve" smooth="yes"/>
      <point x="646" y="711" type="line" smooth="yes"/>
      <point x="645" y="707"/>
      <point x="645" y="701"/>
      <point x="645" y="697" type="curve" smooth="yes"/>
      <point x="648" y="597" type="line" smooth="yes"/>
      <point x="648" y="593"/>
      <point x="649" y="587"/>
      <point x="650" y="583" type="curve" smooth="yes"/>
      <point x="672" y="500" type="line"/>
      <point x="646" y="417" type="line" smooth="yes"/>
      <point x="643" y="409"/>
      <point x="642" y="395"/>
      <point x="644" y="387" type="curve" smooth="yes"/>
      <point x="663" y="300" type="line"/>
      <point x="643" y="212" type="line" smooth="yes"/>
      <point x="641" y="206"/>
      <point x="641" y="197"/>
      <point x="642" y="191" type="curve" smooth="yes"/>
      <point x="655" y="98" type="line"/>
      <point x="651" y="59" type="line"/>
      <point x="555" y="65" type="line"/>
      <point x="499" y="94" type="line"/>
      <point x="498" y="199" type="line"/>
      <point x="491" y="303" type="line" smooth="yes"/>
      <point x="491" y="305"/>
      <point x="490" y="307"/>
      <point x="490" y="308" type="curve" smooth="yes"/>
      <point x="475" y="406" type="line"/>
      <point x="467" y="499" type="line"/>
      <point x="475" y="594" type="line" smooth="yes"/>
      <point x="475" y="598"/>
      <point x="475" y="603"/>
      <point x="475" y="607" type="curve" smooth="yes"/>
      <point x="456" y="748" type="line" smooth="yes"/>
      <point x="454" y="765"/>
      <point x="441" y="785"/>
      <point x="426" y="793" type="curve" smooth="yes"/>
      <point x="336" y="844" type="line" smooth="yes"/>
      <point x="329" y="848"/>
      <point x="319" y="851"/>
      <point x="312" y="852" type="curve" smooth="yes"/>
      <point x="237" y="859" type="line" smooth="yes"/>
      <point x="235" y="859"/>
      <point x="233" y="859"/>
      <point x="231" y="859" type="curve" smooth="yes"/>
      <point x="129" y="859" type="line" smooth="yes"/>
      <point x="92" y="859"/>
      <point x="65" y="828"/>
      <point x="70" y="791" type="curve" smooth="yes"/>
      <point x="81" y="702" type="line"/>
      <point x="60" y="613" type="line" smooth="yes"/>
      <point x="58" y="605"/>
      <point x="58" y="592"/>
      <point x="60" y="583" type="curve" smooth="yes"/>
      <point x="85" y="490" type="line"/>
      <point x="87" y="398" type="line"/>
      <point x="88" y="305" type="line"/>
      <point x="69" y="211" type="line" smooth="yes"/>
      <point x="68" y="204"/>
      <point x="68" y="194"/>
      <point x="69" y="187" type="curve" smooth="yes"/>
      <point x="86" y="104" type="line"/>
      <point x="54" y="20" type="line" smooth="yes"/>
      <point x="42" y="-10"/>
      <point x="58" y="-46"/>
      <point x="89" y="-57" type="curve" smooth="yes"/>
      <point x="119" y="-69"/>
      <point x="155" y="-53"/>
      <point x="166" y="-22" type="curve" smooth="yes"/>
      <point x="204" y="78" type="line" smooth="yes"/>
      <point x="207" y="87"/>
      <point x="209" y="101"/>
      <point x="207" y="111" type="curve" smooth="yes"/>
      <point x="189" y="199" type="line"/>
      <point x="207" y="287" type="line" smooth="yes"/>
      <point x="208" y="291"/>
      <point x="208" y="296"/>
      <point x="208" y="300" type="curve" smooth="yes"/>
      <point x="207" y="400" type="line"/>
      <point x="205" y="500" type="line" smooth="yes"/>
      <point x="205" y="504"/>
      <point x="204" y="511"/>
      <point x="203" y="515" type="curve" smooth="yes"/>
      <point x="180" y="600" type="line"/>
      <point x="200" y="685" type="line" smooth="yes"/>
      <point x="202" y="691"/>
      <point x="202" y="701"/>
      <point x="201" y="707" type="curve" smooth="yes"/>
      <point x="197" y="739" type="line"/>
      <point x="228" y="739" type="line"/>
      <point x="288" y="733" type="line"/>
      <point x="341" y="703" type="line"/>
      <point x="355" y="598" type="line"/>
      <point x="347" y="504" type="line" smooth="yes"/>
      <point x="347" y="501"/>
      <point x="347" y="497"/>
      <point x="347" y="494" type="curve" smooth="yes"/>
      <point x="355" y="394" type="line" smooth="yes"/>
      <point x="355" y="393"/>
      <point x="356" y="391"/>
      <point x="356" y="390" type="curve" smooth="yes"/>
      <point x="371" y="292" type="line"/>
      <point x="378" y="199" type="line"/>
      <point x="379" y="57" type="line" smooth="yes"/>
      <point x="379" y="37"/>
      <point x="394" y="13"/>
      <point x="412" y="4" type="curve" smooth="yes"/>
      <point x="511" y="-47" type="line" smooth="yes"/>
      <point x="517" y="-51"/>
      <point x="528" y="-53"/>
      <point x="535" y="-54" type="curve" smooth="yes"/>
    </contour>
  </outline>
</glyph>
<glyph name="O" format="1">
  <advance width="848"/>
  <unicode hex="004F"/>
  <outline>
    <contour>
      <point x="346" y="-61" type="curve" smooth="yes"/>
      <point x="404" y="-61" type="line" smooth="yes"/>
      <point x="436" y="-61"/>
      <point x="464" y="-33"/>
      <point x="464" y="-1" type="curve" smooth="yes"/>
      <point x="464" y="31"/>
      <point x="436" y="59"/>
      <point x="404" y="59" type="curve" smooth="yes"/>
      <point x="354" y="59" type="line"/>
      <point x="238" y="90" type="line"/>
      <point x="180" y="136" type="line"/>
      <point x="195" y="180" type="line" smooth="yes"/>
      <point x="196" y="184"/>
      <point x="198" y="190"/>
      <point x="198" y="195" type="curve" smooth="yes"/>
      <point x="205" y="295" type="line" smooth="yes"/>
      <point x="205" y="301"/>
      <point x="204" y="311"/>
      <point x="202" y="317" type="curve" smooth="yes"/>
      <point x="174" y="404" type="line"/>
      <point x="187" y="490" type="line" smooth="yes"/>
      <point x="188" y="493"/>
      <point x="188" y="497"/>
      <point x="188" y="500" type="curve" smooth="yes"/>
      <point x="187" y="596" type="line"/>
      <point x="191" y="668" type="line"/>
      <point x="209" y="710" type="line"/>
      <point x="345" y="739" type="line"/>
      <point x="506" y="739" type="line"/>
      <point x="631" y="709" type="line"/>
      <point x="676" y="659" type="line"/>
      <point x="676" y="609" type="line"/>
      <point x="646" y="518" type="line" smooth="yes"/>
      <point x="643" y="508"/>
      <point x="642" y="493"/>
      <point x="645" y="483" type="curve" smooth="yes"/>
      <point x="670" y="395" type="line"/>
      <point x="657" y="308" type="line" smooth="yes"/>
      <point x="656" y="302"/>
      <point x="656" y="292"/>
      <point x="658" y="286" type="curve" smooth="yes"/>
      <point x="676" y="207" type="line"/>
      <point x="643" y="143" type="line" smooth="yes"/>
      <point x="643" y="141"/>
      <point x="641" y="139"/>
      <point x="641" y="137" type="curve" smooth="yes"/>
      <point x="620" y="84" type="line"/>
      <point x="529" y="56" type="line" smooth="yes"/>
      <point x="498" y="47"/>
      <point x="479" y="13"/>
      <point x="489" y="-18" type="curve" smooth="yes"/>
      <point x="498" y="-49"/>
      <point x="532" y="-68"/>
      <point x="563" y="-58" type="curve" smooth="yes"/>
      <point x="683" y="-22" type="line" smooth="yes"/>
      <point x="699" y="-18"/>
      <point x="716" y="-2"/>
      <point x="722" y="14" type="curve" smooth="yes"/>
      <point x="752" y="91" type="line"/>
      <point x="793" y="172" type="line" smooth="yes"/>
      <point x="798" y="183"/>
      <point x="800" y="201"/>
      <point x="797" y="212" type="curve" smooth="yes"/>
      <point x="777" y="301" type="line"/>
      <point x="790" y="390" type="line" smooth="yes"/>
      <point x="791" y="397"/>
      <point x="791" y="408"/>
      <point x="789" y="415" type="curve" smooth="yes"/>
      <point x="766" y="498" type="line"/>
      <point x="793" y="580" type="line" smooth="yes"/>
      <point x="795" y="585"/>
      <point x="796" y="593"/>
      <point x="796" y="599" type="curve" smooth="yes"/>
      <point x="797" y="682" type="line" smooth="yes"/>
      <point x="797" y="695"/>
      <point x="790" y="713"/>
      <point x="781" y="723" type="curve" smooth="yes"/>
      <point x="707" y="803" type="line" smooth="yes"/>
      <point x="701" y="811"/>
      <point x="687" y="819"/>
      <point x="677" y="821" type="curve" smooth="yes"/>
      <point x="527" y="857" type="line" smooth="yes"/>
      <point x="523" y="858"/>
      <point x="517" y="859"/>
      <point x="513" y="859" type="curve" smooth="yes"/>
      <point x="339" y="859" type="line" smooth="yes"/>
      <point x="336" y="859"/>
      <point x="330" y="858"/>
      <point x="327" y="858" type="curve" smooth="yes"/>
      <point x="154" y="821" type="line" smooth="yes"/>
      <point x="137" y="818"/>
      <point x="118" y="802"/>
      <point x="111" y="787" type="curve" smooth="yes"/>
      <point x="76" y="706" type="line" smooth="yes"/>
      <point x="74" y="700"/>
      <point x="72" y="691"/>
      <point x="71" y="685" type="curve" smooth="yes"/>
      <point x="67" y="602" type="line"/>
      <point x="68" y="503" type="line"/>
      <point x="54" y="408" type="line" smooth="yes"/>
      <point x="53" y="400"/>
      <point x="53" y="388"/>
      <point x="56" y="381" type="curve" smooth="yes"/>
      <point x="84" y="292" type="line"/>
      <point x="79" y="211" type="line"/>
      <point x="53" y="135" type="line" smooth="yes"/>
      <point x="45" y="113"/>
      <point x="54" y="83"/>
      <point x="72" y="69" type="curve" smooth="yes"/>
      <point x="174" y="-12" type="line" smooth="yes"/>
      <point x="179" y="-16"/>
      <point x="189" y="-21"/>
      <point x="195" y="-23" type="curve" smooth="yes"/>
      <point x="331" y="-59" type="line" smooth="yes"/>
      <point x="335" y="-60"/>
      <point x="342" y="-61"/>
    </contour>
  </outline>
</glyph>
<glyph name="P" format="1">
  <advance width="861"/>
  <unicode hex="0050"/>
  <outline>
    <contour>
      <point x="171" y="-55" type="curve" smooth="yes"/>
      <point x="202" y="-47"/>
      <point x="222" y="-13"/>
      <point x="214" y="18" type="curve" smooth="yes"/>
      <point x="201" y="67" type="line"/>
      <point x="208" y="77"/>
      <point x="212" y="90"/>
      <point x="211" y="103" type="curve" smooth="yes"/>
      <point x="207" y="177" type="line"/>
      <point x="220" y="219" type="line"/>
      <point x="335" y="247" type="line"/>
      <point x="559" y="247" type="line" smooth="yes"/>
      <point x="565" y="247"/>
      <point x="575" y="249"/>
      <point x="580" y="251" type="curve" smooth="yes"/>
      <point x="675" y="287" type="line" smooth="yes"/>
      <point x="681" y="289"/>
      <point x="690" y="295"/>
      <point x="695" y="299" type="curve" smooth="yes"/>
      <point x="782" y="380" type="line" smooth="yes"/>
      <point x="791" y="388"/>
      <point x="799" y="404"/>
      <point x="801" y="417" type="curve" smooth="yes"/>
      <point x="811" y="500" type="line" smooth="yes"/>
      <point x="811" y="503"/>
      <point x="811" y="509"/>
      <point x="811" y="512" type="curve" smooth="yes"/>
      <point x="803" y="605" type="line"/>
      <point x="805" y="685" type="line" smooth="yes"/>
      <point x="806" y="695"/>
      <point x="801" y="711"/>
      <point x="795" y="720" type="curve" smooth="yes"/>
      <point x="741" y="801" type="line" smooth="yes"/>
      <point x="734" y="811"/>
      <point x="718" y="822"/>
      <point x="705" y="825" type="curve" smooth="yes"/>
      <point x="557" y="861" type="line" smooth="yes"/>
      <point x="553" y="862"/>
      <point x="547" y="863"/>
      <point x="543" y="863" type="curve" smooth="yes"/>
      <point x="342" y="863" type="line" smooth="yes"/>
      <point x="338" y="863"/>
      <point x="331" y="862"/>
      <point x="327" y="861" type="curve" smooth="yes"/>
      <point x="186" y="825" type="line" smooth="yes"/>
      <point x="178" y="823"/>
      <point x="166" y="816"/>
      <point x="160" y="810" type="curve" smooth="yes"/>
      <point x="76" y="729" type="line" smooth="yes"/>
      <point x="64" y="718"/>
      <point x="56" y="696"/>
      <point x="58" y="680" type="curve" smooth="yes"/>
      <point x="66" y="600" type="line"/>
      <point x="65" y="504" type="line"/>
      <point x="69" y="407" type="line"/>
      <point x="51" y="314" type="line" smooth="yes"/>
      <point x="50" y="306"/>
      <point x="50" y="294"/>
      <point x="52" y="286" type="curve" smooth="yes"/>
      <point x="78" y="197" type="line"/>
      <point x="70" y="108" type="line" smooth="yes"/>
      <point x="70" y="103"/>
      <point x="70" y="93"/>
      <point x="72" y="88" type="curve" smooth="yes"/>
      <point x="98" y="-12" type="line" smooth="yes"/>
      <point x="106" y="-43"/>
      <point x="140" y="-63"/>
    </contour>
    <contour>
      <point x="314" y="365" type="curve" smooth="yes"/>
      <point x="176" y="331" type="line"/>
      <point x="188" y="392" type="line" smooth="yes"/>
      <point x="189" y="396"/>
      <point x="189" y="402"/>
      <point x="189" y="405" type="curve" smooth="yes"/>
      <point x="185" y="502" type="line"/>
      <point x="186" y="602" type="line" smooth="yes"/>
      <point x="186" y="604"/>
      <point x="186" y="607"/>
      <point x="186" y="609" type="curve" smooth="yes"/>
      <point x="180" y="663" type="line"/>
      <point x="232" y="713" type="line"/>
      <point x="350" y="743" type="line"/>
      <point x="536" y="743" type="line"/>
      <point x="654" y="714" type="line"/>
      <point x="685" y="669" type="line"/>
      <point x="683" y="605" type="line" smooth="yes"/>
      <point x="683" y="603"/>
      <point x="683" y="600"/>
      <point x="683" y="598" type="curve" smooth="yes"/>
      <point x="691" y="508" type="line"/>
      <point x="684" y="453" type="line"/>
      <point x="622" y="395" type="line"/>
      <point x="548" y="367" type="line"/>
      <point x="328" y="367" type="line" smooth="yes"/>
      <point x="324" y="367"/>
      <point x="318" y="366"/>
    </contour>
  </outline>
</glyph>
<glyph name="Q" format="1">
  <advance width="862"/>
  <unicode hex="0051"/>
  <outline>
    <contour>
      <point x="521" y="167" type="curve" smooth="yes"/>
      <point x="457" y="34" type="line"/>
      <point x="446" y="49"/>
      <point x="428" y="59"/>
      <point x="409" y="59" type="curve" smooth="yes"/>
      <point x="347" y="59" type="line"/>
      <point x="280" y="65" type="line"/>
      <point x="224" y="96" type="line"/>
      <point x="202" y="206" type="line"/>
      <point x="199" y="297" type="line"/>
      <point x="209" y="393" type="line" smooth="yes"/>
      <point x="209" y="395"/>
      <point x="209" y="397"/>
      <point x="209" y="399" type="curve" smooth="yes"/>
      <point x="209" y="499" type="line" smooth="yes"/>
      <point x="209" y="505"/>
      <point x="207" y="515"/>
      <point x="205" y="521" type="curve" smooth="yes"/>
      <point x="172" y="605" type="line"/>
      <point x="183" y="663" type="line"/>
      <point x="206" y="710" type="line"/>
      <point x="339" y="739" type="line"/>
      <point x="515" y="739" type="line"/>
      <point x="656" y="710" type="line"/>
      <point x="680" y="670" type="line"/>
      <point x="671" y="611" type="line"/>
      <point x="645" y="515" type="line" smooth="yes"/>
      <point x="643" y="506"/>
      <point x="643" y="493"/>
      <point x="645" y="484" type="curve" smooth="yes"/>
      <point x="670" y="385" type="line"/>
      <point x="692" y="292" type="line"/>
      <point x="692" y="255" type="line"/>
      <point x="658" y="252" type="line" smooth="yes"/>
      <point x="650" y="251"/>
      <point x="639" y="248"/>
      <point x="632" y="244" type="curve" smooth="yes"/>
      <point x="545" y="192" type="line" smooth="yes"/>
      <point x="536" y="187"/>
      <point x="525" y="176"/>
    </contour>
    <contour>
      <point x="409" y="-61" type="line" smooth="yes"/>
      <point x="429" y="-61"/>
      <point x="447" y="-50"/>
      <point x="458" y="-35" type="curve"/>
      <point x="463" y="-43"/>
      <point x="471" y="-50"/>
      <point x="481" y="-55" type="curve" smooth="yes"/>
      <point x="510" y="-69"/>
      <point x="547" y="-56"/>
      <point x="561" y="-27" type="curve" smooth="yes"/>
      <point x="621" y="98" type="line"/>
      <point x="681" y="133" type="line"/>
      <point x="757" y="139" type="line" smooth="yes"/>
      <point x="787" y="142"/>
      <point x="812" y="168"/>
      <point x="812" y="199" type="curve" smooth="yes"/>
      <point x="812" y="299" type="line" smooth="yes"/>
      <point x="812" y="303"/>
      <point x="811" y="309"/>
      <point x="810" y="313" type="curve" smooth="yes"/>
      <point x="786" y="413" type="line"/>
      <point x="765" y="498" type="line"/>
      <point x="788" y="583" type="line" smooth="yes"/>
      <point x="788" y="585"/>
      <point x="789" y="588"/>
      <point x="789" y="590" type="curve" smooth="yes"/>
      <point x="802" y="674" type="line" smooth="yes"/>
      <point x="804" y="685"/>
      <point x="800" y="703"/>
      <point x="794" y="714" type="curve" smooth="yes"/>
      <point x="744" y="794" type="line" smooth="yes"/>
      <point x="737" y="806"/>
      <point x="719" y="819"/>
      <point x="705" y="822" type="curve" smooth="yes"/>
      <point x="533" y="858" type="line" smooth="yes"/>
      <point x="530" y="858"/>
      <point x="524" y="859"/>
      <point x="521" y="859" type="curve" smooth="yes"/>
      <point x="333" y="859" type="line" smooth="yes"/>
      <point x="329" y="859"/>
      <point x="324" y="858"/>
      <point x="320" y="858" type="curve" smooth="yes"/>
      <point x="152" y="821" type="line" smooth="yes"/>
      <point x="136" y="818"/>
      <point x="118" y="803"/>
      <point x="110" y="789" type="curve" smooth="yes"/>
      <point x="71" y="708" type="line" smooth="yes"/>
      <point x="69" y="704"/>
      <point x="67" y="697"/>
      <point x="66" y="693" type="curve" smooth="yes"/>
      <point x="51" y="610" type="line" smooth="yes"/>
      <point x="49" y="601"/>
      <point x="51" y="586"/>
      <point x="54" y="577" type="curve" smooth="yes"/>
      <point x="89" y="488" type="line"/>
      <point x="89" y="402" type="line"/>
      <point x="79" y="305" type="line" smooth="yes"/>
      <point x="79" y="303"/>
      <point x="79" y="299"/>
      <point x="79" y="297" type="curve" smooth="yes"/>
      <point x="82" y="197" type="line" smooth="yes"/>
      <point x="82" y="194"/>
      <point x="83" y="190"/>
      <point x="83" y="187" type="curve" smooth="yes"/>
      <point x="112" y="45" type="line" smooth="yes"/>
      <point x="115" y="31"/>
      <point x="128" y="13"/>
      <point x="141" y="5" type="curve" smooth="yes"/>
      <point x="232" y="-46" type="line" smooth="yes"/>
      <point x="238" y="-50"/>
      <point x="249" y="-53"/>
      <point x="257" y="-54" type="curve" smooth="yes"/>
      <point x="339" y="-61" type="line" smooth="yes"/>
      <point x="340" y="-61"/>
      <point x="343" y="-61"/>
      <point x="344" y="-61" type="curve" smooth="yes"/>
    </contour>
  </outline>
</glyph>
<glyph name="R" format="1">
  <advance width="860"/>
  <unicode hex="0052"/>
  <outline>
    <contour>
      <point x="738" y="-64" type="curve" smooth="yes"/>
      <point x="770" y="-65"/>
      <point x="798" y="-38"/>
      <point x="799" y="-5" type="curve" smooth="yes"/>
      <point x="801" y="97" type="line" smooth="yes"/>
      <point x="801" y="101"/>
      <point x="800" y="107"/>
      <point x="800" y="111" type="curve" smooth="yes"/>
      <point x="767" y="253" type="line" smooth="yes"/>
      <point x="764" y="267"/>
      <point x="752" y="284"/>
      <point x="740" y="291" type="curve" smooth="yes"/>
      <point x="711" y="308" type="line"/>
      <point x="766" y="374" type="line" smooth="yes"/>
      <point x="770" y="379"/>
      <point x="775" y="387"/>
      <point x="777" y="392" type="curve" smooth="yes"/>
      <point x="807" y="476" type="line" smooth="yes"/>
      <point x="810" y="487"/>
      <point x="811" y="504"/>
      <point x="807" y="515" type="curve" smooth="yes"/>
      <point x="777" y="607" type="line"/>
      <point x="774" y="681" type="line" smooth="yes"/>
      <point x="774" y="684"/>
      <point x="774" y="689"/>
      <point x="773" y="691" type="curve" smooth="yes"/>
      <point x="757" y="772" type="line" smooth="yes"/>
      <point x="753" y="792"/>
      <point x="733" y="813"/>
      <point x="712" y="818" type="curve" smooth="yes"/>
      <point x="564" y="854" type="line" smooth="yes"/>
      <point x="560" y="855"/>
      <point x="554" y="856"/>
      <point x="550" y="856" type="curve" smooth="yes"/>
      <point x="308" y="856" type="line" smooth="yes"/>
      <point x="303" y="856"/>
      <point x="296" y="855"/>
      <point x="291" y="854" type="curve" smooth="yes"/>
      <point x="166" y="817" type="line" smooth="yes"/>
      <point x="151" y="813"/>
      <point x="135" y="799"/>
      <point x="128" y="785" type="curve" smooth="yes"/>
      <point x="90" y="705" type="line" smooth="yes"/>
      <point x="86" y="697"/>
      <point x="84" y="683"/>
      <point x="84" y="675" type="curve" smooth="yes"/>
      <point x="89" y="604" type="line"/>
      <point x="60" y="515" type="line" smooth="yes"/>
      <point x="59" y="511"/>
      <point x="57" y="504"/>
      <point x="57" y="500" type="curve" smooth="yes"/>
      <point x="50" y="400" type="line" smooth="yes"/>
      <point x="50" y="393"/>
      <point x="51" y="382"/>
      <point x="54" y="375" type="curve" smooth="yes"/>
      <point x="85" y="291" type="line"/>
      <point x="67" y="208" type="line"/>
      <point x="53" y="104" type="line" smooth="yes"/>
      <point x="51" y="95"/>
      <point x="54" y="79"/>
      <point x="58" y="70" type="curve" smooth="yes"/>
      <point x="105" y="-30" type="line" smooth="yes"/>
      <point x="118" y="-59"/>
      <point x="155" y="-72"/>
      <point x="185" y="-58" type="curve" smooth="yes"/>
      <point x="214" y="-45"/>
      <point x="227" y="-8"/>
      <point x="213" y="22" type="curve" smooth="yes"/>
      <point x="174" y="105" type="line"/>
      <point x="185" y="184" type="line"/>
      <point x="206" y="284" type="line" smooth="yes"/>
      <point x="208" y="293"/>
      <point x="207" y="308"/>
      <point x="203" y="317" type="curve" smooth="yes"/>
      <point x="171" y="405" type="line"/>
      <point x="176" y="484" type="line"/>
      <point x="207" y="577" type="line" smooth="yes"/>
      <point x="209" y="583"/>
      <point x="210" y="594"/>
      <point x="210" y="600" type="curve" smooth="yes"/>
      <point x="205" y="667" type="line"/>
      <point x="225" y="710" type="line"/>
      <point x="316" y="736" type="line"/>
      <point x="543" y="736" type="line"/>
      <point x="647" y="711" type="line"/>
      <point x="655" y="672" type="line"/>
      <point x="657" y="594" type="line" smooth="yes"/>
      <point x="657" y="589"/>
      <point x="659" y="582"/>
      <point x="660" y="577" type="curve" smooth="yes"/>
      <point x="687" y="497" type="line"/>
      <point x="667" y="443" type="line"/>
      <point x="618" y="384" type="line"/>
      <point x="533" y="356" type="line"/>
      <point x="221" y="356" type="line"/>
      <point x="221" y="236" type="line"/>
      <point x="558" y="236" type="line"/>
      <point x="607" y="231" type="line"/>
      <point x="656" y="202" type="line"/>
      <point x="681" y="92" type="line"/>
      <point x="679" y="-3" type="line" smooth="yes"/>
      <point x="678" y="-35"/>
      <point x="705" y="-63"/>
    </contour>
  </outline>
</glyph>
<glyph name="S" format="1">
  <advance width="857"/>
  <unicode hex="0053"/>
  <outline>
    <contour>
      <point x="352" y="-56" type="line"/>
      <point x="537" y="-56" type="line" smooth="yes"/>
      <point x="541" y="-56"/>
      <point x="548" y="-55"/>
      <point x="551" y="-54" type="curve" smooth="yes"/>
      <point x="700" y="-17" type="line" smooth="yes"/>
      <point x="715" y="-14"/>
      <point x="733" y="1"/>
      <point x="740" y="16" type="curve" smooth="yes"/>
      <point x="777" y="98" type="line" smooth="yes"/>
      <point x="778" y="100"/>
      <point x="779" y="103"/>
      <point x="780" y="105" type="curve" smooth="yes"/>
      <point x="805" y="188" type="line" smooth="yes"/>
      <point x="809" y="201"/>
      <point x="808" y="220"/>
      <point x="802" y="232" type="curve" smooth="yes"/>
      <point x="735" y="373" type="line" smooth="yes"/>
      <point x="733" y="379"/>
      <point x="727" y="386"/>
      <point x="723" y="391" type="curve" smooth="yes"/>
      <point x="671" y="441" type="line" smooth="yes"/>
      <point x="662" y="449"/>
      <point x="645" y="457"/>
      <point x="633" y="458" type="curve" smooth="yes"/>
      <point x="524" y="464" type="line" smooth="yes"/>
      <point x="523" y="464"/>
      <point x="522" y="464"/>
      <point x="521" y="464" type="curve" smooth="yes"/>
      <point x="354" y="464" type="line"/>
      <point x="276" y="470" type="line"/>
      <point x="213" y="501" type="line"/>
      <point x="209" y="607" type="line" smooth="yes"/>
      <point x="209" y="613"/>
      <point x="206" y="624"/>
      <point x="203" y="630" type="curve" smooth="yes"/>
      <point x="182" y="673" type="line"/>
      <point x="225" y="714" type="line"/>
      <point x="339" y="744" type="line"/>
      <point x="520" y="744" type="line"/>
      <point x="631" y="716" type="line"/>
      <point x="666" y="663" type="line"/>
      <point x="684" y="590" type="line" smooth="yes"/>
      <point x="691" y="558"/>
      <point x="725" y="538"/>
      <point x="756" y="546" type="curve" smooth="yes"/>
      <point x="788" y="553"/>
      <point x="808" y="587"/>
      <point x="800" y="618" type="curve" smooth="yes"/>
      <point x="780" y="702" type="line" smooth="yes"/>
      <point x="778" y="707"/>
      <point x="775" y="716"/>
      <point x="772" y="721" type="curve" smooth="yes"/>
      <point x="718" y="801" type="line" smooth="yes"/>
      <point x="711" y="812"/>
      <point x="695" y="823"/>
      <point x="683" y="826" type="curve" smooth="yes"/>
      <point x="543" y="862" type="line" smooth="yes"/>
      <point x="539" y="863"/>
      <point x="532" y="864"/>
      <point x="528" y="864" type="curve" smooth="yes"/>
      <point x="331" y="864" type="line" smooth="yes"/>
      <point x="327" y="864"/>
      <point x="320" y="863"/>
      <point x="316" y="862" type="curve" smooth="yes"/>
      <point x="179" y="826" type="line" smooth="yes"/>
      <point x="171" y="824"/>
      <point x="159" y="817"/>
      <point x="153" y="811" type="curve" smooth="yes"/>
      <point x="68" y="731" type="line" smooth="yes"/>
      <point x="50" y="714"/>
      <point x="45" y="683"/>
      <point x="55" y="661" type="curve" smooth="yes"/>
      <point x="90" y="589" type="line"/>
      <point x="95" y="460" type="line" smooth="yes"/>
      <point x="96" y="440"/>
      <point x="111" y="417"/>
      <point x="129" y="409" type="curve" smooth="yes"/>
      <point x="233" y="357" type="line" smooth="yes"/>
      <point x="239" y="354"/>
      <point x="249" y="352"/>
      <point x="255" y="351" type="curve" smooth="yes"/>
      <point x="347" y="344" type="line" smooth="yes"/>
      <point x="349" y="344"/>
      <point x="351" y="344"/>
      <point x="352" y="344" type="curve" smooth="yes"/>
      <point x="519" y="344" type="line"/>
      <point x="604" y="339" type="line"/>
      <point x="631" y="312" type="line"/>
      <point x="684" y="201" type="line"/>
      <point x="666" y="144" type="line"/>
      <point x="642" y="92" type="line"/>
      <point x="530" y="64" type="line"/>
      <point x="352" y="64" type="line"/>
      <point x="248" y="70" type="line"/>
      <point x="220" y="95" type="line"/>
      <point x="186" y="220" type="line" smooth="yes"/>
      <point x="177" y="251"/>
      <point x="143" y="270"/>
      <point x="112" y="262" type="curve" smooth="yes"/>
      <point x="81" y="253"/>
      <point x="62" y="219"/>
      <point x="70" y="188" type="curve" smooth="yes"/>
      <point x="109" y="46" type="line" smooth="yes"/>
      <point x="112" y="37"/>
      <point x="120" y="24"/>
      <point x="127" y="18" type="curve" smooth="yes"/>
      <point x="183" y="-33" type="line" smooth="yes"/>
      <point x="192" y="-41"/>
      <point x="209" y="-48"/>
      <point x="220" y="-49" type="curve" smooth="yes"/>
    </contour>
  </outline>
</glyph>
<glyph name="T" format="1">
  <advance width="712"/>
  <unicode hex="0054"/>
  <outline>
    <contour>
      <point x="397" y="-60" type="curve" smooth="yes"/>
      <point x="430" y="-57"/>
      <point x="455" y="-27"/>
      <point x="452" y="5" type="curve" smooth="yes"/>
      <point x="443" y="98" type="line"/>
      <point x="458" y="191" type="line" smooth="yes"/>
      <point x="459" y="194"/>
      <point x="459" y="200"/>
      <point x="459" y="203" type="curve" smooth="yes"/>
      <point x="454" y="296" type="line"/>
      <point x="473" y="388" type="line" smooth="yes"/>
      <point x="475" y="398"/>
      <point x="473" y="413"/>
      <point x="470" y="422" type="curve" smooth="yes"/>
      <point x="439" y="500" type="line"/>
      <point x="469" y="578" type="line" smooth="yes"/>
      <point x="471" y="584"/>
      <point x="473" y="594"/>
      <point x="473" y="600" type="curve" smooth="yes"/>
      <point x="473" y="658" type="line"/>
      <point x="515" y="706" type="line"/>
      <point x="618" y="735" type="line" smooth="yes"/>
      <point x="657" y="747"/>
      <point x="673" y="787"/>
      <point x="653" y="823" type="curve" smooth="yes"/>
      <point x="649" y="830" type="line" smooth="yes"/>
      <point x="640" y="846"/>
      <point x="616" y="860"/>
      <point x="597" y="860" type="curve" smooth="yes"/>
      <point x="110" y="860" type="line" smooth="yes"/>
      <point x="78" y="860"/>
      <point x="50" y="832"/>
      <point x="50" y="800" type="curve" smooth="yes"/>
      <point x="50" y="768"/>
      <point x="78" y="740"/>
      <point x="110" y="740" type="curve" smooth="yes"/>
      <point x="385" y="740" type="line"/>
      <point x="368" y="721" type="line" smooth="yes"/>
      <point x="359" y="712"/>
      <point x="352" y="694"/>
      <point x="352" y="681" type="curve" smooth="yes"/>
      <point x="353" y="611" type="line"/>
      <point x="318" y="522" type="line" smooth="yes"/>
      <point x="313" y="510"/>
      <point x="313" y="490"/>
      <point x="318" y="478" type="curve" smooth="yes"/>
      <point x="352" y="394" type="line"/>
      <point x="335" y="312" type="line" smooth="yes"/>
      <point x="334" y="308"/>
      <point x="334" y="301"/>
      <point x="334" y="297" type="curve" smooth="yes"/>
      <point x="339" y="203" type="line"/>
      <point x="324" y="109" type="line" smooth="yes"/>
      <point x="323" y="105"/>
      <point x="323" y="99"/>
      <point x="323" y="95" type="curve" smooth="yes"/>
      <point x="332" y="-5" type="line" smooth="yes"/>
      <point x="335" y="-38"/>
      <point x="365" y="-63"/>
    </contour>
  </outline>
</glyph>
<glyph name="U" format="1">
  <advance width="850"/>
  <unicode hex="0055"/>
  <outline>
    <contour>
      <point x="341" y="-61" type="curve" smooth="yes"/>
      <point x="507" y="-61" type="line" smooth="yes"/>
      <point x="511" y="-61"/>
      <point x="518" y="-60"/>
      <point x="522" y="-59" type="curve" smooth="yes"/>
      <point x="662" y="-23" type="line" smooth="yes"/>
      <point x="670" y="-21"/>
      <point x="681" y="-15"/>
      <point x="687" y="-10" type="curve" smooth="yes"/>
      <point x="780" y="70" type="line" smooth="yes"/>
      <point x="799" y="87"/>
      <point x="806" y="118"/>
      <point x="795" y="141" type="curve" smooth="yes"/>
      <point x="762" y="212" type="line"/>
      <point x="762" y="295" type="line"/>
      <point x="768" y="395" type="line" smooth="yes"/>
      <point x="768" y="397"/>
      <point x="768" y="401"/>
      <point x="768" y="403" type="curve" smooth="yes"/>
      <point x="762" y="493" type="line"/>
      <point x="786" y="584" type="line" smooth="yes"/>
      <point x="788" y="593"/>
      <point x="788" y="607"/>
      <point x="786" y="615" type="curve" smooth="yes"/>
      <point x="763" y="697" type="line"/>
      <point x="791" y="780" type="line" smooth="yes"/>
      <point x="801" y="810"/>
      <point x="784" y="845"/>
      <point x="753" y="856" type="curve" smooth="yes"/>
      <point x="723" y="866"/>
      <point x="688" y="849"/>
      <point x="677" y="818" type="curve" smooth="yes"/>
      <point x="643" y="718" type="line" smooth="yes"/>
      <point x="640" y="709"/>
      <point x="639" y="693"/>
      <point x="642" y="683" type="curve" smooth="yes"/>
      <point x="666" y="598" type="line"/>
      <point x="644" y="514" type="line" smooth="yes"/>
      <point x="643" y="509"/>
      <point x="642" y="501"/>
      <point x="642" y="495" type="curve" smooth="yes"/>
      <point x="648" y="399" type="line"/>
      <point x="642" y="303" type="line"/>
      <point x="642" y="199" type="line"/>
      <point x="642" y="192"/>
      <point x="645" y="180"/>
      <point x="648" y="174" type="curve" smooth="yes"/>
      <point x="667" y="131" type="line"/>
      <point x="619" y="90" type="line"/>
      <point x="499" y="59" type="line"/>
      <point x="347" y="59" type="line"/>
      <point x="208" y="88" type="line"/>
      <point x="189" y="123" type="line"/>
      <point x="205" y="184" type="line" smooth="yes"/>
      <point x="206" y="189"/>
      <point x="207" y="196"/>
      <point x="207" y="201" type="curve" smooth="yes"/>
      <point x="204" y="301" type="line" smooth="yes"/>
      <point x="204" y="305"/>
      <point x="203" y="312"/>
      <point x="201" y="316" type="curve" smooth="yes"/>
      <point x="176" y="400" type="line"/>
      <point x="197" y="484" type="line" smooth="yes"/>
      <point x="199" y="493"/>
      <point x="199" y="507"/>
      <point x="197" y="516" type="curve" smooth="yes"/>
      <point x="172" y="601" type="line"/>
      <point x="191" y="686" type="line" smooth="yes"/>
      <point x="192" y="690"/>
      <point x="193" y="697"/>
      <point x="193" y="701" type="curve" smooth="yes"/>
      <point x="189" y="801" type="line" smooth="yes"/>
      <point x="188" y="834"/>
      <point x="159" y="860"/>
      <point x="127" y="859" type="curve" smooth="yes"/>
      <point x="94" y="858"/>
      <point x="68" y="829"/>
      <point x="69" y="797" type="curve" smooth="yes"/>
      <point x="73" y="705" type="line"/>
      <point x="52" y="612" type="line" smooth="yes"/>
      <point x="50" y="604"/>
      <point x="50" y="591"/>
      <point x="52" y="582" type="curve" smooth="yes"/>
      <point x="77" y="498" type="line"/>
      <point x="56" y="414" type="line" smooth="yes"/>
      <point x="54" y="405"/>
      <point x="54" y="390"/>
      <point x="57" y="382" type="curve" smooth="yes"/>
      <point x="84" y="289" type="line"/>
      <point x="87" y="206" type="line"/>
      <point x="67" y="131" type="line" smooth="yes"/>
      <point x="64" y="118"/>
      <point x="66" y="99"/>
      <point x="72" y="88" type="curve" smooth="yes"/>
      <point x="115" y="7" type="line" smooth="yes"/>
      <point x="122" y="-7"/>
      <point x="140" y="-20"/>
      <point x="156" y="-24" type="curve" smooth="yes"/>
      <point x="329" y="-60" type="line" smooth="yes"/>
      <point x="332" y="-60"/>
      <point x="338" y="-61"/>
    </contour>
  </outline>
</glyph>
<glyph name="V" format="1">
  <advance width="858"/>
  <unicode hex="0056"/>
  <outline>
    <contour>
      <point x="348" y="-60" type="curve" smooth="yes"/>
      <point x="561" y="-60" type="line" smooth="yes"/>
      <point x="566" y="-60"/>
      <point x="575" y="-59"/>
      <point x="580" y="-57" type="curve" smooth="yes"/>
      <point x="688" y="-20" type="line" smooth="yes"/>
      <point x="702" y="-16"/>
      <point x="717" y="-1"/>
      <point x="723" y="12" type="curve" smooth="yes"/>
      <point x="759" y="92" type="line" smooth="yes"/>
      <point x="760" y="94"/>
      <point x="761" y="97"/>
      <point x="761" y="98" type="curve" smooth="yes"/>
      <point x="788" y="182" type="line" smooth="yes"/>
      <point x="790" y="189"/>
      <point x="791" y="200"/>
      <point x="790" y="208" type="curve" smooth="yes"/>
      <point x="779" y="299" type="line"/>
      <point x="795" y="389" type="line"/>
      <point x="808" y="493" type="line" smooth="yes"/>
      <point x="808" y="496"/>
      <point x="808" y="501"/>
      <point x="808" y="504" type="curve" smooth="yes"/>
      <point x="802" y="604" type="line"/>
      <point x="795" y="701" type="line"/>
      <point x="797" y="799" type="line" smooth="yes"/>
      <point x="798" y="831"/>
      <point x="771" y="859"/>
      <point x="738" y="860" type="curve" smooth="yes"/>
      <point x="706" y="861"/>
      <point x="678" y="834"/>
      <point x="677" y="801" type="curve" smooth="yes"/>
      <point x="675" y="701" type="line" smooth="yes"/>
      <point x="675" y="700"/>
      <point x="675" y="697"/>
      <point x="675" y="696" type="curve" smooth="yes"/>
      <point x="682" y="596" type="line"/>
      <point x="688" y="502" type="line"/>
      <point x="677" y="411" type="line"/>
      <point x="659" y="311" type="line" smooth="yes"/>
      <point x="658" y="306"/>
      <point x="658" y="297"/>
      <point x="659" y="292" type="curve" smooth="yes"/>
      <point x="670" y="206" type="line"/>
      <point x="648" y="138" type="line"/>
      <point x="624" y="85" type="line"/>
      <point x="551" y="60" type="line"/>
      <point x="398" y="60" type="line"/>
      <point x="381" y="152" type="line" smooth="yes"/>
      <point x="378" y="169"/>
      <point x="362" y="188"/>
      <point x="347" y="195" type="curve" smooth="yes"/>
      <point x="232" y="247" type="line" smooth="yes"/>
      <point x="227" y="249"/>
      <point x="219" y="252"/>
      <point x="214" y="252" type="curve" smooth="yes"/>
      <point x="187" y="255" type="line"/>
      <point x="171" y="306" type="line"/>
      <point x="180" y="387" type="line"/>
      <point x="211" y="481" type="line" smooth="yes"/>
      <point x="213" y="489"/>
      <point x="215" y="501"/>
      <point x="213" y="509" type="curve" smooth="yes"/>
      <point x="199" y="604" type="line"/>
      <point x="192" y="698" type="line"/>
      <point x="206" y="791" type="line" smooth="yes"/>
      <point x="211" y="823"/>
      <point x="188" y="855"/>
      <point x="156" y="859" type="curve" smooth="yes"/>
      <point x="124" y="864"/>
      <point x="92" y="841"/>
      <point x="88" y="809" type="curve" smooth="yes"/>
      <point x="73" y="709" type="line" smooth="yes"/>
      <point x="72" y="705"/>
      <point x="72" y="699"/>
      <point x="72" y="696" type="curve" smooth="yes"/>
      <point x="79" y="596" type="line"/>
      <point x="93" y="505" type="line"/>
      <point x="64" y="419" type="line" smooth="yes"/>
      <point x="63" y="415"/>
      <point x="62" y="410"/>
      <point x="61" y="407" type="curve" smooth="yes"/>
      <point x="50" y="307" type="line" smooth="yes"/>
      <point x="50" y="300"/>
      <point x="51" y="289"/>
      <point x="53" y="282" type="curve" smooth="yes"/>
      <point x="84" y="182" type="line" smooth="yes"/>
      <point x="90" y="162"/>
      <point x="113" y="143"/>
      <point x="134" y="140" type="curve" smooth="yes"/>
      <point x="191" y="134" type="line"/>
      <point x="269" y="99" type="line"/>
      <point x="289" y="-11" type="line" smooth="yes"/>
      <point x="294" y="-38"/>
      <point x="320" y="-60"/>
    </contour>
  </outline>
</glyph>
<glyph name="W" format="1">
  <advance width="867"/>
  <unicode hex="0057"/>
  <outline>
    <contour>
      <point x="215" y="-60" type="line" smooth="yes"/>
      <point x="216" y="-60"/>
      <point x="219" y="-60"/>
      <point x="220" y="-60" type="curve" smooth="yes"/>
      <point x="298" y="-53" type="line" smooth="yes"/>
      <point x="304" y="-52"/>
      <point x="313" y="-50"/>
      <point x="318" y="-47" type="curve" smooth="yes"/>
      <point x="426" y="4" type="line" smooth="yes"/>
      <point x="435" y="8"/>
      <point x="443" y="16"/>
      <point x="449" y="25" type="curve"/>
      <point x="452" y="20"/>
      <point x="455" y="16"/>
      <point x="458" y="14" type="curve" smooth="yes"/>
      <point x="515" y="-38" type="line" smooth="yes"/>
      <point x="523" y="-45"/>
      <point x="538" y="-51"/>
      <point x="549" y="-53" type="curve" smooth="yes"/>
      <point x="610" y="-60" type="line" smooth="yes"/>
      <point x="612" y="-60"/>
      <point x="615" y="-60"/>
      <point x="617" y="-60" type="curve" smooth="yes"/>
      <point x="717" y="-60" type="line" smooth="yes"/>
      <point x="739" y="-60"/>
      <point x="764" y="-43"/>
      <point x="773" y="-22" type="curve" smooth="yes"/>
      <point x="813" y="78" type="line" smooth="yes"/>
      <point x="817" y="88"/>
      <point x="818" y="105"/>
      <point x="815" y="116" type="curve" smooth="yes"/>
      <point x="789" y="210" type="line"/>
      <point x="783" y="304" type="line"/>
      <point x="770" y="403" type="line"/>
      <point x="772" y="494" type="line"/>
      <point x="788" y="590" type="line" smooth="yes"/>
      <point x="789" y="594"/>
      <point x="789" y="599"/>
      <point x="789" y="603" type="curve" smooth="yes"/>
      <point x="784" y="703" type="line"/>
      <point x="772" y="807" type="line" smooth="yes"/>
      <point x="768" y="839"/>
      <point x="737" y="863"/>
      <point x="705" y="860" type="curve" smooth="yes"/>
      <point x="673" y="856"/>
      <point x="649" y="825"/>
      <point x="652" y="793" type="curve" smooth="yes"/>
      <point x="664" y="697" type="line"/>
      <point x="669" y="604" type="line"/>
      <point x="653" y="510" type="line" smooth="yes"/>
      <point x="652" y="508"/>
      <point x="652" y="504"/>
      <point x="652" y="501" type="curve" smooth="yes"/>
      <point x="650" y="401" type="line" smooth="yes"/>
      <point x="650" y="399"/>
      <point x="650" y="395"/>
      <point x="651" y="392" type="curve" smooth="yes"/>
      <point x="663" y="296" type="line"/>
      <point x="669" y="196" type="line" smooth="yes"/>
      <point x="669" y="193"/>
      <point x="670" y="187"/>
      <point x="671" y="184" type="curve" smooth="yes"/>
      <point x="694" y="103" type="line"/>
      <point x="676" y="60" type="line"/>
      <point x="620" y="60" type="line"/>
      <point x="581" y="64" type="line"/>
      <point x="550" y="93" type="line"/>
      <point x="503" y="219" type="line"/>
      <point x="474" y="304" type="line"/>
      <point x="490" y="389" type="line" smooth="yes"/>
      <point x="498" y="428"/>
      <point x="471" y="460"/>
      <point x="431" y="460" type="curve" smooth="yes"/>
      <point x="426" y="460" type="line" smooth="yes"/>
      <point x="398" y="460"/>
      <point x="372" y="438"/>
      <point x="367" y="411" type="curve" smooth="yes"/>
      <point x="349" y="311" type="line" smooth="yes"/>
      <point x="348" y="303"/>
      <point x="348" y="291"/>
      <point x="350" y="284" type="curve" smooth="yes"/>
      <point x="374" y="199" type="line"/>
      <point x="349" y="100" type="line"/>
      <point x="276" y="66" type="line"/>
      <point x="212" y="60" type="line"/>
      <point x="199" y="60" type="line"/>
      <point x="179" y="110" type="line"/>
      <point x="186" y="193" type="line"/>
      <point x="201" y="291" type="line" smooth="yes"/>
      <point x="202" y="298"/>
      <point x="202" y="310"/>
      <point x="199" y="318" type="curve" smooth="yes"/>
      <point x="171" y="409" type="line"/>
      <point x="170" y="491" type="line"/>
      <point x="198" y="582" type="line" smooth="yes"/>
      <point x="199" y="586"/>
      <point x="200" y="591"/>
      <point x="201" y="595" type="curve" smooth="yes"/>
      <point x="210" y="695" type="line" smooth="yes"/>
      <point x="210" y="700"/>
      <point x="210" y="707"/>
      <point x="209" y="712" type="curve" smooth="yes"/>
      <point x="188" y="812" type="line" smooth="yes"/>
      <point x="181" y="844"/>
      <point x="148" y="865"/>
      <point x="117" y="859" type="curve" smooth="yes"/>
      <point x="85" y="852"/>
      <point x="64" y="819"/>
      <point x="70" y="788" type="curve" smooth="yes"/>
      <point x="89" y="696" type="line"/>
      <point x="82" y="612" type="line"/>
      <point x="53" y="518" type="line" smooth="yes"/>
      <point x="51" y="513"/>
      <point x="50" y="505"/>
      <point x="50" y="499" type="curve" smooth="yes"/>
      <point x="51" y="399" type="line" smooth="yes"/>
      <point x="51" y="395"/>
      <point x="52" y="387"/>
      <point x="54" y="382" type="curve" smooth="yes"/>
      <point x="81" y="296" type="line"/>
      <point x="67" y="209" type="line" smooth="yes"/>
      <point x="67" y="208"/>
      <point x="66" y="206"/>
      <point x="66" y="205" type="curve" smooth="yes"/>
      <point x="58" y="105" type="line" smooth="yes"/>
      <point x="58" y="97"/>
      <point x="59" y="85"/>
      <point x="62" y="77" type="curve" smooth="yes"/>
      <point x="103" y="-23" type="line" smooth="yes"/>
      <point x="112" y="-43"/>
      <point x="137" y="-60"/>
      <point x="159" y="-60" type="curve" smooth="yes"/>
    </contour>
  </outline>
</glyph>
